%TF.GenerationSoftware,KiCad,Pcbnew,(5.1.10)-1*%
%TF.CreationDate,2021-09-25T08:27:26+01:00*%
%TF.ProjectId,EnergyMonitor,456e6572-6779-44d6-9f6e-69746f722e6b,v1.0*%
%TF.SameCoordinates,Original*%
%TF.FileFunction,Paste,Top*%
%TF.FilePolarity,Positive*%
%FSLAX46Y46*%
G04 Gerber Fmt 4.6, Leading zero omitted, Abs format (unit mm)*
G04 Created by KiCad (PCBNEW (5.1.10)-1) date 2021-09-25 08:27:26*
%MOMM*%
%LPD*%
G01*
G04 APERTURE LIST*
%ADD10R,0.700000X0.600000*%
%ADD11C,0.100000*%
%ADD12R,0.900000X1.300000*%
G04 APERTURE END LIST*
%TO.C,C11*%
G36*
G01*
X119147500Y-82965000D02*
X120247500Y-82965000D01*
G75*
G02*
X120497500Y-83215000I0J-250000D01*
G01*
X120497500Y-86215000D01*
G75*
G02*
X120247500Y-86465000I-250000J0D01*
G01*
X119147500Y-86465000D01*
G75*
G02*
X118897500Y-86215000I0J250000D01*
G01*
X118897500Y-83215000D01*
G75*
G02*
X119147500Y-82965000I250000J0D01*
G01*
G37*
G36*
G01*
X119147500Y-77365000D02*
X120247500Y-77365000D01*
G75*
G02*
X120497500Y-77615000I0J-250000D01*
G01*
X120497500Y-80615000D01*
G75*
G02*
X120247500Y-80865000I-250000J0D01*
G01*
X119147500Y-80865000D01*
G75*
G02*
X118897500Y-80615000I0J250000D01*
G01*
X118897500Y-77615000D01*
G75*
G02*
X119147500Y-77365000I250000J0D01*
G01*
G37*
%TD*%
%TO.C,C1*%
G36*
G01*
X133117500Y-91855000D02*
X134217500Y-91855000D01*
G75*
G02*
X134467500Y-92105000I0J-250000D01*
G01*
X134467500Y-95105000D01*
G75*
G02*
X134217500Y-95355000I-250000J0D01*
G01*
X133117500Y-95355000D01*
G75*
G02*
X132867500Y-95105000I0J250000D01*
G01*
X132867500Y-92105000D01*
G75*
G02*
X133117500Y-91855000I250000J0D01*
G01*
G37*
G36*
G01*
X133117500Y-86255000D02*
X134217500Y-86255000D01*
G75*
G02*
X134467500Y-86505000I0J-250000D01*
G01*
X134467500Y-89505000D01*
G75*
G02*
X134217500Y-89755000I-250000J0D01*
G01*
X133117500Y-89755000D01*
G75*
G02*
X132867500Y-89505000I0J250000D01*
G01*
X132867500Y-86505000D01*
G75*
G02*
X133117500Y-86255000I250000J0D01*
G01*
G37*
%TD*%
%TO.C,J12*%
G36*
G01*
X71777500Y-94947499D02*
X71777500Y-96247501D01*
G75*
G02*
X71527501Y-96497500I-249999J0D01*
G01*
X70827499Y-96497500D01*
G75*
G02*
X70577500Y-96247501I0J249999D01*
G01*
X70577500Y-94947499D01*
G75*
G02*
X70827499Y-94697500I249999J0D01*
G01*
X71527501Y-94697500D01*
G75*
G02*
X71777500Y-94947499I0J-249999D01*
G01*
G37*
G36*
G01*
X77377500Y-94947499D02*
X77377500Y-96247501D01*
G75*
G02*
X77127501Y-96497500I-249999J0D01*
G01*
X76427499Y-96497500D01*
G75*
G02*
X76177500Y-96247501I0J249999D01*
G01*
X76177500Y-94947499D01*
G75*
G02*
X76427499Y-94697500I249999J0D01*
G01*
X77127501Y-94697500D01*
G75*
G02*
X77377500Y-94947499I0J-249999D01*
G01*
G37*
G36*
G01*
X72777500Y-98847500D02*
X72777500Y-100097500D01*
G75*
G02*
X72627500Y-100247500I-150000J0D01*
G01*
X72327500Y-100247500D01*
G75*
G02*
X72177500Y-100097500I0J150000D01*
G01*
X72177500Y-98847500D01*
G75*
G02*
X72327500Y-98697500I150000J0D01*
G01*
X72627500Y-98697500D01*
G75*
G02*
X72777500Y-98847500I0J-150000D01*
G01*
G37*
G36*
G01*
X73777500Y-98847500D02*
X73777500Y-100097500D01*
G75*
G02*
X73627500Y-100247500I-150000J0D01*
G01*
X73327500Y-100247500D01*
G75*
G02*
X73177500Y-100097500I0J150000D01*
G01*
X73177500Y-98847500D01*
G75*
G02*
X73327500Y-98697500I150000J0D01*
G01*
X73627500Y-98697500D01*
G75*
G02*
X73777500Y-98847500I0J-150000D01*
G01*
G37*
G36*
G01*
X74777500Y-98847500D02*
X74777500Y-100097500D01*
G75*
G02*
X74627500Y-100247500I-150000J0D01*
G01*
X74327500Y-100247500D01*
G75*
G02*
X74177500Y-100097500I0J150000D01*
G01*
X74177500Y-98847500D01*
G75*
G02*
X74327500Y-98697500I150000J0D01*
G01*
X74627500Y-98697500D01*
G75*
G02*
X74777500Y-98847500I0J-150000D01*
G01*
G37*
G36*
G01*
X75777500Y-98847500D02*
X75777500Y-100097500D01*
G75*
G02*
X75627500Y-100247500I-150000J0D01*
G01*
X75327500Y-100247500D01*
G75*
G02*
X75177500Y-100097500I0J150000D01*
G01*
X75177500Y-98847500D01*
G75*
G02*
X75327500Y-98697500I150000J0D01*
G01*
X75627500Y-98697500D01*
G75*
G02*
X75777500Y-98847500I0J-150000D01*
G01*
G37*
%TD*%
%TO.C,J14*%
G36*
G01*
X60747500Y-121330000D02*
X60747500Y-120080000D01*
G75*
G02*
X60897500Y-119930000I150000J0D01*
G01*
X61197500Y-119930000D01*
G75*
G02*
X61347500Y-120080000I0J-150000D01*
G01*
X61347500Y-121330000D01*
G75*
G02*
X61197500Y-121480000I-150000J0D01*
G01*
X60897500Y-121480000D01*
G75*
G02*
X60747500Y-121330000I0J150000D01*
G01*
G37*
G36*
G01*
X61747500Y-121330000D02*
X61747500Y-120080000D01*
G75*
G02*
X61897500Y-119930000I150000J0D01*
G01*
X62197500Y-119930000D01*
G75*
G02*
X62347500Y-120080000I0J-150000D01*
G01*
X62347500Y-121330000D01*
G75*
G02*
X62197500Y-121480000I-150000J0D01*
G01*
X61897500Y-121480000D01*
G75*
G02*
X61747500Y-121330000I0J150000D01*
G01*
G37*
G36*
G01*
X62747500Y-121330000D02*
X62747500Y-120080000D01*
G75*
G02*
X62897500Y-119930000I150000J0D01*
G01*
X63197500Y-119930000D01*
G75*
G02*
X63347500Y-120080000I0J-150000D01*
G01*
X63347500Y-121330000D01*
G75*
G02*
X63197500Y-121480000I-150000J0D01*
G01*
X62897500Y-121480000D01*
G75*
G02*
X62747500Y-121330000I0J150000D01*
G01*
G37*
G36*
G01*
X63747500Y-121330000D02*
X63747500Y-120080000D01*
G75*
G02*
X63897500Y-119930000I150000J0D01*
G01*
X64197500Y-119930000D01*
G75*
G02*
X64347500Y-120080000I0J-150000D01*
G01*
X64347500Y-121330000D01*
G75*
G02*
X64197500Y-121480000I-150000J0D01*
G01*
X63897500Y-121480000D01*
G75*
G02*
X63747500Y-121330000I0J150000D01*
G01*
G37*
G36*
G01*
X59147500Y-118830001D02*
X59147500Y-117529999D01*
G75*
G02*
X59397499Y-117280000I249999J0D01*
G01*
X60097501Y-117280000D01*
G75*
G02*
X60347500Y-117529999I0J-249999D01*
G01*
X60347500Y-118830001D01*
G75*
G02*
X60097501Y-119080000I-249999J0D01*
G01*
X59397499Y-119080000D01*
G75*
G02*
X59147500Y-118830001I0J249999D01*
G01*
G37*
G36*
G01*
X64747500Y-118830001D02*
X64747500Y-117529999D01*
G75*
G02*
X64997499Y-117280000I249999J0D01*
G01*
X65697501Y-117280000D01*
G75*
G02*
X65947500Y-117529999I0J-249999D01*
G01*
X65947500Y-118830001D01*
G75*
G02*
X65697501Y-119080000I-249999J0D01*
G01*
X64997499Y-119080000D01*
G75*
G02*
X64747500Y-118830001I0J249999D01*
G01*
G37*
%TD*%
%TO.C,R14*%
G36*
G01*
X122155000Y-91942498D02*
X122155000Y-92842502D01*
G75*
G02*
X121905002Y-93092500I-249998J0D01*
G01*
X121379998Y-93092500D01*
G75*
G02*
X121130000Y-92842502I0J249998D01*
G01*
X121130000Y-91942498D01*
G75*
G02*
X121379998Y-91692500I249998J0D01*
G01*
X121905002Y-91692500D01*
G75*
G02*
X122155000Y-91942498I0J-249998D01*
G01*
G37*
G36*
G01*
X123980000Y-91942498D02*
X123980000Y-92842502D01*
G75*
G02*
X123730002Y-93092500I-249998J0D01*
G01*
X123204998Y-93092500D01*
G75*
G02*
X122955000Y-92842502I0J249998D01*
G01*
X122955000Y-91942498D01*
G75*
G02*
X123204998Y-91692500I249998J0D01*
G01*
X123730002Y-91692500D01*
G75*
G02*
X123980000Y-91942498I0J-249998D01*
G01*
G37*
%TD*%
%TO.C,D6*%
G36*
G01*
X123005000Y-90943750D02*
X123005000Y-90031250D01*
G75*
G02*
X123248750Y-89787500I243750J0D01*
G01*
X123736250Y-89787500D01*
G75*
G02*
X123980000Y-90031250I0J-243750D01*
G01*
X123980000Y-90943750D01*
G75*
G02*
X123736250Y-91187500I-243750J0D01*
G01*
X123248750Y-91187500D01*
G75*
G02*
X123005000Y-90943750I0J243750D01*
G01*
G37*
G36*
G01*
X121130000Y-90943750D02*
X121130000Y-90031250D01*
G75*
G02*
X121373750Y-89787500I243750J0D01*
G01*
X121861250Y-89787500D01*
G75*
G02*
X122105000Y-90031250I0J-243750D01*
G01*
X122105000Y-90943750D01*
G75*
G02*
X121861250Y-91187500I-243750J0D01*
G01*
X121373750Y-91187500D01*
G75*
G02*
X121130000Y-90943750I0J243750D01*
G01*
G37*
%TD*%
%TO.C,R13*%
G36*
G01*
X127687500Y-99069997D02*
X127687500Y-100320003D01*
G75*
G02*
X127437503Y-100570000I-249997J0D01*
G01*
X126812497Y-100570000D01*
G75*
G02*
X126562500Y-100320003I0J249997D01*
G01*
X126562500Y-99069997D01*
G75*
G02*
X126812497Y-98820000I249997J0D01*
G01*
X127437503Y-98820000D01*
G75*
G02*
X127687500Y-99069997I0J-249997D01*
G01*
G37*
G36*
G01*
X130612500Y-99069997D02*
X130612500Y-100320003D01*
G75*
G02*
X130362503Y-100570000I-249997J0D01*
G01*
X129737497Y-100570000D01*
G75*
G02*
X129487500Y-100320003I0J249997D01*
G01*
X129487500Y-99069997D01*
G75*
G02*
X129737497Y-98820000I249997J0D01*
G01*
X130362503Y-98820000D01*
G75*
G02*
X130612500Y-99069997I0J-249997D01*
G01*
G37*
%TD*%
%TO.C,R12*%
G36*
G01*
X127687500Y-101609997D02*
X127687500Y-102860003D01*
G75*
G02*
X127437503Y-103110000I-249997J0D01*
G01*
X126812497Y-103110000D01*
G75*
G02*
X126562500Y-102860003I0J249997D01*
G01*
X126562500Y-101609997D01*
G75*
G02*
X126812497Y-101360000I249997J0D01*
G01*
X127437503Y-101360000D01*
G75*
G02*
X127687500Y-101609997I0J-249997D01*
G01*
G37*
G36*
G01*
X130612500Y-101609997D02*
X130612500Y-102860003D01*
G75*
G02*
X130362503Y-103110000I-249997J0D01*
G01*
X129737497Y-103110000D01*
G75*
G02*
X129487500Y-102860003I0J249997D01*
G01*
X129487500Y-101609997D01*
G75*
G02*
X129737497Y-101360000I249997J0D01*
G01*
X130362503Y-101360000D01*
G75*
G02*
X130612500Y-101609997I0J-249997D01*
G01*
G37*
%TD*%
%TO.C,R11*%
G36*
G01*
X127687500Y-104149997D02*
X127687500Y-105400003D01*
G75*
G02*
X127437503Y-105650000I-249997J0D01*
G01*
X126812497Y-105650000D01*
G75*
G02*
X126562500Y-105400003I0J249997D01*
G01*
X126562500Y-104149997D01*
G75*
G02*
X126812497Y-103900000I249997J0D01*
G01*
X127437503Y-103900000D01*
G75*
G02*
X127687500Y-104149997I0J-249997D01*
G01*
G37*
G36*
G01*
X130612500Y-104149997D02*
X130612500Y-105400003D01*
G75*
G02*
X130362503Y-105650000I-249997J0D01*
G01*
X129737497Y-105650000D01*
G75*
G02*
X129487500Y-105400003I0J249997D01*
G01*
X129487500Y-104149997D01*
G75*
G02*
X129737497Y-103900000I249997J0D01*
G01*
X130362503Y-103900000D01*
G75*
G02*
X130612500Y-104149997I0J-249997D01*
G01*
G37*
%TD*%
%TO.C,R10*%
G36*
G01*
X127687500Y-106689997D02*
X127687500Y-107940003D01*
G75*
G02*
X127437503Y-108190000I-249997J0D01*
G01*
X126812497Y-108190000D01*
G75*
G02*
X126562500Y-107940003I0J249997D01*
G01*
X126562500Y-106689997D01*
G75*
G02*
X126812497Y-106440000I249997J0D01*
G01*
X127437503Y-106440000D01*
G75*
G02*
X127687500Y-106689997I0J-249997D01*
G01*
G37*
G36*
G01*
X130612500Y-106689997D02*
X130612500Y-107940003D01*
G75*
G02*
X130362503Y-108190000I-249997J0D01*
G01*
X129737497Y-108190000D01*
G75*
G02*
X129487500Y-107940003I0J249997D01*
G01*
X129487500Y-106689997D01*
G75*
G02*
X129737497Y-106440000I249997J0D01*
G01*
X130362503Y-106440000D01*
G75*
G02*
X130612500Y-106689997I0J-249997D01*
G01*
G37*
%TD*%
%TO.C,R9*%
G36*
G01*
X114987500Y-99069997D02*
X114987500Y-100320003D01*
G75*
G02*
X114737503Y-100570000I-249997J0D01*
G01*
X114112497Y-100570000D01*
G75*
G02*
X113862500Y-100320003I0J249997D01*
G01*
X113862500Y-99069997D01*
G75*
G02*
X114112497Y-98820000I249997J0D01*
G01*
X114737503Y-98820000D01*
G75*
G02*
X114987500Y-99069997I0J-249997D01*
G01*
G37*
G36*
G01*
X117912500Y-99069997D02*
X117912500Y-100320003D01*
G75*
G02*
X117662503Y-100570000I-249997J0D01*
G01*
X117037497Y-100570000D01*
G75*
G02*
X116787500Y-100320003I0J249997D01*
G01*
X116787500Y-99069997D01*
G75*
G02*
X117037497Y-98820000I249997J0D01*
G01*
X117662503Y-98820000D01*
G75*
G02*
X117912500Y-99069997I0J-249997D01*
G01*
G37*
%TD*%
%TO.C,R8*%
G36*
G01*
X114987500Y-101609997D02*
X114987500Y-102860003D01*
G75*
G02*
X114737503Y-103110000I-249997J0D01*
G01*
X114112497Y-103110000D01*
G75*
G02*
X113862500Y-102860003I0J249997D01*
G01*
X113862500Y-101609997D01*
G75*
G02*
X114112497Y-101360000I249997J0D01*
G01*
X114737503Y-101360000D01*
G75*
G02*
X114987500Y-101609997I0J-249997D01*
G01*
G37*
G36*
G01*
X117912500Y-101609997D02*
X117912500Y-102860003D01*
G75*
G02*
X117662503Y-103110000I-249997J0D01*
G01*
X117037497Y-103110000D01*
G75*
G02*
X116787500Y-102860003I0J249997D01*
G01*
X116787500Y-101609997D01*
G75*
G02*
X117037497Y-101360000I249997J0D01*
G01*
X117662503Y-101360000D01*
G75*
G02*
X117912500Y-101609997I0J-249997D01*
G01*
G37*
%TD*%
%TO.C,R7*%
G36*
G01*
X114987500Y-104149997D02*
X114987500Y-105400003D01*
G75*
G02*
X114737503Y-105650000I-249997J0D01*
G01*
X114112497Y-105650000D01*
G75*
G02*
X113862500Y-105400003I0J249997D01*
G01*
X113862500Y-104149997D01*
G75*
G02*
X114112497Y-103900000I249997J0D01*
G01*
X114737503Y-103900000D01*
G75*
G02*
X114987500Y-104149997I0J-249997D01*
G01*
G37*
G36*
G01*
X117912500Y-104149997D02*
X117912500Y-105400003D01*
G75*
G02*
X117662503Y-105650000I-249997J0D01*
G01*
X117037497Y-105650000D01*
G75*
G02*
X116787500Y-105400003I0J249997D01*
G01*
X116787500Y-104149997D01*
G75*
G02*
X117037497Y-103900000I249997J0D01*
G01*
X117662503Y-103900000D01*
G75*
G02*
X117912500Y-104149997I0J-249997D01*
G01*
G37*
%TD*%
%TO.C,R6*%
G36*
G01*
X114987500Y-106689997D02*
X114987500Y-107940003D01*
G75*
G02*
X114737503Y-108190000I-249997J0D01*
G01*
X114112497Y-108190000D01*
G75*
G02*
X113862500Y-107940003I0J249997D01*
G01*
X113862500Y-106689997D01*
G75*
G02*
X114112497Y-106440000I249997J0D01*
G01*
X114737503Y-106440000D01*
G75*
G02*
X114987500Y-106689997I0J-249997D01*
G01*
G37*
G36*
G01*
X117912500Y-106689997D02*
X117912500Y-107940003D01*
G75*
G02*
X117662503Y-108190000I-249997J0D01*
G01*
X117037497Y-108190000D01*
G75*
G02*
X116787500Y-107940003I0J249997D01*
G01*
X116787500Y-106689997D01*
G75*
G02*
X117037497Y-106440000I249997J0D01*
G01*
X117662503Y-106440000D01*
G75*
G02*
X117912500Y-106689997I0J-249997D01*
G01*
G37*
%TD*%
%TO.C,R5*%
G36*
G01*
X102287500Y-99069997D02*
X102287500Y-100320003D01*
G75*
G02*
X102037503Y-100570000I-249997J0D01*
G01*
X101412497Y-100570000D01*
G75*
G02*
X101162500Y-100320003I0J249997D01*
G01*
X101162500Y-99069997D01*
G75*
G02*
X101412497Y-98820000I249997J0D01*
G01*
X102037503Y-98820000D01*
G75*
G02*
X102287500Y-99069997I0J-249997D01*
G01*
G37*
G36*
G01*
X105212500Y-99069997D02*
X105212500Y-100320003D01*
G75*
G02*
X104962503Y-100570000I-249997J0D01*
G01*
X104337497Y-100570000D01*
G75*
G02*
X104087500Y-100320003I0J249997D01*
G01*
X104087500Y-99069997D01*
G75*
G02*
X104337497Y-98820000I249997J0D01*
G01*
X104962503Y-98820000D01*
G75*
G02*
X105212500Y-99069997I0J-249997D01*
G01*
G37*
%TD*%
%TO.C,R4*%
G36*
G01*
X102287500Y-101609997D02*
X102287500Y-102860003D01*
G75*
G02*
X102037503Y-103110000I-249997J0D01*
G01*
X101412497Y-103110000D01*
G75*
G02*
X101162500Y-102860003I0J249997D01*
G01*
X101162500Y-101609997D01*
G75*
G02*
X101412497Y-101360000I249997J0D01*
G01*
X102037503Y-101360000D01*
G75*
G02*
X102287500Y-101609997I0J-249997D01*
G01*
G37*
G36*
G01*
X105212500Y-101609997D02*
X105212500Y-102860003D01*
G75*
G02*
X104962503Y-103110000I-249997J0D01*
G01*
X104337497Y-103110000D01*
G75*
G02*
X104087500Y-102860003I0J249997D01*
G01*
X104087500Y-101609997D01*
G75*
G02*
X104337497Y-101360000I249997J0D01*
G01*
X104962503Y-101360000D01*
G75*
G02*
X105212500Y-101609997I0J-249997D01*
G01*
G37*
%TD*%
%TO.C,R3*%
G36*
G01*
X102287500Y-104149997D02*
X102287500Y-105400003D01*
G75*
G02*
X102037503Y-105650000I-249997J0D01*
G01*
X101412497Y-105650000D01*
G75*
G02*
X101162500Y-105400003I0J249997D01*
G01*
X101162500Y-104149997D01*
G75*
G02*
X101412497Y-103900000I249997J0D01*
G01*
X102037503Y-103900000D01*
G75*
G02*
X102287500Y-104149997I0J-249997D01*
G01*
G37*
G36*
G01*
X105212500Y-104149997D02*
X105212500Y-105400003D01*
G75*
G02*
X104962503Y-105650000I-249997J0D01*
G01*
X104337497Y-105650000D01*
G75*
G02*
X104087500Y-105400003I0J249997D01*
G01*
X104087500Y-104149997D01*
G75*
G02*
X104337497Y-103900000I249997J0D01*
G01*
X104962503Y-103900000D01*
G75*
G02*
X105212500Y-104149997I0J-249997D01*
G01*
G37*
%TD*%
%TO.C,R2*%
G36*
G01*
X102287500Y-106689997D02*
X102287500Y-107940003D01*
G75*
G02*
X102037503Y-108190000I-249997J0D01*
G01*
X101412497Y-108190000D01*
G75*
G02*
X101162500Y-107940003I0J249997D01*
G01*
X101162500Y-106689997D01*
G75*
G02*
X101412497Y-106440000I249997J0D01*
G01*
X102037503Y-106440000D01*
G75*
G02*
X102287500Y-106689997I0J-249997D01*
G01*
G37*
G36*
G01*
X105212500Y-106689997D02*
X105212500Y-107940003D01*
G75*
G02*
X104962503Y-108190000I-249997J0D01*
G01*
X104337497Y-108190000D01*
G75*
G02*
X104087500Y-107940003I0J249997D01*
G01*
X104087500Y-106689997D01*
G75*
G02*
X104337497Y-106440000I249997J0D01*
G01*
X104962503Y-106440000D01*
G75*
G02*
X105212500Y-106689997I0J-249997D01*
G01*
G37*
%TD*%
%TO.C,R1*%
G36*
G01*
X134567500Y-85397503D02*
X134567500Y-84147497D01*
G75*
G02*
X134817497Y-83897500I249997J0D01*
G01*
X135442503Y-83897500D01*
G75*
G02*
X135692500Y-84147497I0J-249997D01*
G01*
X135692500Y-85397503D01*
G75*
G02*
X135442503Y-85647500I-249997J0D01*
G01*
X134817497Y-85647500D01*
G75*
G02*
X134567500Y-85397503I0J249997D01*
G01*
G37*
G36*
G01*
X131642500Y-85397503D02*
X131642500Y-84147497D01*
G75*
G02*
X131892497Y-83897500I249997J0D01*
G01*
X132517503Y-83897500D01*
G75*
G02*
X132767500Y-84147497I0J-249997D01*
G01*
X132767500Y-85397503D01*
G75*
G02*
X132517503Y-85647500I-249997J0D01*
G01*
X131892497Y-85647500D01*
G75*
G02*
X131642500Y-85397503I0J249997D01*
G01*
G37*
%TD*%
%TO.C,R18*%
G36*
G01*
X122320000Y-110940002D02*
X122320000Y-110039998D01*
G75*
G02*
X122569998Y-109790000I249998J0D01*
G01*
X123095002Y-109790000D01*
G75*
G02*
X123345000Y-110039998I0J-249998D01*
G01*
X123345000Y-110940002D01*
G75*
G02*
X123095002Y-111190000I-249998J0D01*
G01*
X122569998Y-111190000D01*
G75*
G02*
X122320000Y-110940002I0J249998D01*
G01*
G37*
G36*
G01*
X120495000Y-110940002D02*
X120495000Y-110039998D01*
G75*
G02*
X120744998Y-109790000I249998J0D01*
G01*
X121270002Y-109790000D01*
G75*
G02*
X121520000Y-110039998I0J-249998D01*
G01*
X121520000Y-110940002D01*
G75*
G02*
X121270002Y-111190000I-249998J0D01*
G01*
X120744998Y-111190000D01*
G75*
G02*
X120495000Y-110940002I0J249998D01*
G01*
G37*
%TD*%
D10*
%TO.C,D5*%
X86042500Y-84072500D03*
X86042500Y-85472500D03*
%TD*%
D11*
%TO.C,U2*%
G36*
X126451000Y-93740000D02*
G01*
X126451000Y-90615000D01*
X126867500Y-90615000D01*
X126867500Y-89140000D01*
X127767500Y-89140000D01*
X127767500Y-90615000D01*
X128184000Y-90615000D01*
X128184000Y-93740000D01*
X126451000Y-93740000D01*
G37*
D12*
X125817500Y-89790000D03*
X128817500Y-89790000D03*
%TD*%
%TO.C,R29*%
G36*
G01*
X138932498Y-108667500D02*
X139832502Y-108667500D01*
G75*
G02*
X140082500Y-108917498I0J-249998D01*
G01*
X140082500Y-109442502D01*
G75*
G02*
X139832502Y-109692500I-249998J0D01*
G01*
X138932498Y-109692500D01*
G75*
G02*
X138682500Y-109442502I0J249998D01*
G01*
X138682500Y-108917498D01*
G75*
G02*
X138932498Y-108667500I249998J0D01*
G01*
G37*
G36*
G01*
X138932498Y-106842500D02*
X139832502Y-106842500D01*
G75*
G02*
X140082500Y-107092498I0J-249998D01*
G01*
X140082500Y-107617502D01*
G75*
G02*
X139832502Y-107867500I-249998J0D01*
G01*
X138932498Y-107867500D01*
G75*
G02*
X138682500Y-107617502I0J249998D01*
G01*
X138682500Y-107092498D01*
G75*
G02*
X138932498Y-106842500I249998J0D01*
G01*
G37*
%TD*%
%TO.C,R28*%
G36*
G01*
X140837498Y-106842500D02*
X141737502Y-106842500D01*
G75*
G02*
X141987500Y-107092498I0J-249998D01*
G01*
X141987500Y-107617502D01*
G75*
G02*
X141737502Y-107867500I-249998J0D01*
G01*
X140837498Y-107867500D01*
G75*
G02*
X140587500Y-107617502I0J249998D01*
G01*
X140587500Y-107092498D01*
G75*
G02*
X140837498Y-106842500I249998J0D01*
G01*
G37*
G36*
G01*
X140837498Y-108667500D02*
X141737502Y-108667500D01*
G75*
G02*
X141987500Y-108917498I0J-249998D01*
G01*
X141987500Y-109442502D01*
G75*
G02*
X141737502Y-109692500I-249998J0D01*
G01*
X140837498Y-109692500D01*
G75*
G02*
X140587500Y-109442502I0J249998D01*
G01*
X140587500Y-108917498D01*
G75*
G02*
X140837498Y-108667500I249998J0D01*
G01*
G37*
%TD*%
%TO.C,R27*%
G36*
G01*
X136607500Y-105542502D02*
X136607500Y-104642498D01*
G75*
G02*
X136857498Y-104392500I249998J0D01*
G01*
X137382502Y-104392500D01*
G75*
G02*
X137632500Y-104642498I0J-249998D01*
G01*
X137632500Y-105542502D01*
G75*
G02*
X137382502Y-105792500I-249998J0D01*
G01*
X136857498Y-105792500D01*
G75*
G02*
X136607500Y-105542502I0J249998D01*
G01*
G37*
G36*
G01*
X134782500Y-105542502D02*
X134782500Y-104642498D01*
G75*
G02*
X135032498Y-104392500I249998J0D01*
G01*
X135557502Y-104392500D01*
G75*
G02*
X135807500Y-104642498I0J-249998D01*
G01*
X135807500Y-105542502D01*
G75*
G02*
X135557502Y-105792500I-249998J0D01*
G01*
X135032498Y-105792500D01*
G75*
G02*
X134782500Y-105542502I0J249998D01*
G01*
G37*
%TD*%
%TO.C,R26*%
G36*
G01*
X136607500Y-103637502D02*
X136607500Y-102737498D01*
G75*
G02*
X136857498Y-102487500I249998J0D01*
G01*
X137382502Y-102487500D01*
G75*
G02*
X137632500Y-102737498I0J-249998D01*
G01*
X137632500Y-103637502D01*
G75*
G02*
X137382502Y-103887500I-249998J0D01*
G01*
X136857498Y-103887500D01*
G75*
G02*
X136607500Y-103637502I0J249998D01*
G01*
G37*
G36*
G01*
X134782500Y-103637502D02*
X134782500Y-102737498D01*
G75*
G02*
X135032498Y-102487500I249998J0D01*
G01*
X135557502Y-102487500D01*
G75*
G02*
X135807500Y-102737498I0J-249998D01*
G01*
X135807500Y-103637502D01*
G75*
G02*
X135557502Y-103887500I-249998J0D01*
G01*
X135032498Y-103887500D01*
G75*
G02*
X134782500Y-103637502I0J249998D01*
G01*
G37*
%TD*%
%TO.C,R25*%
G36*
G01*
X135807500Y-106547498D02*
X135807500Y-107447502D01*
G75*
G02*
X135557502Y-107697500I-249998J0D01*
G01*
X135032498Y-107697500D01*
G75*
G02*
X134782500Y-107447502I0J249998D01*
G01*
X134782500Y-106547498D01*
G75*
G02*
X135032498Y-106297500I249998J0D01*
G01*
X135557502Y-106297500D01*
G75*
G02*
X135807500Y-106547498I0J-249998D01*
G01*
G37*
G36*
G01*
X137632500Y-106547498D02*
X137632500Y-107447502D01*
G75*
G02*
X137382502Y-107697500I-249998J0D01*
G01*
X136857498Y-107697500D01*
G75*
G02*
X136607500Y-107447502I0J249998D01*
G01*
X136607500Y-106547498D01*
G75*
G02*
X136857498Y-106297500I249998J0D01*
G01*
X137382502Y-106297500D01*
G75*
G02*
X137632500Y-106547498I0J-249998D01*
G01*
G37*
%TD*%
%TO.C,R24*%
G36*
G01*
X126549998Y-110017500D02*
X127450002Y-110017500D01*
G75*
G02*
X127700000Y-110267498I0J-249998D01*
G01*
X127700000Y-110792502D01*
G75*
G02*
X127450002Y-111042500I-249998J0D01*
G01*
X126549998Y-111042500D01*
G75*
G02*
X126300000Y-110792502I0J249998D01*
G01*
X126300000Y-110267498D01*
G75*
G02*
X126549998Y-110017500I249998J0D01*
G01*
G37*
G36*
G01*
X126549998Y-111842500D02*
X127450002Y-111842500D01*
G75*
G02*
X127700000Y-112092498I0J-249998D01*
G01*
X127700000Y-112617502D01*
G75*
G02*
X127450002Y-112867500I-249998J0D01*
G01*
X126549998Y-112867500D01*
G75*
G02*
X126300000Y-112617502I0J249998D01*
G01*
X126300000Y-112092498D01*
G75*
G02*
X126549998Y-111842500I249998J0D01*
G01*
G37*
%TD*%
%TO.C,R23*%
G36*
G01*
X124644998Y-111842500D02*
X125545002Y-111842500D01*
G75*
G02*
X125795000Y-112092498I0J-249998D01*
G01*
X125795000Y-112617502D01*
G75*
G02*
X125545002Y-112867500I-249998J0D01*
G01*
X124644998Y-112867500D01*
G75*
G02*
X124395000Y-112617502I0J249998D01*
G01*
X124395000Y-112092498D01*
G75*
G02*
X124644998Y-111842500I249998J0D01*
G01*
G37*
G36*
G01*
X124644998Y-110017500D02*
X125545002Y-110017500D01*
G75*
G02*
X125795000Y-110267498I0J-249998D01*
G01*
X125795000Y-110792502D01*
G75*
G02*
X125545002Y-111042500I-249998J0D01*
G01*
X124644998Y-111042500D01*
G75*
G02*
X124395000Y-110792502I0J249998D01*
G01*
X124395000Y-110267498D01*
G75*
G02*
X124644998Y-110017500I249998J0D01*
G01*
G37*
%TD*%
%TO.C,R22*%
G36*
G01*
X113849998Y-110017500D02*
X114750002Y-110017500D01*
G75*
G02*
X115000000Y-110267498I0J-249998D01*
G01*
X115000000Y-110792502D01*
G75*
G02*
X114750002Y-111042500I-249998J0D01*
G01*
X113849998Y-111042500D01*
G75*
G02*
X113600000Y-110792502I0J249998D01*
G01*
X113600000Y-110267498D01*
G75*
G02*
X113849998Y-110017500I249998J0D01*
G01*
G37*
G36*
G01*
X113849998Y-111842500D02*
X114750002Y-111842500D01*
G75*
G02*
X115000000Y-112092498I0J-249998D01*
G01*
X115000000Y-112617502D01*
G75*
G02*
X114750002Y-112867500I-249998J0D01*
G01*
X113849998Y-112867500D01*
G75*
G02*
X113600000Y-112617502I0J249998D01*
G01*
X113600000Y-112092498D01*
G75*
G02*
X113849998Y-111842500I249998J0D01*
G01*
G37*
%TD*%
%TO.C,R21*%
G36*
G01*
X111944998Y-111842500D02*
X112845002Y-111842500D01*
G75*
G02*
X113095000Y-112092498I0J-249998D01*
G01*
X113095000Y-112617502D01*
G75*
G02*
X112845002Y-112867500I-249998J0D01*
G01*
X111944998Y-112867500D01*
G75*
G02*
X111695000Y-112617502I0J249998D01*
G01*
X111695000Y-112092498D01*
G75*
G02*
X111944998Y-111842500I249998J0D01*
G01*
G37*
G36*
G01*
X111944998Y-110017500D02*
X112845002Y-110017500D01*
G75*
G02*
X113095000Y-110267498I0J-249998D01*
G01*
X113095000Y-110792502D01*
G75*
G02*
X112845002Y-111042500I-249998J0D01*
G01*
X111944998Y-111042500D01*
G75*
G02*
X111695000Y-110792502I0J249998D01*
G01*
X111695000Y-110267498D01*
G75*
G02*
X111944998Y-110017500I249998J0D01*
G01*
G37*
%TD*%
%TO.C,R20*%
G36*
G01*
X101149998Y-110017500D02*
X102050002Y-110017500D01*
G75*
G02*
X102300000Y-110267498I0J-249998D01*
G01*
X102300000Y-110792502D01*
G75*
G02*
X102050002Y-111042500I-249998J0D01*
G01*
X101149998Y-111042500D01*
G75*
G02*
X100900000Y-110792502I0J249998D01*
G01*
X100900000Y-110267498D01*
G75*
G02*
X101149998Y-110017500I249998J0D01*
G01*
G37*
G36*
G01*
X101149998Y-111842500D02*
X102050002Y-111842500D01*
G75*
G02*
X102300000Y-112092498I0J-249998D01*
G01*
X102300000Y-112617502D01*
G75*
G02*
X102050002Y-112867500I-249998J0D01*
G01*
X101149998Y-112867500D01*
G75*
G02*
X100900000Y-112617502I0J249998D01*
G01*
X100900000Y-112092498D01*
G75*
G02*
X101149998Y-111842500I249998J0D01*
G01*
G37*
%TD*%
%TO.C,R19*%
G36*
G01*
X99244998Y-111842500D02*
X100145002Y-111842500D01*
G75*
G02*
X100395000Y-112092498I0J-249998D01*
G01*
X100395000Y-112617502D01*
G75*
G02*
X100145002Y-112867500I-249998J0D01*
G01*
X99244998Y-112867500D01*
G75*
G02*
X98995000Y-112617502I0J249998D01*
G01*
X98995000Y-112092498D01*
G75*
G02*
X99244998Y-111842500I249998J0D01*
G01*
G37*
G36*
G01*
X99244998Y-110017500D02*
X100145002Y-110017500D01*
G75*
G02*
X100395000Y-110267498I0J-249998D01*
G01*
X100395000Y-110792502D01*
G75*
G02*
X100145002Y-111042500I-249998J0D01*
G01*
X99244998Y-111042500D01*
G75*
G02*
X98995000Y-110792502I0J249998D01*
G01*
X98995000Y-110267498D01*
G75*
G02*
X99244998Y-110017500I249998J0D01*
G01*
G37*
%TD*%
%TO.C,R17*%
G36*
G01*
X109620000Y-110940002D02*
X109620000Y-110039998D01*
G75*
G02*
X109869998Y-109790000I249998J0D01*
G01*
X110395002Y-109790000D01*
G75*
G02*
X110645000Y-110039998I0J-249998D01*
G01*
X110645000Y-110940002D01*
G75*
G02*
X110395002Y-111190000I-249998J0D01*
G01*
X109869998Y-111190000D01*
G75*
G02*
X109620000Y-110940002I0J249998D01*
G01*
G37*
G36*
G01*
X107795000Y-110940002D02*
X107795000Y-110039998D01*
G75*
G02*
X108044998Y-109790000I249998J0D01*
G01*
X108570002Y-109790000D01*
G75*
G02*
X108820000Y-110039998I0J-249998D01*
G01*
X108820000Y-110940002D01*
G75*
G02*
X108570002Y-111190000I-249998J0D01*
G01*
X108044998Y-111190000D01*
G75*
G02*
X107795000Y-110940002I0J249998D01*
G01*
G37*
%TD*%
%TO.C,R16*%
G36*
G01*
X96920000Y-110940002D02*
X96920000Y-110039998D01*
G75*
G02*
X97169998Y-109790000I249998J0D01*
G01*
X97695002Y-109790000D01*
G75*
G02*
X97945000Y-110039998I0J-249998D01*
G01*
X97945000Y-110940002D01*
G75*
G02*
X97695002Y-111190000I-249998J0D01*
G01*
X97169998Y-111190000D01*
G75*
G02*
X96920000Y-110940002I0J249998D01*
G01*
G37*
G36*
G01*
X95095000Y-110940002D02*
X95095000Y-110039998D01*
G75*
G02*
X95344998Y-109790000I249998J0D01*
G01*
X95870002Y-109790000D01*
G75*
G02*
X96120000Y-110039998I0J-249998D01*
G01*
X96120000Y-110940002D01*
G75*
G02*
X95870002Y-111190000I-249998J0D01*
G01*
X95344998Y-111190000D01*
G75*
G02*
X95095000Y-110940002I0J249998D01*
G01*
G37*
%TD*%
D10*
%TO.C,D4*%
X86042500Y-89152500D03*
X86042500Y-90552500D03*
%TD*%
%TO.C,D3*%
X86042500Y-94232500D03*
X86042500Y-95632500D03*
%TD*%
%TO.C,D2*%
X86042500Y-99312500D03*
X86042500Y-100712500D03*
%TD*%
%TO.C,C10*%
G36*
G01*
X140032501Y-103240000D02*
X138732499Y-103240000D01*
G75*
G02*
X138482500Y-102990001I0J249999D01*
G01*
X138482500Y-102339999D01*
G75*
G02*
X138732499Y-102090000I249999J0D01*
G01*
X140032501Y-102090000D01*
G75*
G02*
X140282500Y-102339999I0J-249999D01*
G01*
X140282500Y-102990001D01*
G75*
G02*
X140032501Y-103240000I-249999J0D01*
G01*
G37*
G36*
G01*
X140032501Y-106190000D02*
X138732499Y-106190000D01*
G75*
G02*
X138482500Y-105940001I0J249999D01*
G01*
X138482500Y-105289999D01*
G75*
G02*
X138732499Y-105040000I249999J0D01*
G01*
X140032501Y-105040000D01*
G75*
G02*
X140282500Y-105289999I0J-249999D01*
G01*
X140282500Y-105940001D01*
G75*
G02*
X140032501Y-106190000I-249999J0D01*
G01*
G37*
%TD*%
%TO.C,C9*%
G36*
G01*
X135757500Y-108427500D02*
X135757500Y-109377500D01*
G75*
G02*
X135507500Y-109627500I-250000J0D01*
G01*
X135007500Y-109627500D01*
G75*
G02*
X134757500Y-109377500I0J250000D01*
G01*
X134757500Y-108427500D01*
G75*
G02*
X135007500Y-108177500I250000J0D01*
G01*
X135507500Y-108177500D01*
G75*
G02*
X135757500Y-108427500I0J-250000D01*
G01*
G37*
G36*
G01*
X137657500Y-108427500D02*
X137657500Y-109377500D01*
G75*
G02*
X137407500Y-109627500I-250000J0D01*
G01*
X136907500Y-109627500D01*
G75*
G02*
X136657500Y-109377500I0J250000D01*
G01*
X136657500Y-108427500D01*
G75*
G02*
X136907500Y-108177500I250000J0D01*
G01*
X137407500Y-108177500D01*
G75*
G02*
X137657500Y-108427500I0J-250000D01*
G01*
G37*
%TD*%
%TO.C,C8*%
G36*
G01*
X129207499Y-109075000D02*
X130507501Y-109075000D01*
G75*
G02*
X130757500Y-109324999I0J-249999D01*
G01*
X130757500Y-109975001D01*
G75*
G02*
X130507501Y-110225000I-249999J0D01*
G01*
X129207499Y-110225000D01*
G75*
G02*
X128957500Y-109975001I0J249999D01*
G01*
X128957500Y-109324999D01*
G75*
G02*
X129207499Y-109075000I249999J0D01*
G01*
G37*
G36*
G01*
X129207499Y-112025000D02*
X130507501Y-112025000D01*
G75*
G02*
X130757500Y-112274999I0J-249999D01*
G01*
X130757500Y-112925001D01*
G75*
G02*
X130507501Y-113175000I-249999J0D01*
G01*
X129207499Y-113175000D01*
G75*
G02*
X128957500Y-112925001I0J249999D01*
G01*
X128957500Y-112274999D01*
G75*
G02*
X129207499Y-112025000I249999J0D01*
G01*
G37*
%TD*%
%TO.C,C7*%
G36*
G01*
X116507499Y-109075000D02*
X117807501Y-109075000D01*
G75*
G02*
X118057500Y-109324999I0J-249999D01*
G01*
X118057500Y-109975001D01*
G75*
G02*
X117807501Y-110225000I-249999J0D01*
G01*
X116507499Y-110225000D01*
G75*
G02*
X116257500Y-109975001I0J249999D01*
G01*
X116257500Y-109324999D01*
G75*
G02*
X116507499Y-109075000I249999J0D01*
G01*
G37*
G36*
G01*
X116507499Y-112025000D02*
X117807501Y-112025000D01*
G75*
G02*
X118057500Y-112274999I0J-249999D01*
G01*
X118057500Y-112925001D01*
G75*
G02*
X117807501Y-113175000I-249999J0D01*
G01*
X116507499Y-113175000D01*
G75*
G02*
X116257500Y-112925001I0J249999D01*
G01*
X116257500Y-112274999D01*
G75*
G02*
X116507499Y-112025000I249999J0D01*
G01*
G37*
%TD*%
%TO.C,C6*%
G36*
G01*
X103807499Y-109075000D02*
X105107501Y-109075000D01*
G75*
G02*
X105357500Y-109324999I0J-249999D01*
G01*
X105357500Y-109975001D01*
G75*
G02*
X105107501Y-110225000I-249999J0D01*
G01*
X103807499Y-110225000D01*
G75*
G02*
X103557500Y-109975001I0J249999D01*
G01*
X103557500Y-109324999D01*
G75*
G02*
X103807499Y-109075000I249999J0D01*
G01*
G37*
G36*
G01*
X103807499Y-112025000D02*
X105107501Y-112025000D01*
G75*
G02*
X105357500Y-112274999I0J-249999D01*
G01*
X105357500Y-112925001D01*
G75*
G02*
X105107501Y-113175000I-249999J0D01*
G01*
X103807499Y-113175000D01*
G75*
G02*
X103557500Y-112925001I0J249999D01*
G01*
X103557500Y-112274999D01*
G75*
G02*
X103807499Y-112025000I249999J0D01*
G01*
G37*
%TD*%
%TO.C,C5*%
G36*
G01*
X122370000Y-112870000D02*
X122370000Y-111920000D01*
G75*
G02*
X122620000Y-111670000I250000J0D01*
G01*
X123120000Y-111670000D01*
G75*
G02*
X123370000Y-111920000I0J-250000D01*
G01*
X123370000Y-112870000D01*
G75*
G02*
X123120000Y-113120000I-250000J0D01*
G01*
X122620000Y-113120000D01*
G75*
G02*
X122370000Y-112870000I0J250000D01*
G01*
G37*
G36*
G01*
X120470000Y-112870000D02*
X120470000Y-111920000D01*
G75*
G02*
X120720000Y-111670000I250000J0D01*
G01*
X121220000Y-111670000D01*
G75*
G02*
X121470000Y-111920000I0J-250000D01*
G01*
X121470000Y-112870000D01*
G75*
G02*
X121220000Y-113120000I-250000J0D01*
G01*
X120720000Y-113120000D01*
G75*
G02*
X120470000Y-112870000I0J250000D01*
G01*
G37*
%TD*%
%TO.C,C4*%
G36*
G01*
X109670000Y-112870000D02*
X109670000Y-111920000D01*
G75*
G02*
X109920000Y-111670000I250000J0D01*
G01*
X110420000Y-111670000D01*
G75*
G02*
X110670000Y-111920000I0J-250000D01*
G01*
X110670000Y-112870000D01*
G75*
G02*
X110420000Y-113120000I-250000J0D01*
G01*
X109920000Y-113120000D01*
G75*
G02*
X109670000Y-112870000I0J250000D01*
G01*
G37*
G36*
G01*
X107770000Y-112870000D02*
X107770000Y-111920000D01*
G75*
G02*
X108020000Y-111670000I250000J0D01*
G01*
X108520000Y-111670000D01*
G75*
G02*
X108770000Y-111920000I0J-250000D01*
G01*
X108770000Y-112870000D01*
G75*
G02*
X108520000Y-113120000I-250000J0D01*
G01*
X108020000Y-113120000D01*
G75*
G02*
X107770000Y-112870000I0J250000D01*
G01*
G37*
%TD*%
%TO.C,C3*%
G36*
G01*
X96970000Y-112870000D02*
X96970000Y-111920000D01*
G75*
G02*
X97220000Y-111670000I250000J0D01*
G01*
X97720000Y-111670000D01*
G75*
G02*
X97970000Y-111920000I0J-250000D01*
G01*
X97970000Y-112870000D01*
G75*
G02*
X97720000Y-113120000I-250000J0D01*
G01*
X97220000Y-113120000D01*
G75*
G02*
X96970000Y-112870000I0J250000D01*
G01*
G37*
G36*
G01*
X95070000Y-112870000D02*
X95070000Y-111920000D01*
G75*
G02*
X95320000Y-111670000I250000J0D01*
G01*
X95820000Y-111670000D01*
G75*
G02*
X96070000Y-111920000I0J-250000D01*
G01*
X96070000Y-112870000D01*
G75*
G02*
X95820000Y-113120000I-250000J0D01*
G01*
X95320000Y-113120000D01*
G75*
G02*
X95070000Y-112870000I0J250000D01*
G01*
G37*
%TD*%
%TO.C,C2*%
G36*
G01*
X128217500Y-87962501D02*
X128217500Y-86662499D01*
G75*
G02*
X128467499Y-86412500I249999J0D01*
G01*
X129117501Y-86412500D01*
G75*
G02*
X129367500Y-86662499I0J-249999D01*
G01*
X129367500Y-87962501D01*
G75*
G02*
X129117501Y-88212500I-249999J0D01*
G01*
X128467499Y-88212500D01*
G75*
G02*
X128217500Y-87962501I0J249999D01*
G01*
G37*
G36*
G01*
X125267500Y-87962501D02*
X125267500Y-86662499D01*
G75*
G02*
X125517499Y-86412500I249999J0D01*
G01*
X126167501Y-86412500D01*
G75*
G02*
X126417500Y-86662499I0J-249999D01*
G01*
X126417500Y-87962501D01*
G75*
G02*
X126167501Y-88212500I-249999J0D01*
G01*
X125517499Y-88212500D01*
G75*
G02*
X125267500Y-87962501I0J249999D01*
G01*
G37*
%TD*%
M02*
