M48
; DRILL file {KiCad (5.1.10)-1} date 09/25/21 03:13:27
; FORMAT={-:-/ absolute / inch / decimal}
; #@! TF.CreationDate,2021-09-25T03:13:27+01:00
; #@! TF.GenerationSoftware,Kicad,Pcbnew,(5.1.10)-1
; #@! TF.FileFunction,Plated,1,2,PTH
FMAT,2
INCH
T1C0.0157
T2C0.0300
T3C0.0315
T4C0.0394
T5C0.0866
%
G90
G05
T1
X2.035Y-3.1
X2.035Y-4.8
X2.0541Y-3.0541
X2.0541Y-3.1459
X2.0541Y-4.7541
X2.0541Y-4.8459
X2.075Y-3.3375
X2.075Y-3.5375
X2.075Y-3.7375
X2.075Y-3.9375
X2.075Y-4.1375
X2.075Y-4.3375
X2.075Y-4.5375
X2.1Y-3.035
X2.1Y-3.165
X2.1Y-4.735
X2.1Y-4.865
X2.1459Y-3.0541
X2.1459Y-3.1459
X2.1459Y-4.7541
X2.1459Y-4.8459
X2.165Y-3.1
X2.165Y-4.8
X2.2625Y-3.425
X2.2625Y-3.7
X2.305Y-3.1
X2.3125Y-4.5375
X2.35Y-4.0125
X2.45Y-4.4625
X2.46Y-3.025
X2.575Y-3.45
X2.575Y-3.7
X2.575Y-3.9875
X2.6625Y-4.4625
X2.6625Y-4.6
X2.71Y-3.11
X2.7625Y-3.5625
X2.8125Y-3.9875
X2.8125Y-4.5875
X2.825Y-3.675
X2.875Y-4.7875
X2.9125Y-4.4
X2.9236Y-4.0236
X2.9639Y-4.0639
X3.1Y-3.425
X3.1Y-3.625
X3.1Y-3.7625
X3.1Y-3.875
X3.1Y-4.7875
X3.1125Y-4.0875
X3.1375Y-4.6
X3.2625Y-4.6
X3.275Y-4.0875
X3.275Y-4.2875
X3.3Y-3.185
X3.3Y-3.425
X3.3Y-3.625
X3.3Y-3.7625
X3.3Y-3.875
X3.475Y-4.0875
X3.475Y-4.2875
X3.5Y-3.425
X3.5Y-3.625
X3.5Y-3.875
X3.515Y-3.225
X3.6Y-4.4125
X3.625Y-4.6125
X3.625Y-4.8125
X3.7Y-3.225
X3.7Y-3.425
X3.7Y-3.625
X3.83Y-3.3
X3.845Y-3.135
X3.85Y-3.775
X3.85Y-4.6875
X3.85Y-4.8625
X3.9Y-3.43
X3.95Y-4.5
X4.05Y-4.6875
X4.05Y-4.8625
X4.075Y-3.65
X4.085Y-3.085
X4.1Y-3.43
X4.1875Y-3.775
X4.1875Y-3.8625
X4.2125Y-4.475
X4.25Y-4.6875
X4.25Y-4.8625
X4.3Y-3.285
X4.3Y-3.43
X4.3Y-3.75
X4.3375Y-3.65
X4.45Y-4.5
X4.45Y-4.6875
X4.45Y-4.8625
X4.5Y-3.055
X4.5Y-3.7
X4.525Y-3.3
X4.65Y-4.6875
X4.65Y-4.8625
X4.675Y-3.4875
X4.7Y-3.1
X4.7Y-3.775
X4.7Y-3.8625
X4.7125Y-3.3
X4.7125Y-4.475
X4.7625Y-3.65
X4.8Y-3.775
X4.85Y-4.6875
X4.85Y-4.8625
X4.871Y-3.775
X4.8875Y-3.6625
X4.9Y-3.05
X4.95Y-4.5
X4.975Y-3.45
X4.975Y-3.6
X4.975Y-3.6375
X4.975Y-3.675
X5.05Y-3.225
X5.05Y-4.6875
X5.05Y-4.8625
X5.1Y-3.05
X5.1125Y-3.5625
X5.1125Y-3.6375
X5.1125Y-3.7125
X5.125Y-3.4375
X5.2375Y-3.95
X5.2375Y-4.125
X5.2375Y-4.325
X5.3Y-3.05
X5.3Y-3.25
X5.325Y-3.525
X5.325Y-3.7125
X5.325Y-3.775
X5.325Y-3.8625
X5.405Y-3.92
X5.425Y-4.5875
X5.425Y-4.85
X5.4875Y-3.9875
X5.4875Y-4.1
X5.4875Y-4.3625
X5.5Y-3.1
X5.5Y-3.225
X5.51Y-3.755
X5.5125Y-3.425
X5.6125Y-4.85
X5.625Y-3.9125
X5.625Y-4.125
X5.625Y-4.3625
X5.6875Y-3.725
X5.7Y-3.325
X5.7Y-3.525
X5.7Y-3.91
X5.7Y-4.125
X5.7Y-4.365
X5.71Y-3.1
X5.71Y-4.8
X5.7291Y-3.0541
X5.7291Y-3.1459
X5.7291Y-4.7541
X5.7291Y-4.8459
X5.775Y-3.035
X5.775Y-3.165
X5.775Y-4.735
X5.775Y-4.865
X5.8209Y-3.0541
X5.8209Y-3.1459
X5.8209Y-4.7541
X5.8209Y-4.8459
X5.825Y-3.325
X5.825Y-3.525
X5.825Y-3.725
X5.825Y-3.925
X5.825Y-4.125
X5.825Y-4.3625
X5.825Y-4.5625
X5.84Y-3.1
X5.84Y-4.8
T2
X2.2625Y-3.1875
X2.2625Y-3.2875
X2.2625Y-4.1875
X2.2625Y-4.2875
X2.3625Y-3.1875
X2.3625Y-3.2875
X2.3625Y-4.1875
X2.3625Y-4.2875
X2.4625Y-3.1875
X2.4625Y-3.2875
X2.4625Y-4.1875
X2.4625Y-4.2875
X2.5625Y-3.1875
X2.5625Y-3.2875
X2.5625Y-4.1875
X2.5625Y-4.2875
X2.6625Y-3.1875
X2.6625Y-3.2875
X2.6625Y-4.1875
X2.6625Y-4.2875
X2.7625Y-3.1875
X2.7625Y-3.2875
X2.7625Y-4.1875
X2.7625Y-4.2875
X2.8625Y-3.1875
X2.8625Y-3.2875
X2.8625Y-4.1875
X2.8625Y-4.2875
X2.9284Y-4.5978
X2.9625Y-3.1875
X2.9625Y-3.2875
X2.9625Y-4.1875
X2.9625Y-4.2875
X2.9678Y-4.6963
X3.0072Y-4.5978
X3.0466Y-4.6963
X3.0625Y-3.1875
X3.0625Y-3.2875
X3.0625Y-4.1875
X3.0625Y-4.2875
X3.1625Y-3.1875
X3.1625Y-3.2875
X3.1625Y-4.1875
X3.1625Y-4.2875
T3
X5.425Y-3.35
X5.425Y-3.65
T4
X3.4375Y-4.5125
X3.4375Y-4.6125
X3.4375Y-4.7125
X3.4375Y-4.8125
X3.6Y-3.3375
X3.6Y-3.5375
X3.6Y-3.7375
X3.6Y-3.9375
X3.6Y-4.1375
X3.8Y-3.925
X3.8Y-4.025
X3.8Y-4.125
X3.8Y-4.225
X3.9Y-3.925
X3.9Y-4.025
X3.9Y-4.125
X3.9Y-4.225
X3.93Y-3.2
X4.03Y-3.2
X4.13Y-3.2
X4.23Y-3.2
X4.3Y-3.925
X4.3Y-4.025
X4.3Y-4.125
X4.3Y-4.225
X4.33Y-3.2
X4.4Y-3.925
X4.4Y-4.025
X4.4Y-4.125
X4.4Y-4.225
X4.43Y-3.2
X4.8Y-3.925
X4.8Y-4.025
X4.8Y-4.125
X4.8Y-4.225
X4.9Y-3.925
X4.9Y-4.025
X4.9Y-4.125
X4.9Y-4.225
X4.9375Y-3.325
X5.0375Y-3.325
X5.5625Y-3.525
X5.5625Y-3.625
T5
X2.1Y-3.1
X2.1Y-4.8
X2.7473Y-4.7947
X3.2277Y-4.7947
X5.775Y-3.1
X5.775Y-4.8
T2
G00X3.755Y-4.5981
M15
G01X3.755Y-4.5769
M16
G05
G00X3.855Y-4.5981
M15
G01X3.855Y-4.5769
M16
G05
G00X3.9606Y-4.78
M15
G01X3.9394Y-4.78
M16
G05
G00X4.045Y-4.5981
M15
G01X4.045Y-4.5769
M16
G05
G00X4.145Y-4.5981
M15
G01X4.145Y-4.5769
M16
G05
G00X4.255Y-4.5981
M15
G01X4.255Y-4.5769
M16
G05
G00X4.355Y-4.5981
M15
G01X4.355Y-4.5769
M16
G05
G00X4.4606Y-4.78
M15
G01X4.4394Y-4.78
M16
G05
G00X4.545Y-4.5981
M15
G01X4.545Y-4.5769
M16
G05
G00X4.645Y-4.5981
M15
G01X4.645Y-4.5769
M16
G05
G00X4.755Y-4.5981
M15
G01X4.755Y-4.5769
M16
G05
G00X4.855Y-4.5981
M15
G01X4.855Y-4.5769
M16
G05
G00X4.9606Y-4.78
M15
G01X4.9394Y-4.78
M16
G05
G00X5.045Y-4.5981
M15
G01X5.045Y-4.5769
M16
G05
G00X5.145Y-4.5981
M15
G01X5.145Y-4.5769
M16
G05
G00X5.5131Y-4.4875
M15
G01X5.4369Y-4.4875
M16
G05
G00X5.5131Y-4.7375
M15
G01X5.4369Y-4.7375
M16
G05
G00X5.65Y-4.6381
M15
G01X5.65Y-4.5619
M16
G05
T0
M30
