%TF.GenerationSoftware,KiCad,Pcbnew,(5.1.10)-1*%
%TF.CreationDate,2021-09-25T03:13:22+01:00*%
%TF.ProjectId,EnergyMonitor,456e6572-6779-44d6-9f6e-69746f722e6b,v1.0*%
%TF.SameCoordinates,Original*%
%TF.FileFunction,Legend,Bot*%
%TF.FilePolarity,Positive*%
%FSLAX46Y46*%
G04 Gerber Fmt 4.6, Leading zero omitted, Abs format (unit mm)*
G04 Created by KiCad (PCBNEW (5.1.10)-1) date 2021-09-25 03:13:22*
%MOMM*%
%LPD*%
G01*
G04 APERTURE LIST*
%ADD10C,0.150000*%
%ADD11C,0.120000*%
G04 APERTURE END LIST*
D10*
X107068809Y-79017761D02*
X106925952Y-79065380D01*
X106687857Y-79065380D01*
X106592619Y-79017761D01*
X106545000Y-78970142D01*
X106497380Y-78874904D01*
X106497380Y-78779666D01*
X106545000Y-78684428D01*
X106592619Y-78636809D01*
X106687857Y-78589190D01*
X106878333Y-78541571D01*
X106973571Y-78493952D01*
X107021190Y-78446333D01*
X107068809Y-78351095D01*
X107068809Y-78255857D01*
X107021190Y-78160619D01*
X106973571Y-78113000D01*
X106878333Y-78065380D01*
X106640238Y-78065380D01*
X106497380Y-78113000D01*
X106068809Y-79065380D02*
X106068809Y-78065380D01*
X105687857Y-78065380D01*
X105592619Y-78113000D01*
X105545000Y-78160619D01*
X105497380Y-78255857D01*
X105497380Y-78398714D01*
X105545000Y-78493952D01*
X105592619Y-78541571D01*
X105687857Y-78589190D01*
X106068809Y-78589190D01*
X105068809Y-79065380D02*
X105068809Y-78065380D01*
X99322000Y-84044404D02*
X99274380Y-83949166D01*
X99274380Y-83806309D01*
X99322000Y-83663452D01*
X99417238Y-83568214D01*
X99512476Y-83520595D01*
X99702952Y-83472976D01*
X99845809Y-83472976D01*
X100036285Y-83520595D01*
X100131523Y-83568214D01*
X100226761Y-83663452D01*
X100274380Y-83806309D01*
X100274380Y-83901547D01*
X100226761Y-84044404D01*
X100179142Y-84092023D01*
X99845809Y-84092023D01*
X99845809Y-83901547D01*
X100274380Y-84520595D02*
X99274380Y-84520595D01*
X100274380Y-85092023D01*
X99274380Y-85092023D01*
X100274380Y-85568214D02*
X99274380Y-85568214D01*
X99274380Y-85806309D01*
X99322000Y-85949166D01*
X99417238Y-86044404D01*
X99512476Y-86092023D01*
X99702952Y-86139642D01*
X99845809Y-86139642D01*
X100036285Y-86092023D01*
X100131523Y-86044404D01*
X100226761Y-85949166D01*
X100274380Y-85806309D01*
X100274380Y-85568214D01*
X112101380Y-83425357D02*
X112101380Y-84044404D01*
X112482333Y-83711071D01*
X112482333Y-83853928D01*
X112529952Y-83949166D01*
X112577571Y-83996785D01*
X112672809Y-84044404D01*
X112910904Y-84044404D01*
X113006142Y-83996785D01*
X113053761Y-83949166D01*
X113101380Y-83853928D01*
X113101380Y-83568214D01*
X113053761Y-83472976D01*
X113006142Y-83425357D01*
X112101380Y-84330119D02*
X113101380Y-84663452D01*
X112101380Y-84996785D01*
X112101380Y-85234880D02*
X112101380Y-85853928D01*
X112482333Y-85520595D01*
X112482333Y-85663452D01*
X112529952Y-85758690D01*
X112577571Y-85806309D01*
X112672809Y-85853928D01*
X112910904Y-85853928D01*
X113006142Y-85806309D01*
X113053761Y-85758690D01*
X113101380Y-85663452D01*
X113101380Y-85377738D01*
X113053761Y-85282500D01*
X113006142Y-85234880D01*
X110339142Y-84092023D02*
X110386761Y-84044404D01*
X110434380Y-83901547D01*
X110434380Y-83806309D01*
X110386761Y-83663452D01*
X110291523Y-83568214D01*
X110196285Y-83520595D01*
X110005809Y-83472976D01*
X109862952Y-83472976D01*
X109672476Y-83520595D01*
X109577238Y-83568214D01*
X109482000Y-83663452D01*
X109434380Y-83806309D01*
X109434380Y-83901547D01*
X109482000Y-84044404D01*
X109529619Y-84092023D01*
X110386761Y-84472976D02*
X110434380Y-84615833D01*
X110434380Y-84853928D01*
X110386761Y-84949166D01*
X110339142Y-84996785D01*
X110243904Y-85044404D01*
X110148666Y-85044404D01*
X110053428Y-84996785D01*
X110005809Y-84949166D01*
X109958190Y-84853928D01*
X109910571Y-84663452D01*
X109862952Y-84568214D01*
X109815333Y-84520595D01*
X109720095Y-84472976D01*
X109624857Y-84472976D01*
X109529619Y-84520595D01*
X109482000Y-84568214D01*
X109434380Y-84663452D01*
X109434380Y-84901547D01*
X109482000Y-85044404D01*
X107894380Y-83520595D02*
X106894380Y-83520595D01*
X107608666Y-83853928D01*
X106894380Y-84187261D01*
X107894380Y-84187261D01*
X106894380Y-84853928D02*
X106894380Y-85044404D01*
X106942000Y-85139642D01*
X107037238Y-85234880D01*
X107227714Y-85282500D01*
X107561047Y-85282500D01*
X107751523Y-85234880D01*
X107846761Y-85139642D01*
X107894380Y-85044404D01*
X107894380Y-84853928D01*
X107846761Y-84758690D01*
X107751523Y-84663452D01*
X107561047Y-84615833D01*
X107227714Y-84615833D01*
X107037238Y-84663452D01*
X106942000Y-84758690D01*
X106894380Y-84853928D01*
X107846761Y-85663452D02*
X107894380Y-85806309D01*
X107894380Y-86044404D01*
X107846761Y-86139642D01*
X107799142Y-86187261D01*
X107703904Y-86234880D01*
X107608666Y-86234880D01*
X107513428Y-86187261D01*
X107465809Y-86139642D01*
X107418190Y-86044404D01*
X107370571Y-85853928D01*
X107322952Y-85758690D01*
X107275333Y-85711071D01*
X107180095Y-85663452D01*
X107084857Y-85663452D01*
X106989619Y-85711071D01*
X106942000Y-85758690D01*
X106894380Y-85853928D01*
X106894380Y-86092023D01*
X106942000Y-86234880D01*
X107894380Y-86663452D02*
X106894380Y-86663452D01*
X105306761Y-83472976D02*
X105354380Y-83615833D01*
X105354380Y-83853928D01*
X105306761Y-83949166D01*
X105259142Y-83996785D01*
X105163904Y-84044404D01*
X105068666Y-84044404D01*
X104973428Y-83996785D01*
X104925809Y-83949166D01*
X104878190Y-83853928D01*
X104830571Y-83663452D01*
X104782952Y-83568214D01*
X104735333Y-83520595D01*
X104640095Y-83472976D01*
X104544857Y-83472976D01*
X104449619Y-83520595D01*
X104402000Y-83568214D01*
X104354380Y-83663452D01*
X104354380Y-83901547D01*
X104402000Y-84044404D01*
X105259142Y-85044404D02*
X105306761Y-84996785D01*
X105354380Y-84853928D01*
X105354380Y-84758690D01*
X105306761Y-84615833D01*
X105211523Y-84520595D01*
X105116285Y-84472976D01*
X104925809Y-84425357D01*
X104782952Y-84425357D01*
X104592476Y-84472976D01*
X104497238Y-84520595D01*
X104402000Y-84615833D01*
X104354380Y-84758690D01*
X104354380Y-84853928D01*
X104402000Y-84996785D01*
X104449619Y-85044404D01*
X105354380Y-85472976D02*
X104354380Y-85472976D01*
X105354380Y-86044404D02*
X104782952Y-85615833D01*
X104354380Y-86044404D02*
X104925809Y-85472976D01*
X102814380Y-83520595D02*
X101814380Y-83520595D01*
X102528666Y-83853928D01*
X101814380Y-84187261D01*
X102814380Y-84187261D01*
X102814380Y-84663452D02*
X101814380Y-84663452D01*
X102766761Y-85092023D02*
X102814380Y-85234880D01*
X102814380Y-85472976D01*
X102766761Y-85568214D01*
X102719142Y-85615833D01*
X102623904Y-85663452D01*
X102528666Y-85663452D01*
X102433428Y-85615833D01*
X102385809Y-85568214D01*
X102338190Y-85472976D01*
X102290571Y-85282500D01*
X102242952Y-85187261D01*
X102195333Y-85139642D01*
X102100095Y-85092023D01*
X102004857Y-85092023D01*
X101909619Y-85139642D01*
X101862000Y-85187261D01*
X101814380Y-85282500D01*
X101814380Y-85520595D01*
X101862000Y-85663452D01*
X101814380Y-86282500D02*
X101814380Y-86472976D01*
X101862000Y-86568214D01*
X101957238Y-86663452D01*
X102147714Y-86711071D01*
X102481047Y-86711071D01*
X102671523Y-86663452D01*
X102766761Y-86568214D01*
X102814380Y-86472976D01*
X102814380Y-86282500D01*
X102766761Y-86187261D01*
X102671523Y-86092023D01*
X102481047Y-86044404D01*
X102147714Y-86044404D01*
X101957238Y-86092023D01*
X101862000Y-86187261D01*
X101814380Y-86282500D01*
X128809571Y-112180714D02*
X128571476Y-112847380D01*
X128333380Y-112180714D01*
X127428619Y-112847380D02*
X128000047Y-112847380D01*
X127714333Y-112847380D02*
X127714333Y-111847380D01*
X127809571Y-111990238D01*
X127904809Y-112085476D01*
X128000047Y-112133095D01*
X127000047Y-112752142D02*
X126952428Y-112799761D01*
X127000047Y-112847380D01*
X127047666Y-112799761D01*
X127000047Y-112752142D01*
X127000047Y-112847380D01*
X126333380Y-111847380D02*
X126238142Y-111847380D01*
X126142904Y-111895000D01*
X126095285Y-111942619D01*
X126047666Y-112037857D01*
X126000047Y-112228333D01*
X126000047Y-112466428D01*
X126047666Y-112656904D01*
X126095285Y-112752142D01*
X126142904Y-112799761D01*
X126238142Y-112847380D01*
X126333380Y-112847380D01*
X126428619Y-112799761D01*
X126476238Y-112752142D01*
X126523857Y-112656904D01*
X126571476Y-112466428D01*
X126571476Y-112228333D01*
X126523857Y-112037857D01*
X126476238Y-111942619D01*
X126428619Y-111895000D01*
X126333380Y-111847380D01*
X128823690Y-110942380D02*
X128823690Y-109942380D01*
X128395119Y-110942380D02*
X128395119Y-110418571D01*
X128442738Y-110323333D01*
X128537976Y-110275714D01*
X128680833Y-110275714D01*
X128776071Y-110323333D01*
X128823690Y-110370952D01*
X128061785Y-110275714D02*
X127680833Y-110275714D01*
X127918928Y-109942380D02*
X127918928Y-110799523D01*
X127871309Y-110894761D01*
X127776071Y-110942380D01*
X127680833Y-110942380D01*
X127490357Y-110275714D02*
X127109404Y-110275714D01*
X127347500Y-109942380D02*
X127347500Y-110799523D01*
X127299880Y-110894761D01*
X127204642Y-110942380D01*
X127109404Y-110942380D01*
X126776071Y-110275714D02*
X126776071Y-111275714D01*
X126776071Y-110323333D02*
X126680833Y-110275714D01*
X126490357Y-110275714D01*
X126395119Y-110323333D01*
X126347500Y-110370952D01*
X126299880Y-110466190D01*
X126299880Y-110751904D01*
X126347500Y-110847142D01*
X126395119Y-110894761D01*
X126490357Y-110942380D01*
X126680833Y-110942380D01*
X126776071Y-110894761D01*
X125918928Y-110894761D02*
X125823690Y-110942380D01*
X125633214Y-110942380D01*
X125537976Y-110894761D01*
X125490357Y-110799523D01*
X125490357Y-110751904D01*
X125537976Y-110656666D01*
X125633214Y-110609047D01*
X125776071Y-110609047D01*
X125871309Y-110561428D01*
X125918928Y-110466190D01*
X125918928Y-110418571D01*
X125871309Y-110323333D01*
X125776071Y-110275714D01*
X125633214Y-110275714D01*
X125537976Y-110323333D01*
X125061785Y-110847142D02*
X125014166Y-110894761D01*
X125061785Y-110942380D01*
X125109404Y-110894761D01*
X125061785Y-110847142D01*
X125061785Y-110942380D01*
X125061785Y-110323333D02*
X125014166Y-110370952D01*
X125061785Y-110418571D01*
X125109404Y-110370952D01*
X125061785Y-110323333D01*
X125061785Y-110418571D01*
X123871309Y-109894761D02*
X124728452Y-111180476D01*
X122823690Y-109894761D02*
X123680833Y-111180476D01*
X122061785Y-110275714D02*
X122061785Y-111085238D01*
X122109404Y-111180476D01*
X122157023Y-111228095D01*
X122252261Y-111275714D01*
X122395119Y-111275714D01*
X122490357Y-111228095D01*
X122061785Y-110894761D02*
X122157023Y-110942380D01*
X122347500Y-110942380D01*
X122442738Y-110894761D01*
X122490357Y-110847142D01*
X122537976Y-110751904D01*
X122537976Y-110466190D01*
X122490357Y-110370952D01*
X122442738Y-110323333D01*
X122347500Y-110275714D01*
X122157023Y-110275714D01*
X122061785Y-110323333D01*
X121585595Y-110942380D02*
X121585595Y-110275714D01*
X121585595Y-109942380D02*
X121633214Y-109990000D01*
X121585595Y-110037619D01*
X121537976Y-109990000D01*
X121585595Y-109942380D01*
X121585595Y-110037619D01*
X121252261Y-110275714D02*
X120871309Y-110275714D01*
X121109404Y-109942380D02*
X121109404Y-110799523D01*
X121061785Y-110894761D01*
X120966547Y-110942380D01*
X120871309Y-110942380D01*
X120537976Y-110942380D02*
X120537976Y-109942380D01*
X120109404Y-110942380D02*
X120109404Y-110418571D01*
X120157023Y-110323333D01*
X120252261Y-110275714D01*
X120395119Y-110275714D01*
X120490357Y-110323333D01*
X120537976Y-110370952D01*
X119204642Y-110275714D02*
X119204642Y-110942380D01*
X119633214Y-110275714D02*
X119633214Y-110799523D01*
X119585595Y-110894761D01*
X119490357Y-110942380D01*
X119347500Y-110942380D01*
X119252261Y-110894761D01*
X119204642Y-110847142D01*
X118728452Y-110942380D02*
X118728452Y-109942380D01*
X118728452Y-110323333D02*
X118633214Y-110275714D01*
X118442738Y-110275714D01*
X118347500Y-110323333D01*
X118299880Y-110370952D01*
X118252261Y-110466190D01*
X118252261Y-110751904D01*
X118299880Y-110847142D01*
X118347500Y-110894761D01*
X118442738Y-110942380D01*
X118633214Y-110942380D01*
X118728452Y-110894761D01*
X117823690Y-110847142D02*
X117776071Y-110894761D01*
X117823690Y-110942380D01*
X117871309Y-110894761D01*
X117823690Y-110847142D01*
X117823690Y-110942380D01*
X116918928Y-110894761D02*
X117014166Y-110942380D01*
X117204642Y-110942380D01*
X117299880Y-110894761D01*
X117347500Y-110847142D01*
X117395119Y-110751904D01*
X117395119Y-110466190D01*
X117347500Y-110370952D01*
X117299880Y-110323333D01*
X117204642Y-110275714D01*
X117014166Y-110275714D01*
X116918928Y-110323333D01*
X116347500Y-110942380D02*
X116442738Y-110894761D01*
X116490357Y-110847142D01*
X116537976Y-110751904D01*
X116537976Y-110466190D01*
X116490357Y-110370952D01*
X116442738Y-110323333D01*
X116347500Y-110275714D01*
X116204642Y-110275714D01*
X116109404Y-110323333D01*
X116061785Y-110370952D01*
X116014166Y-110466190D01*
X116014166Y-110751904D01*
X116061785Y-110847142D01*
X116109404Y-110894761D01*
X116204642Y-110942380D01*
X116347500Y-110942380D01*
X115585595Y-110942380D02*
X115585595Y-110275714D01*
X115585595Y-110370952D02*
X115537976Y-110323333D01*
X115442738Y-110275714D01*
X115299880Y-110275714D01*
X115204642Y-110323333D01*
X115157023Y-110418571D01*
X115157023Y-110942380D01*
X115157023Y-110418571D02*
X115109404Y-110323333D01*
X115014166Y-110275714D01*
X114871309Y-110275714D01*
X114776071Y-110323333D01*
X114728452Y-110418571D01*
X114728452Y-110942380D01*
X113537976Y-109894761D02*
X114395119Y-111180476D01*
X113204642Y-110942380D02*
X113204642Y-109942380D01*
X113109404Y-110561428D02*
X112823690Y-110942380D01*
X112823690Y-110275714D02*
X113204642Y-110656666D01*
X112395119Y-110942380D02*
X112395119Y-109942380D01*
X112395119Y-110323333D02*
X112299880Y-110275714D01*
X112109404Y-110275714D01*
X112014166Y-110323333D01*
X111966547Y-110370952D01*
X111918928Y-110466190D01*
X111918928Y-110751904D01*
X111966547Y-110847142D01*
X112014166Y-110894761D01*
X112109404Y-110942380D01*
X112299880Y-110942380D01*
X112395119Y-110894761D01*
X111490357Y-110942380D02*
X111490357Y-109942380D01*
X111061785Y-110942380D02*
X111061785Y-110418571D01*
X111109404Y-110323333D01*
X111204642Y-110275714D01*
X111347500Y-110275714D01*
X111442738Y-110323333D01*
X111490357Y-110370952D01*
X110633214Y-110894761D02*
X110537976Y-110942380D01*
X110347500Y-110942380D01*
X110252261Y-110894761D01*
X110204642Y-110799523D01*
X110204642Y-110751904D01*
X110252261Y-110656666D01*
X110347500Y-110609047D01*
X110490357Y-110609047D01*
X110585595Y-110561428D01*
X110633214Y-110466190D01*
X110633214Y-110418571D01*
X110585595Y-110323333D01*
X110490357Y-110275714D01*
X110347500Y-110275714D01*
X110252261Y-110323333D01*
X109395119Y-110894761D02*
X109490357Y-110942380D01*
X109680833Y-110942380D01*
X109776071Y-110894761D01*
X109823690Y-110799523D01*
X109823690Y-110418571D01*
X109776071Y-110323333D01*
X109680833Y-110275714D01*
X109490357Y-110275714D01*
X109395119Y-110323333D01*
X109347500Y-110418571D01*
X109347500Y-110513809D01*
X109823690Y-110609047D01*
X108204642Y-109894761D02*
X109061785Y-111180476D01*
X107871309Y-110418571D02*
X107537976Y-110418571D01*
X107395119Y-110942380D02*
X107871309Y-110942380D01*
X107871309Y-109942380D01*
X107395119Y-109942380D01*
X106966547Y-110275714D02*
X106966547Y-110942380D01*
X106966547Y-110370952D02*
X106918928Y-110323333D01*
X106823690Y-110275714D01*
X106680833Y-110275714D01*
X106585595Y-110323333D01*
X106537976Y-110418571D01*
X106537976Y-110942380D01*
X105680833Y-110894761D02*
X105776071Y-110942380D01*
X105966547Y-110942380D01*
X106061785Y-110894761D01*
X106109404Y-110799523D01*
X106109404Y-110418571D01*
X106061785Y-110323333D01*
X105966547Y-110275714D01*
X105776071Y-110275714D01*
X105680833Y-110323333D01*
X105633214Y-110418571D01*
X105633214Y-110513809D01*
X106109404Y-110609047D01*
X105204642Y-110942380D02*
X105204642Y-110275714D01*
X105204642Y-110466190D02*
X105157023Y-110370952D01*
X105109404Y-110323333D01*
X105014166Y-110275714D01*
X104918928Y-110275714D01*
X104157023Y-110275714D02*
X104157023Y-111085238D01*
X104204642Y-111180476D01*
X104252261Y-111228095D01*
X104347500Y-111275714D01*
X104490357Y-111275714D01*
X104585595Y-111228095D01*
X104157023Y-110894761D02*
X104252261Y-110942380D01*
X104442738Y-110942380D01*
X104537976Y-110894761D01*
X104585595Y-110847142D01*
X104633214Y-110751904D01*
X104633214Y-110466190D01*
X104585595Y-110370952D01*
X104537976Y-110323333D01*
X104442738Y-110275714D01*
X104252261Y-110275714D01*
X104157023Y-110323333D01*
X103776071Y-110275714D02*
X103537976Y-110942380D01*
X103299880Y-110275714D02*
X103537976Y-110942380D01*
X103633214Y-111180476D01*
X103680833Y-111228095D01*
X103776071Y-111275714D01*
X102918928Y-110942380D02*
X102918928Y-109942380D01*
X102585595Y-110656666D01*
X102252261Y-109942380D01*
X102252261Y-110942380D01*
X101633214Y-110942380D02*
X101728452Y-110894761D01*
X101776071Y-110847142D01*
X101823690Y-110751904D01*
X101823690Y-110466190D01*
X101776071Y-110370952D01*
X101728452Y-110323333D01*
X101633214Y-110275714D01*
X101490357Y-110275714D01*
X101395119Y-110323333D01*
X101347500Y-110370952D01*
X101299880Y-110466190D01*
X101299880Y-110751904D01*
X101347500Y-110847142D01*
X101395119Y-110894761D01*
X101490357Y-110942380D01*
X101633214Y-110942380D01*
X100871309Y-110275714D02*
X100871309Y-110942380D01*
X100871309Y-110370952D02*
X100823690Y-110323333D01*
X100728452Y-110275714D01*
X100585595Y-110275714D01*
X100490357Y-110323333D01*
X100442738Y-110418571D01*
X100442738Y-110942380D01*
X99966547Y-110942380D02*
X99966547Y-110275714D01*
X99966547Y-109942380D02*
X100014166Y-109990000D01*
X99966547Y-110037619D01*
X99918928Y-109990000D01*
X99966547Y-109942380D01*
X99966547Y-110037619D01*
X99633214Y-110275714D02*
X99252261Y-110275714D01*
X99490357Y-109942380D02*
X99490357Y-110799523D01*
X99442738Y-110894761D01*
X99347500Y-110942380D01*
X99252261Y-110942380D01*
X98776071Y-110942380D02*
X98871309Y-110894761D01*
X98918928Y-110847142D01*
X98966547Y-110751904D01*
X98966547Y-110466190D01*
X98918928Y-110370952D01*
X98871309Y-110323333D01*
X98776071Y-110275714D01*
X98633214Y-110275714D01*
X98537976Y-110323333D01*
X98490357Y-110370952D01*
X98442738Y-110466190D01*
X98442738Y-110751904D01*
X98490357Y-110847142D01*
X98537976Y-110894761D01*
X98633214Y-110942380D01*
X98776071Y-110942380D01*
X98014166Y-110942380D02*
X98014166Y-110275714D01*
X98014166Y-110466190D02*
X97966547Y-110370952D01*
X97918928Y-110323333D01*
X97823690Y-110275714D01*
X97728452Y-110275714D01*
D11*
%TO.C,R34*%
X93435436Y-118962500D02*
X93889564Y-118962500D01*
X93435436Y-120432500D02*
X93889564Y-120432500D01*
%TO.C,R33*%
X133577064Y-120432500D02*
X133122936Y-120432500D01*
X133577064Y-118962500D02*
X133122936Y-118962500D01*
%TO.C,R32*%
X93435436Y-101817500D02*
X93889564Y-101817500D01*
X93435436Y-103287500D02*
X93889564Y-103287500D01*
%TO.C,R31*%
X104557500Y-97562936D02*
X104557500Y-98017064D01*
X103087500Y-97562936D02*
X103087500Y-98017064D01*
%TO.C,R30*%
X117575000Y-97562936D02*
X117575000Y-98017064D01*
X116105000Y-97562936D02*
X116105000Y-98017064D01*
%TO.C,R15*%
X133450000Y-97562936D02*
X133450000Y-98017064D01*
X131980000Y-97562936D02*
X131980000Y-98017064D01*
%TD*%
M02*
