%TF.GenerationSoftware,KiCad,Pcbnew,(5.1.10)-1*%
%TF.CreationDate,2021-09-24T06:20:55+01:00*%
%TF.ProjectId,EnergyMonitor,456e6572-6779-44d6-9f6e-69746f722e6b,v1.0*%
%TF.SameCoordinates,Original*%
%TF.FileFunction,Soldermask,Top*%
%TF.FilePolarity,Negative*%
%FSLAX46Y46*%
G04 Gerber Fmt 4.6, Leading zero omitted, Abs format (unit mm)*
G04 Created by KiCad (PCBNEW (5.1.10)-1) date 2021-09-24 06:20:55*
%MOMM*%
%LPD*%
G01*
G04 APERTURE LIST*
%ADD10C,2.000000*%
%ADD11O,1.700000X1.700000*%
%ADD12R,1.700000X1.700000*%
%ADD13C,4.400000*%
%ADD14C,0.700000*%
%ADD15O,1.524000X2.200000*%
%ADD16O,2.200000X1.524000*%
%ADD17O,1.524000X3.600000*%
%ADD18O,3.600000X1.524000*%
%ADD19O,1.600000X1.600000*%
%ADD20R,1.600000X1.600000*%
%ADD21O,1.200000X1.700000*%
%ADD22C,2.200000*%
%ADD23C,1.524000*%
%ADD24R,0.700000X0.600000*%
%ADD25C,0.100000*%
%ADD26R,0.900000X1.300000*%
G04 APERTURE END LIST*
%TO.C,J14*%
G36*
G01*
X60747500Y-121330000D02*
X60747500Y-120080000D01*
G75*
G02*
X60897500Y-119930000I150000J0D01*
G01*
X61197500Y-119930000D01*
G75*
G02*
X61347500Y-120080000I0J-150000D01*
G01*
X61347500Y-121330000D01*
G75*
G02*
X61197500Y-121480000I-150000J0D01*
G01*
X60897500Y-121480000D01*
G75*
G02*
X60747500Y-121330000I0J150000D01*
G01*
G37*
G36*
G01*
X61747500Y-121330000D02*
X61747500Y-120080000D01*
G75*
G02*
X61897500Y-119930000I150000J0D01*
G01*
X62197500Y-119930000D01*
G75*
G02*
X62347500Y-120080000I0J-150000D01*
G01*
X62347500Y-121330000D01*
G75*
G02*
X62197500Y-121480000I-150000J0D01*
G01*
X61897500Y-121480000D01*
G75*
G02*
X61747500Y-121330000I0J150000D01*
G01*
G37*
G36*
G01*
X62747500Y-121330000D02*
X62747500Y-120080000D01*
G75*
G02*
X62897500Y-119930000I150000J0D01*
G01*
X63197500Y-119930000D01*
G75*
G02*
X63347500Y-120080000I0J-150000D01*
G01*
X63347500Y-121330000D01*
G75*
G02*
X63197500Y-121480000I-150000J0D01*
G01*
X62897500Y-121480000D01*
G75*
G02*
X62747500Y-121330000I0J150000D01*
G01*
G37*
G36*
G01*
X63747500Y-121330000D02*
X63747500Y-120080000D01*
G75*
G02*
X63897500Y-119930000I150000J0D01*
G01*
X64197500Y-119930000D01*
G75*
G02*
X64347500Y-120080000I0J-150000D01*
G01*
X64347500Y-121330000D01*
G75*
G02*
X64197500Y-121480000I-150000J0D01*
G01*
X63897500Y-121480000D01*
G75*
G02*
X63747500Y-121330000I0J150000D01*
G01*
G37*
G36*
G01*
X59147500Y-118830001D02*
X59147500Y-117529999D01*
G75*
G02*
X59397499Y-117280000I249999J0D01*
G01*
X60097501Y-117280000D01*
G75*
G02*
X60347500Y-117529999I0J-249999D01*
G01*
X60347500Y-118830001D01*
G75*
G02*
X60097501Y-119080000I-249999J0D01*
G01*
X59397499Y-119080000D01*
G75*
G02*
X59147500Y-118830001I0J249999D01*
G01*
G37*
G36*
G01*
X64747500Y-118830001D02*
X64747500Y-117529999D01*
G75*
G02*
X64997499Y-117280000I249999J0D01*
G01*
X65697501Y-117280000D01*
G75*
G02*
X65947500Y-117529999I0J-249999D01*
G01*
X65947500Y-118830001D01*
G75*
G02*
X65697501Y-119080000I-249999J0D01*
G01*
X64997499Y-119080000D01*
G75*
G02*
X64747500Y-118830001I0J249999D01*
G01*
G37*
%TD*%
%TO.C,R14*%
G36*
G01*
X109137500Y-80512499D02*
X109137500Y-81412501D01*
G75*
G02*
X108887501Y-81662500I-249999J0D01*
G01*
X108362499Y-81662500D01*
G75*
G02*
X108112500Y-81412501I0J249999D01*
G01*
X108112500Y-80512499D01*
G75*
G02*
X108362499Y-80262500I249999J0D01*
G01*
X108887501Y-80262500D01*
G75*
G02*
X109137500Y-80512499I0J-249999D01*
G01*
G37*
G36*
G01*
X110962500Y-80512499D02*
X110962500Y-81412501D01*
G75*
G02*
X110712501Y-81662500I-249999J0D01*
G01*
X110187499Y-81662500D01*
G75*
G02*
X109937500Y-81412501I0J249999D01*
G01*
X109937500Y-80512499D01*
G75*
G02*
X110187499Y-80262500I249999J0D01*
G01*
X110712501Y-80262500D01*
G75*
G02*
X110962500Y-80512499I0J-249999D01*
G01*
G37*
%TD*%
%TO.C,D6*%
G36*
G01*
X106495000Y-81418750D02*
X106495000Y-80506250D01*
G75*
G02*
X106738750Y-80262500I243750J0D01*
G01*
X107226250Y-80262500D01*
G75*
G02*
X107470000Y-80506250I0J-243750D01*
G01*
X107470000Y-81418750D01*
G75*
G02*
X107226250Y-81662500I-243750J0D01*
G01*
X106738750Y-81662500D01*
G75*
G02*
X106495000Y-81418750I0J243750D01*
G01*
G37*
G36*
G01*
X104620000Y-81418750D02*
X104620000Y-80506250D01*
G75*
G02*
X104863750Y-80262500I243750J0D01*
G01*
X105351250Y-80262500D01*
G75*
G02*
X105595000Y-80506250I0J-243750D01*
G01*
X105595000Y-81418750D01*
G75*
G02*
X105351250Y-81662500I-243750J0D01*
G01*
X104863750Y-81662500D01*
G75*
G02*
X104620000Y-81418750I0J243750D01*
G01*
G37*
%TD*%
D10*
%TO.C,TP5*%
X91440000Y-105092500D03*
%TD*%
%TO.C,TP4*%
X91440000Y-84772500D03*
%TD*%
%TO.C,TP3*%
X91440000Y-89852500D03*
%TD*%
%TO.C,TP2*%
X91440000Y-94932500D03*
%TD*%
%TO.C,TP1*%
X91440000Y-100012500D03*
%TD*%
D11*
%TO.C,J11*%
X140970000Y-89535000D03*
D12*
X140970000Y-92075000D03*
%TD*%
D13*
%TO.C,H4*%
X146685000Y-121920000D03*
D14*
X148335000Y-121920000D03*
X147851726Y-123086726D03*
X146685000Y-123570000D03*
X145518274Y-123086726D03*
X145035000Y-121920000D03*
X145518274Y-120753274D03*
X146685000Y-120270000D03*
X147851726Y-120753274D03*
%TD*%
D13*
%TO.C,H3*%
X53340000Y-121920000D03*
D14*
X54990000Y-121920000D03*
X54506726Y-123086726D03*
X53340000Y-123570000D03*
X52173274Y-123086726D03*
X51690000Y-121920000D03*
X52173274Y-120753274D03*
X53340000Y-120270000D03*
X54506726Y-120753274D03*
%TD*%
D13*
%TO.C,H2*%
X53340000Y-78740000D03*
D14*
X54990000Y-78740000D03*
X54506726Y-79906726D03*
X53340000Y-80390000D03*
X52173274Y-79906726D03*
X51690000Y-78740000D03*
X52173274Y-77573274D03*
X53340000Y-77090000D03*
X54506726Y-77573274D03*
%TD*%
D13*
%TO.C,H1*%
X146685000Y-78740000D03*
D14*
X148335000Y-78740000D03*
X147851726Y-79906726D03*
X146685000Y-80390000D03*
X145518274Y-79906726D03*
X145035000Y-78740000D03*
X145518274Y-77573274D03*
X146685000Y-77090000D03*
X147851726Y-77573274D03*
%TD*%
D15*
%TO.C,J10*%
X128143000Y-116522500D03*
D16*
X125730000Y-121412000D03*
D15*
X130683000Y-116522500D03*
X123317000Y-116522500D03*
X120777000Y-116522500D03*
%TD*%
%TO.C,J8*%
X115443000Y-116522500D03*
D16*
X113030000Y-121412000D03*
D15*
X117983000Y-116522500D03*
X110617000Y-116522500D03*
X108077000Y-116522500D03*
%TD*%
%TO.C,J9*%
X102743000Y-116522500D03*
D16*
X100330000Y-121412000D03*
D15*
X105283000Y-116522500D03*
X97917000Y-116522500D03*
X95377000Y-116522500D03*
%TD*%
D17*
%TO.C,J13*%
X143510000Y-116840000D03*
D18*
X139065000Y-120332500D03*
X139065000Y-113982500D03*
%TD*%
D19*
%TO.C,D1*%
X137477500Y-92710000D03*
D20*
X137477500Y-85090000D03*
%TD*%
%TO.C,R13*%
G36*
G01*
X127687500Y-99069999D02*
X127687500Y-100320001D01*
G75*
G02*
X127437501Y-100570000I-249999J0D01*
G01*
X126812499Y-100570000D01*
G75*
G02*
X126562500Y-100320001I0J249999D01*
G01*
X126562500Y-99069999D01*
G75*
G02*
X126812499Y-98820000I249999J0D01*
G01*
X127437501Y-98820000D01*
G75*
G02*
X127687500Y-99069999I0J-249999D01*
G01*
G37*
G36*
G01*
X130612500Y-99069999D02*
X130612500Y-100320001D01*
G75*
G02*
X130362501Y-100570000I-249999J0D01*
G01*
X129737499Y-100570000D01*
G75*
G02*
X129487500Y-100320001I0J249999D01*
G01*
X129487500Y-99069999D01*
G75*
G02*
X129737499Y-98820000I249999J0D01*
G01*
X130362501Y-98820000D01*
G75*
G02*
X130612500Y-99069999I0J-249999D01*
G01*
G37*
%TD*%
%TO.C,R12*%
G36*
G01*
X127687500Y-101609999D02*
X127687500Y-102860001D01*
G75*
G02*
X127437501Y-103110000I-249999J0D01*
G01*
X126812499Y-103110000D01*
G75*
G02*
X126562500Y-102860001I0J249999D01*
G01*
X126562500Y-101609999D01*
G75*
G02*
X126812499Y-101360000I249999J0D01*
G01*
X127437501Y-101360000D01*
G75*
G02*
X127687500Y-101609999I0J-249999D01*
G01*
G37*
G36*
G01*
X130612500Y-101609999D02*
X130612500Y-102860001D01*
G75*
G02*
X130362501Y-103110000I-249999J0D01*
G01*
X129737499Y-103110000D01*
G75*
G02*
X129487500Y-102860001I0J249999D01*
G01*
X129487500Y-101609999D01*
G75*
G02*
X129737499Y-101360000I249999J0D01*
G01*
X130362501Y-101360000D01*
G75*
G02*
X130612500Y-101609999I0J-249999D01*
G01*
G37*
%TD*%
%TO.C,R11*%
G36*
G01*
X127687500Y-104149999D02*
X127687500Y-105400001D01*
G75*
G02*
X127437501Y-105650000I-249999J0D01*
G01*
X126812499Y-105650000D01*
G75*
G02*
X126562500Y-105400001I0J249999D01*
G01*
X126562500Y-104149999D01*
G75*
G02*
X126812499Y-103900000I249999J0D01*
G01*
X127437501Y-103900000D01*
G75*
G02*
X127687500Y-104149999I0J-249999D01*
G01*
G37*
G36*
G01*
X130612500Y-104149999D02*
X130612500Y-105400001D01*
G75*
G02*
X130362501Y-105650000I-249999J0D01*
G01*
X129737499Y-105650000D01*
G75*
G02*
X129487500Y-105400001I0J249999D01*
G01*
X129487500Y-104149999D01*
G75*
G02*
X129737499Y-103900000I249999J0D01*
G01*
X130362501Y-103900000D01*
G75*
G02*
X130612500Y-104149999I0J-249999D01*
G01*
G37*
%TD*%
%TO.C,R10*%
G36*
G01*
X127687500Y-106689999D02*
X127687500Y-107940001D01*
G75*
G02*
X127437501Y-108190000I-249999J0D01*
G01*
X126812499Y-108190000D01*
G75*
G02*
X126562500Y-107940001I0J249999D01*
G01*
X126562500Y-106689999D01*
G75*
G02*
X126812499Y-106440000I249999J0D01*
G01*
X127437501Y-106440000D01*
G75*
G02*
X127687500Y-106689999I0J-249999D01*
G01*
G37*
G36*
G01*
X130612500Y-106689999D02*
X130612500Y-107940001D01*
G75*
G02*
X130362501Y-108190000I-249999J0D01*
G01*
X129737499Y-108190000D01*
G75*
G02*
X129487500Y-107940001I0J249999D01*
G01*
X129487500Y-106689999D01*
G75*
G02*
X129737499Y-106440000I249999J0D01*
G01*
X130362501Y-106440000D01*
G75*
G02*
X130612500Y-106689999I0J-249999D01*
G01*
G37*
%TD*%
%TO.C,R9*%
G36*
G01*
X114987500Y-99069999D02*
X114987500Y-100320001D01*
G75*
G02*
X114737501Y-100570000I-249999J0D01*
G01*
X114112499Y-100570000D01*
G75*
G02*
X113862500Y-100320001I0J249999D01*
G01*
X113862500Y-99069999D01*
G75*
G02*
X114112499Y-98820000I249999J0D01*
G01*
X114737501Y-98820000D01*
G75*
G02*
X114987500Y-99069999I0J-249999D01*
G01*
G37*
G36*
G01*
X117912500Y-99069999D02*
X117912500Y-100320001D01*
G75*
G02*
X117662501Y-100570000I-249999J0D01*
G01*
X117037499Y-100570000D01*
G75*
G02*
X116787500Y-100320001I0J249999D01*
G01*
X116787500Y-99069999D01*
G75*
G02*
X117037499Y-98820000I249999J0D01*
G01*
X117662501Y-98820000D01*
G75*
G02*
X117912500Y-99069999I0J-249999D01*
G01*
G37*
%TD*%
%TO.C,R8*%
G36*
G01*
X114987500Y-101609999D02*
X114987500Y-102860001D01*
G75*
G02*
X114737501Y-103110000I-249999J0D01*
G01*
X114112499Y-103110000D01*
G75*
G02*
X113862500Y-102860001I0J249999D01*
G01*
X113862500Y-101609999D01*
G75*
G02*
X114112499Y-101360000I249999J0D01*
G01*
X114737501Y-101360000D01*
G75*
G02*
X114987500Y-101609999I0J-249999D01*
G01*
G37*
G36*
G01*
X117912500Y-101609999D02*
X117912500Y-102860001D01*
G75*
G02*
X117662501Y-103110000I-249999J0D01*
G01*
X117037499Y-103110000D01*
G75*
G02*
X116787500Y-102860001I0J249999D01*
G01*
X116787500Y-101609999D01*
G75*
G02*
X117037499Y-101360000I249999J0D01*
G01*
X117662501Y-101360000D01*
G75*
G02*
X117912500Y-101609999I0J-249999D01*
G01*
G37*
%TD*%
%TO.C,R7*%
G36*
G01*
X114987500Y-104149999D02*
X114987500Y-105400001D01*
G75*
G02*
X114737501Y-105650000I-249999J0D01*
G01*
X114112499Y-105650000D01*
G75*
G02*
X113862500Y-105400001I0J249999D01*
G01*
X113862500Y-104149999D01*
G75*
G02*
X114112499Y-103900000I249999J0D01*
G01*
X114737501Y-103900000D01*
G75*
G02*
X114987500Y-104149999I0J-249999D01*
G01*
G37*
G36*
G01*
X117912500Y-104149999D02*
X117912500Y-105400001D01*
G75*
G02*
X117662501Y-105650000I-249999J0D01*
G01*
X117037499Y-105650000D01*
G75*
G02*
X116787500Y-105400001I0J249999D01*
G01*
X116787500Y-104149999D01*
G75*
G02*
X117037499Y-103900000I249999J0D01*
G01*
X117662501Y-103900000D01*
G75*
G02*
X117912500Y-104149999I0J-249999D01*
G01*
G37*
%TD*%
%TO.C,R6*%
G36*
G01*
X114987500Y-106689999D02*
X114987500Y-107940001D01*
G75*
G02*
X114737501Y-108190000I-249999J0D01*
G01*
X114112499Y-108190000D01*
G75*
G02*
X113862500Y-107940001I0J249999D01*
G01*
X113862500Y-106689999D01*
G75*
G02*
X114112499Y-106440000I249999J0D01*
G01*
X114737501Y-106440000D01*
G75*
G02*
X114987500Y-106689999I0J-249999D01*
G01*
G37*
G36*
G01*
X117912500Y-106689999D02*
X117912500Y-107940001D01*
G75*
G02*
X117662501Y-108190000I-249999J0D01*
G01*
X117037499Y-108190000D01*
G75*
G02*
X116787500Y-107940001I0J249999D01*
G01*
X116787500Y-106689999D01*
G75*
G02*
X117037499Y-106440000I249999J0D01*
G01*
X117662501Y-106440000D01*
G75*
G02*
X117912500Y-106689999I0J-249999D01*
G01*
G37*
%TD*%
D11*
%TO.C,J6*%
X124460000Y-107315000D03*
X124460000Y-104775000D03*
X124460000Y-102235000D03*
D12*
X124460000Y-99695000D03*
%TD*%
D11*
%TO.C,J5*%
X111760000Y-107315000D03*
X111760000Y-104775000D03*
X111760000Y-102235000D03*
D12*
X111760000Y-99695000D03*
%TD*%
D11*
%TO.C,J3*%
X121920000Y-107315000D03*
X121920000Y-104775000D03*
X121920000Y-102235000D03*
D12*
X121920000Y-99695000D03*
%TD*%
D11*
%TO.C,J2*%
X109220000Y-107315000D03*
X109220000Y-104775000D03*
X109220000Y-102235000D03*
D12*
X109220000Y-99695000D03*
%TD*%
%TO.C,R5*%
G36*
G01*
X102287500Y-99069999D02*
X102287500Y-100320001D01*
G75*
G02*
X102037501Y-100570000I-249999J0D01*
G01*
X101412499Y-100570000D01*
G75*
G02*
X101162500Y-100320001I0J249999D01*
G01*
X101162500Y-99069999D01*
G75*
G02*
X101412499Y-98820000I249999J0D01*
G01*
X102037501Y-98820000D01*
G75*
G02*
X102287500Y-99069999I0J-249999D01*
G01*
G37*
G36*
G01*
X105212500Y-99069999D02*
X105212500Y-100320001D01*
G75*
G02*
X104962501Y-100570000I-249999J0D01*
G01*
X104337499Y-100570000D01*
G75*
G02*
X104087500Y-100320001I0J249999D01*
G01*
X104087500Y-99069999D01*
G75*
G02*
X104337499Y-98820000I249999J0D01*
G01*
X104962501Y-98820000D01*
G75*
G02*
X105212500Y-99069999I0J-249999D01*
G01*
G37*
%TD*%
%TO.C,R4*%
G36*
G01*
X102287500Y-101609999D02*
X102287500Y-102860001D01*
G75*
G02*
X102037501Y-103110000I-249999J0D01*
G01*
X101412499Y-103110000D01*
G75*
G02*
X101162500Y-102860001I0J249999D01*
G01*
X101162500Y-101609999D01*
G75*
G02*
X101412499Y-101360000I249999J0D01*
G01*
X102037501Y-101360000D01*
G75*
G02*
X102287500Y-101609999I0J-249999D01*
G01*
G37*
G36*
G01*
X105212500Y-101609999D02*
X105212500Y-102860001D01*
G75*
G02*
X104962501Y-103110000I-249999J0D01*
G01*
X104337499Y-103110000D01*
G75*
G02*
X104087500Y-102860001I0J249999D01*
G01*
X104087500Y-101609999D01*
G75*
G02*
X104337499Y-101360000I249999J0D01*
G01*
X104962501Y-101360000D01*
G75*
G02*
X105212500Y-101609999I0J-249999D01*
G01*
G37*
%TD*%
%TO.C,R3*%
G36*
G01*
X102287500Y-104149999D02*
X102287500Y-105400001D01*
G75*
G02*
X102037501Y-105650000I-249999J0D01*
G01*
X101412499Y-105650000D01*
G75*
G02*
X101162500Y-105400001I0J249999D01*
G01*
X101162500Y-104149999D01*
G75*
G02*
X101412499Y-103900000I249999J0D01*
G01*
X102037501Y-103900000D01*
G75*
G02*
X102287500Y-104149999I0J-249999D01*
G01*
G37*
G36*
G01*
X105212500Y-104149999D02*
X105212500Y-105400001D01*
G75*
G02*
X104962501Y-105650000I-249999J0D01*
G01*
X104337499Y-105650000D01*
G75*
G02*
X104087500Y-105400001I0J249999D01*
G01*
X104087500Y-104149999D01*
G75*
G02*
X104337499Y-103900000I249999J0D01*
G01*
X104962501Y-103900000D01*
G75*
G02*
X105212500Y-104149999I0J-249999D01*
G01*
G37*
%TD*%
%TO.C,R2*%
G36*
G01*
X102287500Y-106689999D02*
X102287500Y-107940001D01*
G75*
G02*
X102037501Y-108190000I-249999J0D01*
G01*
X101412499Y-108190000D01*
G75*
G02*
X101162500Y-107940001I0J249999D01*
G01*
X101162500Y-106689999D01*
G75*
G02*
X101412499Y-106440000I249999J0D01*
G01*
X102037501Y-106440000D01*
G75*
G02*
X102287500Y-106689999I0J-249999D01*
G01*
G37*
G36*
G01*
X105212500Y-106689999D02*
X105212500Y-107940001D01*
G75*
G02*
X104962501Y-108190000I-249999J0D01*
G01*
X104337499Y-108190000D01*
G75*
G02*
X104087500Y-107940001I0J249999D01*
G01*
X104087500Y-106689999D01*
G75*
G02*
X104337499Y-106440000I249999J0D01*
G01*
X104962501Y-106440000D01*
G75*
G02*
X105212500Y-106689999I0J-249999D01*
G01*
G37*
%TD*%
D11*
%TO.C,J4*%
X99060000Y-107315000D03*
X99060000Y-104775000D03*
X99060000Y-102235000D03*
D12*
X99060000Y-99695000D03*
%TD*%
D11*
%TO.C,J1*%
X96520000Y-107315000D03*
X96520000Y-104775000D03*
X96520000Y-102235000D03*
D12*
X96520000Y-99695000D03*
%TD*%
%TO.C,R1*%
G36*
G01*
X133615000Y-85715001D02*
X133615000Y-84464999D01*
G75*
G02*
X133864999Y-84215000I249999J0D01*
G01*
X134490001Y-84215000D01*
G75*
G02*
X134740000Y-84464999I0J-249999D01*
G01*
X134740000Y-85715001D01*
G75*
G02*
X134490001Y-85965000I-249999J0D01*
G01*
X133864999Y-85965000D01*
G75*
G02*
X133615000Y-85715001I0J249999D01*
G01*
G37*
G36*
G01*
X130690000Y-85715001D02*
X130690000Y-84464999D01*
G75*
G02*
X130939999Y-84215000I249999J0D01*
G01*
X131565001Y-84215000D01*
G75*
G02*
X131815000Y-84464999I0J-249999D01*
G01*
X131815000Y-85715001D01*
G75*
G02*
X131565001Y-85965000I-249999J0D01*
G01*
X130939999Y-85965000D01*
G75*
G02*
X130690000Y-85715001I0J249999D01*
G01*
G37*
%TD*%
D21*
%TO.C,J16*%
X74382500Y-116785000D03*
X75382500Y-119285000D03*
X76382500Y-116785000D03*
X77382500Y-119285000D03*
D22*
X69782500Y-121785000D03*
X81982500Y-121785000D03*
%TD*%
%TO.C,R18*%
G36*
G01*
X122320000Y-110940001D02*
X122320000Y-110039999D01*
G75*
G02*
X122569999Y-109790000I249999J0D01*
G01*
X123095001Y-109790000D01*
G75*
G02*
X123345000Y-110039999I0J-249999D01*
G01*
X123345000Y-110940001D01*
G75*
G02*
X123095001Y-111190000I-249999J0D01*
G01*
X122569999Y-111190000D01*
G75*
G02*
X122320000Y-110940001I0J249999D01*
G01*
G37*
G36*
G01*
X120495000Y-110940001D02*
X120495000Y-110039999D01*
G75*
G02*
X120744999Y-109790000I249999J0D01*
G01*
X121270001Y-109790000D01*
G75*
G02*
X121520000Y-110039999I0J-249999D01*
G01*
X121520000Y-110940001D01*
G75*
G02*
X121270001Y-111190000I-249999J0D01*
G01*
X120744999Y-111190000D01*
G75*
G02*
X120495000Y-110940001I0J249999D01*
G01*
G37*
%TD*%
D23*
%TO.C,U1*%
X57467500Y-108902500D03*
X60007500Y-108902500D03*
X62547500Y-108902500D03*
X65087500Y-108902500D03*
X67627500Y-108902500D03*
X70167500Y-108902500D03*
X72707500Y-108902500D03*
X75247500Y-108902500D03*
X77787500Y-108902500D03*
X80327500Y-108902500D03*
X57467500Y-106362500D03*
X60007500Y-106362500D03*
X62547500Y-106362500D03*
X65087500Y-106362500D03*
X67627500Y-106362500D03*
X70167500Y-106362500D03*
X72707500Y-106362500D03*
X75247500Y-106362500D03*
X77787500Y-106362500D03*
X80327500Y-106362500D03*
X57467500Y-80962500D03*
X60007500Y-80962500D03*
X62547500Y-80962500D03*
X65087500Y-80962500D03*
X67627500Y-80962500D03*
X70167500Y-80962500D03*
X72707500Y-80962500D03*
X75247500Y-80962500D03*
X77787500Y-80962500D03*
X80327500Y-80962500D03*
X57467500Y-83502500D03*
X60007500Y-83502500D03*
X62547500Y-83502500D03*
X65087500Y-83502500D03*
X67627500Y-83502500D03*
X70167500Y-83502500D03*
X72707500Y-83502500D03*
X75247500Y-83502500D03*
X77787500Y-83502500D03*
X80327500Y-83502500D03*
%TD*%
D24*
%TO.C,D5*%
X86042500Y-84072500D03*
X86042500Y-85472500D03*
%TD*%
D25*
%TO.C,U2*%
G36*
X125816000Y-94057500D02*
G01*
X125816000Y-90932500D01*
X126232500Y-90932500D01*
X126232500Y-89457500D01*
X127132500Y-89457500D01*
X127132500Y-90932500D01*
X127549000Y-90932500D01*
X127549000Y-94057500D01*
X125816000Y-94057500D01*
G37*
D26*
X125182500Y-90107500D03*
X128182500Y-90107500D03*
%TD*%
%TO.C,R29*%
G36*
G01*
X138932499Y-108667500D02*
X139832501Y-108667500D01*
G75*
G02*
X140082500Y-108917499I0J-249999D01*
G01*
X140082500Y-109442501D01*
G75*
G02*
X139832501Y-109692500I-249999J0D01*
G01*
X138932499Y-109692500D01*
G75*
G02*
X138682500Y-109442501I0J249999D01*
G01*
X138682500Y-108917499D01*
G75*
G02*
X138932499Y-108667500I249999J0D01*
G01*
G37*
G36*
G01*
X138932499Y-106842500D02*
X139832501Y-106842500D01*
G75*
G02*
X140082500Y-107092499I0J-249999D01*
G01*
X140082500Y-107617501D01*
G75*
G02*
X139832501Y-107867500I-249999J0D01*
G01*
X138932499Y-107867500D01*
G75*
G02*
X138682500Y-107617501I0J249999D01*
G01*
X138682500Y-107092499D01*
G75*
G02*
X138932499Y-106842500I249999J0D01*
G01*
G37*
%TD*%
%TO.C,R28*%
G36*
G01*
X140837499Y-106842500D02*
X141737501Y-106842500D01*
G75*
G02*
X141987500Y-107092499I0J-249999D01*
G01*
X141987500Y-107617501D01*
G75*
G02*
X141737501Y-107867500I-249999J0D01*
G01*
X140837499Y-107867500D01*
G75*
G02*
X140587500Y-107617501I0J249999D01*
G01*
X140587500Y-107092499D01*
G75*
G02*
X140837499Y-106842500I249999J0D01*
G01*
G37*
G36*
G01*
X140837499Y-108667500D02*
X141737501Y-108667500D01*
G75*
G02*
X141987500Y-108917499I0J-249999D01*
G01*
X141987500Y-109442501D01*
G75*
G02*
X141737501Y-109692500I-249999J0D01*
G01*
X140837499Y-109692500D01*
G75*
G02*
X140587500Y-109442501I0J249999D01*
G01*
X140587500Y-108917499D01*
G75*
G02*
X140837499Y-108667500I249999J0D01*
G01*
G37*
%TD*%
%TO.C,R27*%
G36*
G01*
X136607500Y-105542501D02*
X136607500Y-104642499D01*
G75*
G02*
X136857499Y-104392500I249999J0D01*
G01*
X137382501Y-104392500D01*
G75*
G02*
X137632500Y-104642499I0J-249999D01*
G01*
X137632500Y-105542501D01*
G75*
G02*
X137382501Y-105792500I-249999J0D01*
G01*
X136857499Y-105792500D01*
G75*
G02*
X136607500Y-105542501I0J249999D01*
G01*
G37*
G36*
G01*
X134782500Y-105542501D02*
X134782500Y-104642499D01*
G75*
G02*
X135032499Y-104392500I249999J0D01*
G01*
X135557501Y-104392500D01*
G75*
G02*
X135807500Y-104642499I0J-249999D01*
G01*
X135807500Y-105542501D01*
G75*
G02*
X135557501Y-105792500I-249999J0D01*
G01*
X135032499Y-105792500D01*
G75*
G02*
X134782500Y-105542501I0J249999D01*
G01*
G37*
%TD*%
%TO.C,R26*%
G36*
G01*
X136607500Y-103637501D02*
X136607500Y-102737499D01*
G75*
G02*
X136857499Y-102487500I249999J0D01*
G01*
X137382501Y-102487500D01*
G75*
G02*
X137632500Y-102737499I0J-249999D01*
G01*
X137632500Y-103637501D01*
G75*
G02*
X137382501Y-103887500I-249999J0D01*
G01*
X136857499Y-103887500D01*
G75*
G02*
X136607500Y-103637501I0J249999D01*
G01*
G37*
G36*
G01*
X134782500Y-103637501D02*
X134782500Y-102737499D01*
G75*
G02*
X135032499Y-102487500I249999J0D01*
G01*
X135557501Y-102487500D01*
G75*
G02*
X135807500Y-102737499I0J-249999D01*
G01*
X135807500Y-103637501D01*
G75*
G02*
X135557501Y-103887500I-249999J0D01*
G01*
X135032499Y-103887500D01*
G75*
G02*
X134782500Y-103637501I0J249999D01*
G01*
G37*
%TD*%
%TO.C,R25*%
G36*
G01*
X135807500Y-106547499D02*
X135807500Y-107447501D01*
G75*
G02*
X135557501Y-107697500I-249999J0D01*
G01*
X135032499Y-107697500D01*
G75*
G02*
X134782500Y-107447501I0J249999D01*
G01*
X134782500Y-106547499D01*
G75*
G02*
X135032499Y-106297500I249999J0D01*
G01*
X135557501Y-106297500D01*
G75*
G02*
X135807500Y-106547499I0J-249999D01*
G01*
G37*
G36*
G01*
X137632500Y-106547499D02*
X137632500Y-107447501D01*
G75*
G02*
X137382501Y-107697500I-249999J0D01*
G01*
X136857499Y-107697500D01*
G75*
G02*
X136607500Y-107447501I0J249999D01*
G01*
X136607500Y-106547499D01*
G75*
G02*
X136857499Y-106297500I249999J0D01*
G01*
X137382501Y-106297500D01*
G75*
G02*
X137632500Y-106547499I0J-249999D01*
G01*
G37*
%TD*%
%TO.C,R24*%
G36*
G01*
X126549999Y-110017500D02*
X127450001Y-110017500D01*
G75*
G02*
X127700000Y-110267499I0J-249999D01*
G01*
X127700000Y-110792501D01*
G75*
G02*
X127450001Y-111042500I-249999J0D01*
G01*
X126549999Y-111042500D01*
G75*
G02*
X126300000Y-110792501I0J249999D01*
G01*
X126300000Y-110267499D01*
G75*
G02*
X126549999Y-110017500I249999J0D01*
G01*
G37*
G36*
G01*
X126549999Y-111842500D02*
X127450001Y-111842500D01*
G75*
G02*
X127700000Y-112092499I0J-249999D01*
G01*
X127700000Y-112617501D01*
G75*
G02*
X127450001Y-112867500I-249999J0D01*
G01*
X126549999Y-112867500D01*
G75*
G02*
X126300000Y-112617501I0J249999D01*
G01*
X126300000Y-112092499D01*
G75*
G02*
X126549999Y-111842500I249999J0D01*
G01*
G37*
%TD*%
%TO.C,R23*%
G36*
G01*
X124644999Y-111842500D02*
X125545001Y-111842500D01*
G75*
G02*
X125795000Y-112092499I0J-249999D01*
G01*
X125795000Y-112617501D01*
G75*
G02*
X125545001Y-112867500I-249999J0D01*
G01*
X124644999Y-112867500D01*
G75*
G02*
X124395000Y-112617501I0J249999D01*
G01*
X124395000Y-112092499D01*
G75*
G02*
X124644999Y-111842500I249999J0D01*
G01*
G37*
G36*
G01*
X124644999Y-110017500D02*
X125545001Y-110017500D01*
G75*
G02*
X125795000Y-110267499I0J-249999D01*
G01*
X125795000Y-110792501D01*
G75*
G02*
X125545001Y-111042500I-249999J0D01*
G01*
X124644999Y-111042500D01*
G75*
G02*
X124395000Y-110792501I0J249999D01*
G01*
X124395000Y-110267499D01*
G75*
G02*
X124644999Y-110017500I249999J0D01*
G01*
G37*
%TD*%
%TO.C,R22*%
G36*
G01*
X113849999Y-110017500D02*
X114750001Y-110017500D01*
G75*
G02*
X115000000Y-110267499I0J-249999D01*
G01*
X115000000Y-110792501D01*
G75*
G02*
X114750001Y-111042500I-249999J0D01*
G01*
X113849999Y-111042500D01*
G75*
G02*
X113600000Y-110792501I0J249999D01*
G01*
X113600000Y-110267499D01*
G75*
G02*
X113849999Y-110017500I249999J0D01*
G01*
G37*
G36*
G01*
X113849999Y-111842500D02*
X114750001Y-111842500D01*
G75*
G02*
X115000000Y-112092499I0J-249999D01*
G01*
X115000000Y-112617501D01*
G75*
G02*
X114750001Y-112867500I-249999J0D01*
G01*
X113849999Y-112867500D01*
G75*
G02*
X113600000Y-112617501I0J249999D01*
G01*
X113600000Y-112092499D01*
G75*
G02*
X113849999Y-111842500I249999J0D01*
G01*
G37*
%TD*%
%TO.C,R21*%
G36*
G01*
X111944999Y-111842500D02*
X112845001Y-111842500D01*
G75*
G02*
X113095000Y-112092499I0J-249999D01*
G01*
X113095000Y-112617501D01*
G75*
G02*
X112845001Y-112867500I-249999J0D01*
G01*
X111944999Y-112867500D01*
G75*
G02*
X111695000Y-112617501I0J249999D01*
G01*
X111695000Y-112092499D01*
G75*
G02*
X111944999Y-111842500I249999J0D01*
G01*
G37*
G36*
G01*
X111944999Y-110017500D02*
X112845001Y-110017500D01*
G75*
G02*
X113095000Y-110267499I0J-249999D01*
G01*
X113095000Y-110792501D01*
G75*
G02*
X112845001Y-111042500I-249999J0D01*
G01*
X111944999Y-111042500D01*
G75*
G02*
X111695000Y-110792501I0J249999D01*
G01*
X111695000Y-110267499D01*
G75*
G02*
X111944999Y-110017500I249999J0D01*
G01*
G37*
%TD*%
%TO.C,R20*%
G36*
G01*
X101149999Y-110017500D02*
X102050001Y-110017500D01*
G75*
G02*
X102300000Y-110267499I0J-249999D01*
G01*
X102300000Y-110792501D01*
G75*
G02*
X102050001Y-111042500I-249999J0D01*
G01*
X101149999Y-111042500D01*
G75*
G02*
X100900000Y-110792501I0J249999D01*
G01*
X100900000Y-110267499D01*
G75*
G02*
X101149999Y-110017500I249999J0D01*
G01*
G37*
G36*
G01*
X101149999Y-111842500D02*
X102050001Y-111842500D01*
G75*
G02*
X102300000Y-112092499I0J-249999D01*
G01*
X102300000Y-112617501D01*
G75*
G02*
X102050001Y-112867500I-249999J0D01*
G01*
X101149999Y-112867500D01*
G75*
G02*
X100900000Y-112617501I0J249999D01*
G01*
X100900000Y-112092499D01*
G75*
G02*
X101149999Y-111842500I249999J0D01*
G01*
G37*
%TD*%
%TO.C,R19*%
G36*
G01*
X99244999Y-111842500D02*
X100145001Y-111842500D01*
G75*
G02*
X100395000Y-112092499I0J-249999D01*
G01*
X100395000Y-112617501D01*
G75*
G02*
X100145001Y-112867500I-249999J0D01*
G01*
X99244999Y-112867500D01*
G75*
G02*
X98995000Y-112617501I0J249999D01*
G01*
X98995000Y-112092499D01*
G75*
G02*
X99244999Y-111842500I249999J0D01*
G01*
G37*
G36*
G01*
X99244999Y-110017500D02*
X100145001Y-110017500D01*
G75*
G02*
X100395000Y-110267499I0J-249999D01*
G01*
X100395000Y-110792501D01*
G75*
G02*
X100145001Y-111042500I-249999J0D01*
G01*
X99244999Y-111042500D01*
G75*
G02*
X98995000Y-110792501I0J249999D01*
G01*
X98995000Y-110267499D01*
G75*
G02*
X99244999Y-110017500I249999J0D01*
G01*
G37*
%TD*%
%TO.C,R17*%
G36*
G01*
X109620000Y-110940001D02*
X109620000Y-110039999D01*
G75*
G02*
X109869999Y-109790000I249999J0D01*
G01*
X110395001Y-109790000D01*
G75*
G02*
X110645000Y-110039999I0J-249999D01*
G01*
X110645000Y-110940001D01*
G75*
G02*
X110395001Y-111190000I-249999J0D01*
G01*
X109869999Y-111190000D01*
G75*
G02*
X109620000Y-110940001I0J249999D01*
G01*
G37*
G36*
G01*
X107795000Y-110940001D02*
X107795000Y-110039999D01*
G75*
G02*
X108044999Y-109790000I249999J0D01*
G01*
X108570001Y-109790000D01*
G75*
G02*
X108820000Y-110039999I0J-249999D01*
G01*
X108820000Y-110940001D01*
G75*
G02*
X108570001Y-111190000I-249999J0D01*
G01*
X108044999Y-111190000D01*
G75*
G02*
X107795000Y-110940001I0J249999D01*
G01*
G37*
%TD*%
%TO.C,R16*%
G36*
G01*
X96920000Y-110940001D02*
X96920000Y-110039999D01*
G75*
G02*
X97169999Y-109790000I249999J0D01*
G01*
X97695001Y-109790000D01*
G75*
G02*
X97945000Y-110039999I0J-249999D01*
G01*
X97945000Y-110940001D01*
G75*
G02*
X97695001Y-111190000I-249999J0D01*
G01*
X97169999Y-111190000D01*
G75*
G02*
X96920000Y-110940001I0J249999D01*
G01*
G37*
G36*
G01*
X95095000Y-110940001D02*
X95095000Y-110039999D01*
G75*
G02*
X95344999Y-109790000I249999J0D01*
G01*
X95870001Y-109790000D01*
G75*
G02*
X96120000Y-110039999I0J-249999D01*
G01*
X96120000Y-110940001D01*
G75*
G02*
X95870001Y-111190000I-249999J0D01*
G01*
X95344999Y-111190000D01*
G75*
G02*
X95095000Y-110940001I0J249999D01*
G01*
G37*
%TD*%
D11*
%TO.C,J15*%
X87312500Y-114617500D03*
X87312500Y-117157500D03*
X87312500Y-119697500D03*
D12*
X87312500Y-122237500D03*
%TD*%
D11*
%TO.C,J7*%
X125412500Y-84455000D03*
D12*
X127952500Y-84455000D03*
%TD*%
D24*
%TO.C,D4*%
X86042500Y-89152500D03*
X86042500Y-90552500D03*
%TD*%
%TO.C,D3*%
X86042500Y-94232500D03*
X86042500Y-95632500D03*
%TD*%
%TO.C,D2*%
X86042500Y-99312500D03*
X86042500Y-100712500D03*
%TD*%
%TO.C,C10*%
G36*
G01*
X140032501Y-103240000D02*
X138732499Y-103240000D01*
G75*
G02*
X138482500Y-102990001I0J249999D01*
G01*
X138482500Y-102339999D01*
G75*
G02*
X138732499Y-102090000I249999J0D01*
G01*
X140032501Y-102090000D01*
G75*
G02*
X140282500Y-102339999I0J-249999D01*
G01*
X140282500Y-102990001D01*
G75*
G02*
X140032501Y-103240000I-249999J0D01*
G01*
G37*
G36*
G01*
X140032501Y-106190000D02*
X138732499Y-106190000D01*
G75*
G02*
X138482500Y-105940001I0J249999D01*
G01*
X138482500Y-105289999D01*
G75*
G02*
X138732499Y-105040000I249999J0D01*
G01*
X140032501Y-105040000D01*
G75*
G02*
X140282500Y-105289999I0J-249999D01*
G01*
X140282500Y-105940001D01*
G75*
G02*
X140032501Y-106190000I-249999J0D01*
G01*
G37*
%TD*%
%TO.C,C9*%
G36*
G01*
X135757500Y-108427500D02*
X135757500Y-109377500D01*
G75*
G02*
X135507500Y-109627500I-250000J0D01*
G01*
X135007500Y-109627500D01*
G75*
G02*
X134757500Y-109377500I0J250000D01*
G01*
X134757500Y-108427500D01*
G75*
G02*
X135007500Y-108177500I250000J0D01*
G01*
X135507500Y-108177500D01*
G75*
G02*
X135757500Y-108427500I0J-250000D01*
G01*
G37*
G36*
G01*
X137657500Y-108427500D02*
X137657500Y-109377500D01*
G75*
G02*
X137407500Y-109627500I-250000J0D01*
G01*
X136907500Y-109627500D01*
G75*
G02*
X136657500Y-109377500I0J250000D01*
G01*
X136657500Y-108427500D01*
G75*
G02*
X136907500Y-108177500I250000J0D01*
G01*
X137407500Y-108177500D01*
G75*
G02*
X137657500Y-108427500I0J-250000D01*
G01*
G37*
%TD*%
%TO.C,C8*%
G36*
G01*
X129207499Y-109075000D02*
X130507501Y-109075000D01*
G75*
G02*
X130757500Y-109324999I0J-249999D01*
G01*
X130757500Y-109975001D01*
G75*
G02*
X130507501Y-110225000I-249999J0D01*
G01*
X129207499Y-110225000D01*
G75*
G02*
X128957500Y-109975001I0J249999D01*
G01*
X128957500Y-109324999D01*
G75*
G02*
X129207499Y-109075000I249999J0D01*
G01*
G37*
G36*
G01*
X129207499Y-112025000D02*
X130507501Y-112025000D01*
G75*
G02*
X130757500Y-112274999I0J-249999D01*
G01*
X130757500Y-112925001D01*
G75*
G02*
X130507501Y-113175000I-249999J0D01*
G01*
X129207499Y-113175000D01*
G75*
G02*
X128957500Y-112925001I0J249999D01*
G01*
X128957500Y-112274999D01*
G75*
G02*
X129207499Y-112025000I249999J0D01*
G01*
G37*
%TD*%
%TO.C,C7*%
G36*
G01*
X116507499Y-109075000D02*
X117807501Y-109075000D01*
G75*
G02*
X118057500Y-109324999I0J-249999D01*
G01*
X118057500Y-109975001D01*
G75*
G02*
X117807501Y-110225000I-249999J0D01*
G01*
X116507499Y-110225000D01*
G75*
G02*
X116257500Y-109975001I0J249999D01*
G01*
X116257500Y-109324999D01*
G75*
G02*
X116507499Y-109075000I249999J0D01*
G01*
G37*
G36*
G01*
X116507499Y-112025000D02*
X117807501Y-112025000D01*
G75*
G02*
X118057500Y-112274999I0J-249999D01*
G01*
X118057500Y-112925001D01*
G75*
G02*
X117807501Y-113175000I-249999J0D01*
G01*
X116507499Y-113175000D01*
G75*
G02*
X116257500Y-112925001I0J249999D01*
G01*
X116257500Y-112274999D01*
G75*
G02*
X116507499Y-112025000I249999J0D01*
G01*
G37*
%TD*%
%TO.C,C6*%
G36*
G01*
X103807499Y-109075000D02*
X105107501Y-109075000D01*
G75*
G02*
X105357500Y-109324999I0J-249999D01*
G01*
X105357500Y-109975001D01*
G75*
G02*
X105107501Y-110225000I-249999J0D01*
G01*
X103807499Y-110225000D01*
G75*
G02*
X103557500Y-109975001I0J249999D01*
G01*
X103557500Y-109324999D01*
G75*
G02*
X103807499Y-109075000I249999J0D01*
G01*
G37*
G36*
G01*
X103807499Y-112025000D02*
X105107501Y-112025000D01*
G75*
G02*
X105357500Y-112274999I0J-249999D01*
G01*
X105357500Y-112925001D01*
G75*
G02*
X105107501Y-113175000I-249999J0D01*
G01*
X103807499Y-113175000D01*
G75*
G02*
X103557500Y-112925001I0J249999D01*
G01*
X103557500Y-112274999D01*
G75*
G02*
X103807499Y-112025000I249999J0D01*
G01*
G37*
%TD*%
%TO.C,C5*%
G36*
G01*
X122370000Y-112870000D02*
X122370000Y-111920000D01*
G75*
G02*
X122620000Y-111670000I250000J0D01*
G01*
X123120000Y-111670000D01*
G75*
G02*
X123370000Y-111920000I0J-250000D01*
G01*
X123370000Y-112870000D01*
G75*
G02*
X123120000Y-113120000I-250000J0D01*
G01*
X122620000Y-113120000D01*
G75*
G02*
X122370000Y-112870000I0J250000D01*
G01*
G37*
G36*
G01*
X120470000Y-112870000D02*
X120470000Y-111920000D01*
G75*
G02*
X120720000Y-111670000I250000J0D01*
G01*
X121220000Y-111670000D01*
G75*
G02*
X121470000Y-111920000I0J-250000D01*
G01*
X121470000Y-112870000D01*
G75*
G02*
X121220000Y-113120000I-250000J0D01*
G01*
X120720000Y-113120000D01*
G75*
G02*
X120470000Y-112870000I0J250000D01*
G01*
G37*
%TD*%
%TO.C,C4*%
G36*
G01*
X109670000Y-112870000D02*
X109670000Y-111920000D01*
G75*
G02*
X109920000Y-111670000I250000J0D01*
G01*
X110420000Y-111670000D01*
G75*
G02*
X110670000Y-111920000I0J-250000D01*
G01*
X110670000Y-112870000D01*
G75*
G02*
X110420000Y-113120000I-250000J0D01*
G01*
X109920000Y-113120000D01*
G75*
G02*
X109670000Y-112870000I0J250000D01*
G01*
G37*
G36*
G01*
X107770000Y-112870000D02*
X107770000Y-111920000D01*
G75*
G02*
X108020000Y-111670000I250000J0D01*
G01*
X108520000Y-111670000D01*
G75*
G02*
X108770000Y-111920000I0J-250000D01*
G01*
X108770000Y-112870000D01*
G75*
G02*
X108520000Y-113120000I-250000J0D01*
G01*
X108020000Y-113120000D01*
G75*
G02*
X107770000Y-112870000I0J250000D01*
G01*
G37*
%TD*%
%TO.C,C3*%
G36*
G01*
X96970000Y-112870000D02*
X96970000Y-111920000D01*
G75*
G02*
X97220000Y-111670000I250000J0D01*
G01*
X97720000Y-111670000D01*
G75*
G02*
X97970000Y-111920000I0J-250000D01*
G01*
X97970000Y-112870000D01*
G75*
G02*
X97720000Y-113120000I-250000J0D01*
G01*
X97220000Y-113120000D01*
G75*
G02*
X96970000Y-112870000I0J250000D01*
G01*
G37*
G36*
G01*
X95070000Y-112870000D02*
X95070000Y-111920000D01*
G75*
G02*
X95320000Y-111670000I250000J0D01*
G01*
X95820000Y-111670000D01*
G75*
G02*
X96070000Y-111920000I0J-250000D01*
G01*
X96070000Y-112870000D01*
G75*
G02*
X95820000Y-113120000I-250000J0D01*
G01*
X95320000Y-113120000D01*
G75*
G02*
X95070000Y-112870000I0J250000D01*
G01*
G37*
%TD*%
%TO.C,C2*%
G36*
G01*
X127582500Y-88280001D02*
X127582500Y-86979999D01*
G75*
G02*
X127832499Y-86730000I249999J0D01*
G01*
X128482501Y-86730000D01*
G75*
G02*
X128732500Y-86979999I0J-249999D01*
G01*
X128732500Y-88280001D01*
G75*
G02*
X128482501Y-88530000I-249999J0D01*
G01*
X127832499Y-88530000D01*
G75*
G02*
X127582500Y-88280001I0J249999D01*
G01*
G37*
G36*
G01*
X124632500Y-88280001D02*
X124632500Y-86979999D01*
G75*
G02*
X124882499Y-86730000I249999J0D01*
G01*
X125532501Y-86730000D01*
G75*
G02*
X125782500Y-86979999I0J-249999D01*
G01*
X125782500Y-88280001D01*
G75*
G02*
X125532501Y-88530000I-249999J0D01*
G01*
X124882499Y-88530000D01*
G75*
G02*
X124632500Y-88280001I0J249999D01*
G01*
G37*
%TD*%
%TO.C,C1*%
G36*
G01*
X132165000Y-91822500D02*
X133265000Y-91822500D01*
G75*
G02*
X133515000Y-92072500I0J-250000D01*
G01*
X133515000Y-94572500D01*
G75*
G02*
X133265000Y-94822500I-250000J0D01*
G01*
X132165000Y-94822500D01*
G75*
G02*
X131915000Y-94572500I0J250000D01*
G01*
X131915000Y-92072500D01*
G75*
G02*
X132165000Y-91822500I250000J0D01*
G01*
G37*
G36*
G01*
X132165000Y-87422500D02*
X133265000Y-87422500D01*
G75*
G02*
X133515000Y-87672500I0J-250000D01*
G01*
X133515000Y-90172500D01*
G75*
G02*
X133265000Y-90422500I-250000J0D01*
G01*
X132165000Y-90422500D01*
G75*
G02*
X131915000Y-90172500I0J250000D01*
G01*
X131915000Y-87672500D01*
G75*
G02*
X132165000Y-87422500I250000J0D01*
G01*
G37*
%TD*%
M02*
