%TF.GenerationSoftware,KiCad,Pcbnew,(5.1.10)-1*%
%TF.CreationDate,2021-09-24T06:20:55+01:00*%
%TF.ProjectId,EnergyMonitor,456e6572-6779-44d6-9f6e-69746f722e6b,v1.0*%
%TF.SameCoordinates,Original*%
%TF.FileFunction,Legend,Top*%
%TF.FilePolarity,Positive*%
%FSLAX46Y46*%
G04 Gerber Fmt 4.6, Leading zero omitted, Abs format (unit mm)*
G04 Created by KiCad (PCBNEW (5.1.10)-1) date 2021-09-24 06:20:55*
%MOMM*%
%LPD*%
G01*
G04 APERTURE LIST*
%ADD10C,0.120000*%
%ADD11C,0.100000*%
%ADD12C,0.200000*%
%ADD13C,0.150000*%
G04 APERTURE END LIST*
D10*
X95250000Y-94615000D02*
X95250000Y-96520000D01*
X132397500Y-96520000D02*
X127000000Y-96520000D01*
X114351523Y-96520000D02*
X125095000Y-96520000D01*
X101600000Y-96520000D02*
X112343477Y-96520000D01*
X95250000Y-96520000D02*
X99695000Y-96520000D01*
X127000000Y-96520000D02*
G75*
G03*
X127000000Y-96520000I-952500J0D01*
G01*
X114351523Y-96520000D02*
G75*
G03*
X114351523Y-96520000I-1004023J0D01*
G01*
X101600000Y-96520000D02*
G75*
G03*
X101600000Y-96520000I-952500J0D01*
G01*
D11*
X125780833Y-96081904D02*
X126276071Y-96081904D01*
X126009404Y-96386666D01*
X126123690Y-96386666D01*
X126199880Y-96424761D01*
X126237976Y-96462857D01*
X126276071Y-96539047D01*
X126276071Y-96729523D01*
X126237976Y-96805714D01*
X126199880Y-96843809D01*
X126123690Y-96881904D01*
X125895119Y-96881904D01*
X125818928Y-96843809D01*
X125780833Y-96805714D01*
X113118928Y-96158095D02*
X113157023Y-96120000D01*
X113233214Y-96081904D01*
X113423690Y-96081904D01*
X113499880Y-96120000D01*
X113537976Y-96158095D01*
X113576071Y-96234285D01*
X113576071Y-96310476D01*
X113537976Y-96424761D01*
X113080833Y-96881904D01*
X113576071Y-96881904D01*
X100876071Y-96881904D02*
X100418928Y-96881904D01*
X100647500Y-96881904D02*
X100647500Y-96081904D01*
X100571309Y-96196190D01*
X100495119Y-96272380D01*
X100418928Y-96310476D01*
D12*
X88213571Y-111803571D02*
X88213571Y-110303571D01*
X90927857Y-111660714D02*
X90856428Y-111732142D01*
X90642142Y-111803571D01*
X90499285Y-111803571D01*
X90285000Y-111732142D01*
X90142142Y-111589285D01*
X90070714Y-111446428D01*
X89999285Y-111160714D01*
X89999285Y-110946428D01*
X90070714Y-110660714D01*
X90142142Y-110517857D01*
X90285000Y-110375000D01*
X90499285Y-110303571D01*
X90642142Y-110303571D01*
X90856428Y-110375000D01*
X90927857Y-110446428D01*
D13*
X88988928Y-110128095D02*
X89027023Y-110090000D01*
X89103214Y-110051904D01*
X89293690Y-110051904D01*
X89369880Y-110090000D01*
X89407976Y-110128095D01*
X89446071Y-110204285D01*
X89446071Y-110280476D01*
X89407976Y-110394761D01*
X88950833Y-110851904D01*
X89446071Y-110851904D01*
D12*
X55828571Y-115931071D02*
X55828571Y-114431071D01*
X58542857Y-115788214D02*
X58471428Y-115859642D01*
X58257142Y-115931071D01*
X58114285Y-115931071D01*
X57900000Y-115859642D01*
X57757142Y-115716785D01*
X57685714Y-115573928D01*
X57614285Y-115288214D01*
X57614285Y-115073928D01*
X57685714Y-114788214D01*
X57757142Y-114645357D01*
X57900000Y-114502500D01*
X58114285Y-114431071D01*
X58257142Y-114431071D01*
X58471428Y-114502500D01*
X58542857Y-114573928D01*
D13*
X56603928Y-114255595D02*
X56642023Y-114217500D01*
X56718214Y-114179404D01*
X56908690Y-114179404D01*
X56984880Y-114217500D01*
X57022976Y-114255595D01*
X57061071Y-114331785D01*
X57061071Y-114407976D01*
X57022976Y-114522261D01*
X56565833Y-114979404D01*
X57061071Y-114979404D01*
X87424166Y-79589761D02*
X87519404Y-79637380D01*
X87709880Y-79637380D01*
X87805119Y-79589761D01*
X87852738Y-79494523D01*
X87852738Y-79446904D01*
X87805119Y-79351666D01*
X87709880Y-79304047D01*
X87567023Y-79304047D01*
X87471785Y-79256428D01*
X87424166Y-79161190D01*
X87424166Y-79113571D01*
X87471785Y-79018333D01*
X87567023Y-78970714D01*
X87709880Y-78970714D01*
X87805119Y-79018333D01*
X88709880Y-79637380D02*
X88709880Y-79113571D01*
X88662261Y-79018333D01*
X88567023Y-78970714D01*
X88376547Y-78970714D01*
X88281309Y-79018333D01*
X88709880Y-79589761D02*
X88614642Y-79637380D01*
X88376547Y-79637380D01*
X88281309Y-79589761D01*
X88233690Y-79494523D01*
X88233690Y-79399285D01*
X88281309Y-79304047D01*
X88376547Y-79256428D01*
X88614642Y-79256428D01*
X88709880Y-79208809D01*
X89186071Y-79637380D02*
X89186071Y-78970714D01*
X89186071Y-79065952D02*
X89233690Y-79018333D01*
X89328928Y-78970714D01*
X89471785Y-78970714D01*
X89567023Y-79018333D01*
X89614642Y-79113571D01*
X89614642Y-79637380D01*
X89614642Y-79113571D02*
X89662261Y-79018333D01*
X89757500Y-78970714D01*
X89900357Y-78970714D01*
X89995595Y-79018333D01*
X90043214Y-79113571D01*
X90043214Y-79637380D01*
X90519404Y-78970714D02*
X90519404Y-79970714D01*
X90519404Y-79018333D02*
X90614642Y-78970714D01*
X90805119Y-78970714D01*
X90900357Y-79018333D01*
X90947976Y-79065952D01*
X90995595Y-79161190D01*
X90995595Y-79446904D01*
X90947976Y-79542142D01*
X90900357Y-79589761D01*
X90805119Y-79637380D01*
X90614642Y-79637380D01*
X90519404Y-79589761D01*
X91567023Y-79637380D02*
X91471785Y-79589761D01*
X91424166Y-79494523D01*
X91424166Y-78637380D01*
X92328928Y-79589761D02*
X92233690Y-79637380D01*
X92043214Y-79637380D01*
X91947976Y-79589761D01*
X91900357Y-79494523D01*
X91900357Y-79113571D01*
X91947976Y-79018333D01*
X92043214Y-78970714D01*
X92233690Y-78970714D01*
X92328928Y-79018333D01*
X92376547Y-79113571D01*
X92376547Y-79208809D01*
X91900357Y-79304047D01*
X93567023Y-79637380D02*
X93567023Y-78970714D01*
X93567023Y-79161190D02*
X93614642Y-79065952D01*
X93662261Y-79018333D01*
X93757500Y-78970714D01*
X93852738Y-78970714D01*
X94614642Y-79637380D02*
X94614642Y-79113571D01*
X94567023Y-79018333D01*
X94471785Y-78970714D01*
X94281309Y-78970714D01*
X94186071Y-79018333D01*
X94614642Y-79589761D02*
X94519404Y-79637380D01*
X94281309Y-79637380D01*
X94186071Y-79589761D01*
X94138452Y-79494523D01*
X94138452Y-79399285D01*
X94186071Y-79304047D01*
X94281309Y-79256428D01*
X94519404Y-79256428D01*
X94614642Y-79208809D01*
X94947976Y-78970714D02*
X95328928Y-78970714D01*
X95090833Y-78637380D02*
X95090833Y-79494523D01*
X95138452Y-79589761D01*
X95233690Y-79637380D01*
X95328928Y-79637380D01*
X96043214Y-79589761D02*
X95947976Y-79637380D01*
X95757500Y-79637380D01*
X95662261Y-79589761D01*
X95614642Y-79494523D01*
X95614642Y-79113571D01*
X95662261Y-79018333D01*
X95757500Y-78970714D01*
X95947976Y-78970714D01*
X96043214Y-79018333D01*
X96090833Y-79113571D01*
X96090833Y-79208809D01*
X95614642Y-79304047D01*
X88733690Y-80382619D02*
X88781309Y-80335000D01*
X88876547Y-80287380D01*
X89114642Y-80287380D01*
X89209880Y-80335000D01*
X89257500Y-80382619D01*
X89305119Y-80477857D01*
X89305119Y-80573095D01*
X89257500Y-80715952D01*
X88686071Y-81287380D01*
X89305119Y-81287380D01*
X90209880Y-80287380D02*
X89733690Y-80287380D01*
X89686071Y-80763571D01*
X89733690Y-80715952D01*
X89828928Y-80668333D01*
X90067023Y-80668333D01*
X90162261Y-80715952D01*
X90209880Y-80763571D01*
X90257500Y-80858809D01*
X90257500Y-81096904D01*
X90209880Y-81192142D01*
X90162261Y-81239761D01*
X90067023Y-81287380D01*
X89828928Y-81287380D01*
X89733690Y-81239761D01*
X89686071Y-81192142D01*
X90876547Y-80287380D02*
X90971785Y-80287380D01*
X91067023Y-80335000D01*
X91114642Y-80382619D01*
X91162261Y-80477857D01*
X91209880Y-80668333D01*
X91209880Y-80906428D01*
X91162261Y-81096904D01*
X91114642Y-81192142D01*
X91067023Y-81239761D01*
X90971785Y-81287380D01*
X90876547Y-81287380D01*
X90781309Y-81239761D01*
X90733690Y-81192142D01*
X90686071Y-81096904D01*
X90638452Y-80906428D01*
X90638452Y-80668333D01*
X90686071Y-80477857D01*
X90733690Y-80382619D01*
X90781309Y-80335000D01*
X90876547Y-80287380D01*
X91828928Y-80287380D02*
X91924166Y-80287380D01*
X92019404Y-80335000D01*
X92067023Y-80382619D01*
X92114642Y-80477857D01*
X92162261Y-80668333D01*
X92162261Y-80906428D01*
X92114642Y-81096904D01*
X92067023Y-81192142D01*
X92019404Y-81239761D01*
X91924166Y-81287380D01*
X91828928Y-81287380D01*
X91733690Y-81239761D01*
X91686071Y-81192142D01*
X91638452Y-81096904D01*
X91590833Y-80906428D01*
X91590833Y-80668333D01*
X91638452Y-80477857D01*
X91686071Y-80382619D01*
X91733690Y-80335000D01*
X91828928Y-80287380D01*
X93352738Y-81287380D02*
X93352738Y-80287380D01*
X93352738Y-80763571D02*
X93924166Y-80763571D01*
X93924166Y-81287380D02*
X93924166Y-80287380D01*
X94305119Y-80620714D02*
X94828928Y-80620714D01*
X94305119Y-81287380D01*
X94828928Y-81287380D01*
D10*
X136207500Y-81915000D02*
X129222500Y-81915000D01*
X124142500Y-78105000D02*
X124142500Y-81915000D01*
X136207500Y-78105000D02*
X136207500Y-81915000D01*
X124142500Y-78105000D02*
X136207500Y-78105000D01*
D11*
X90830476Y-107232500D02*
X90754285Y-107194404D01*
X90640000Y-107194404D01*
X90525714Y-107232500D01*
X90449523Y-107308690D01*
X90411428Y-107384880D01*
X90373333Y-107537261D01*
X90373333Y-107651547D01*
X90411428Y-107803928D01*
X90449523Y-107880119D01*
X90525714Y-107956309D01*
X90640000Y-107994404D01*
X90716190Y-107994404D01*
X90830476Y-107956309D01*
X90868571Y-107918214D01*
X90868571Y-107651547D01*
X90716190Y-107651547D01*
X91211428Y-107994404D02*
X91211428Y-107194404D01*
X91668571Y-107994404D01*
X91668571Y-107194404D01*
X92049523Y-107994404D02*
X92049523Y-107194404D01*
X92240000Y-107194404D01*
X92354285Y-107232500D01*
X92430476Y-107308690D01*
X92468571Y-107384880D01*
X92506666Y-107537261D01*
X92506666Y-107651547D01*
X92468571Y-107803928D01*
X92430476Y-107880119D01*
X92354285Y-107956309D01*
X92240000Y-107994404D01*
X92049523Y-107994404D01*
X91059047Y-102914404D02*
X91059047Y-102114404D01*
X91859047Y-102914404D02*
X91401904Y-102914404D01*
X91630476Y-102914404D02*
X91630476Y-102114404D01*
X91554285Y-102228690D01*
X91478095Y-102304880D01*
X91401904Y-102342976D01*
X91059047Y-97834404D02*
X91059047Y-97034404D01*
X91401904Y-97110595D02*
X91440000Y-97072500D01*
X91516190Y-97034404D01*
X91706666Y-97034404D01*
X91782857Y-97072500D01*
X91820952Y-97110595D01*
X91859047Y-97186785D01*
X91859047Y-97262976D01*
X91820952Y-97377261D01*
X91363809Y-97834404D01*
X91859047Y-97834404D01*
X91059047Y-92754404D02*
X91059047Y-91954404D01*
X91363809Y-91954404D02*
X91859047Y-91954404D01*
X91592380Y-92259166D01*
X91706666Y-92259166D01*
X91782857Y-92297261D01*
X91820952Y-92335357D01*
X91859047Y-92411547D01*
X91859047Y-92602023D01*
X91820952Y-92678214D01*
X91782857Y-92716309D01*
X91706666Y-92754404D01*
X91478095Y-92754404D01*
X91401904Y-92716309D01*
X91363809Y-92678214D01*
X91173333Y-86874404D02*
X91440000Y-87674404D01*
X91706666Y-86874404D01*
D13*
X143575714Y-91702380D02*
X143766190Y-91702380D01*
X143861428Y-91654761D01*
X143909047Y-91607142D01*
X144004285Y-91464285D01*
X144051904Y-91273809D01*
X144051904Y-90892857D01*
X144004285Y-90797619D01*
X143956666Y-90750000D01*
X143861428Y-90702380D01*
X143670952Y-90702380D01*
X143575714Y-90750000D01*
X143528095Y-90797619D01*
X143480476Y-90892857D01*
X143480476Y-91130952D01*
X143528095Y-91226190D01*
X143575714Y-91273809D01*
X143670952Y-91321428D01*
X143861428Y-91321428D01*
X143956666Y-91273809D01*
X144004285Y-91226190D01*
X144051904Y-91130952D01*
X144337619Y-90702380D02*
X144670952Y-91702380D01*
X145004285Y-90702380D01*
X143480476Y-93066666D02*
X143956666Y-93066666D01*
X143385238Y-93352380D02*
X143718571Y-92352380D01*
X144051904Y-93352380D01*
X144956666Y-93257142D02*
X144909047Y-93304761D01*
X144766190Y-93352380D01*
X144670952Y-93352380D01*
X144528095Y-93304761D01*
X144432857Y-93209523D01*
X144385238Y-93114285D01*
X144337619Y-92923809D01*
X144337619Y-92780952D01*
X144385238Y-92590476D01*
X144432857Y-92495238D01*
X144528095Y-92400000D01*
X144670952Y-92352380D01*
X144766190Y-92352380D01*
X144909047Y-92400000D01*
X144956666Y-92447619D01*
D10*
X132397500Y-96520000D02*
X132397500Y-108585000D01*
D13*
X120473452Y-83082380D02*
X121092500Y-83082380D01*
X120759166Y-83463333D01*
X120902023Y-83463333D01*
X120997261Y-83510952D01*
X121044880Y-83558571D01*
X121092500Y-83653809D01*
X121092500Y-83891904D01*
X121044880Y-83987142D01*
X120997261Y-84034761D01*
X120902023Y-84082380D01*
X120616309Y-84082380D01*
X120521071Y-84034761D01*
X120473452Y-83987142D01*
X121378214Y-83082380D02*
X121711547Y-84082380D01*
X122044880Y-83082380D01*
X122282976Y-83082380D02*
X122902023Y-83082380D01*
X122568690Y-83463333D01*
X122711547Y-83463333D01*
X122806785Y-83510952D01*
X122854404Y-83558571D01*
X122902023Y-83653809D01*
X122902023Y-83891904D01*
X122854404Y-83987142D01*
X122806785Y-84034761D01*
X122711547Y-84082380D01*
X122425833Y-84082380D01*
X122330595Y-84034761D01*
X122282976Y-83987142D01*
X121330595Y-85732380D02*
X121330595Y-84732380D01*
X121568690Y-84732380D01*
X121711547Y-84780000D01*
X121806785Y-84875238D01*
X121854404Y-84970476D01*
X121902023Y-85160952D01*
X121902023Y-85303809D01*
X121854404Y-85494285D01*
X121806785Y-85589523D01*
X121711547Y-85684761D01*
X121568690Y-85732380D01*
X121330595Y-85732380D01*
X122902023Y-85637142D02*
X122854404Y-85684761D01*
X122711547Y-85732380D01*
X122616309Y-85732380D01*
X122473452Y-85684761D01*
X122378214Y-85589523D01*
X122330595Y-85494285D01*
X122282976Y-85303809D01*
X122282976Y-85160952D01*
X122330595Y-84970476D01*
X122378214Y-84875238D01*
X122473452Y-84780000D01*
X122616309Y-84732380D01*
X122711547Y-84732380D01*
X122854404Y-84780000D01*
X122902023Y-84827619D01*
X84852023Y-92321071D02*
X85185357Y-92321071D01*
X85328214Y-92844880D02*
X84852023Y-92844880D01*
X84852023Y-91844880D01*
X85328214Y-91844880D01*
X85709166Y-92797261D02*
X85852023Y-92844880D01*
X86090119Y-92844880D01*
X86185357Y-92797261D01*
X86232976Y-92749642D01*
X86280595Y-92654404D01*
X86280595Y-92559166D01*
X86232976Y-92463928D01*
X86185357Y-92416309D01*
X86090119Y-92368690D01*
X85899642Y-92321071D01*
X85804404Y-92273452D01*
X85756785Y-92225833D01*
X85709166Y-92130595D01*
X85709166Y-92035357D01*
X85756785Y-91940119D01*
X85804404Y-91892500D01*
X85899642Y-91844880D01*
X86137738Y-91844880D01*
X86280595Y-91892500D01*
X86709166Y-92844880D02*
X86709166Y-91844880D01*
X86947261Y-91844880D01*
X87090119Y-91892500D01*
X87185357Y-91987738D01*
X87232976Y-92082976D01*
X87280595Y-92273452D01*
X87280595Y-92416309D01*
X87232976Y-92606785D01*
X87185357Y-92702023D01*
X87090119Y-92797261D01*
X86947261Y-92844880D01*
X86709166Y-92844880D01*
X124795595Y-79637380D02*
X124795595Y-78970714D01*
X124795595Y-79161190D02*
X124843214Y-79065952D01*
X124890833Y-79018333D01*
X124986071Y-78970714D01*
X125081309Y-78970714D01*
X125795595Y-79589761D02*
X125700357Y-79637380D01*
X125509880Y-79637380D01*
X125414642Y-79589761D01*
X125367023Y-79494523D01*
X125367023Y-79113571D01*
X125414642Y-79018333D01*
X125509880Y-78970714D01*
X125700357Y-78970714D01*
X125795595Y-79018333D01*
X125843214Y-79113571D01*
X125843214Y-79208809D01*
X125367023Y-79304047D01*
X126271785Y-79637380D02*
X126271785Y-78970714D01*
X126271785Y-79065952D02*
X126319404Y-79018333D01*
X126414642Y-78970714D01*
X126557500Y-78970714D01*
X126652738Y-79018333D01*
X126700357Y-79113571D01*
X126700357Y-79637380D01*
X126700357Y-79113571D02*
X126747976Y-79018333D01*
X126843214Y-78970714D01*
X126986071Y-78970714D01*
X127081309Y-79018333D01*
X127128928Y-79113571D01*
X127128928Y-79637380D01*
X127747976Y-79637380D02*
X127652738Y-79589761D01*
X127605119Y-79542142D01*
X127557500Y-79446904D01*
X127557500Y-79161190D01*
X127605119Y-79065952D01*
X127652738Y-79018333D01*
X127747976Y-78970714D01*
X127890833Y-78970714D01*
X127986071Y-79018333D01*
X128033690Y-79065952D01*
X128081309Y-79161190D01*
X128081309Y-79446904D01*
X128033690Y-79542142D01*
X127986071Y-79589761D01*
X127890833Y-79637380D01*
X127747976Y-79637380D01*
X128414642Y-78970714D02*
X128652738Y-79637380D01*
X128890833Y-78970714D01*
X129652738Y-79589761D02*
X129557500Y-79637380D01*
X129367023Y-79637380D01*
X129271785Y-79589761D01*
X129224166Y-79494523D01*
X129224166Y-79113571D01*
X129271785Y-79018333D01*
X129367023Y-78970714D01*
X129557500Y-78970714D01*
X129652738Y-79018333D01*
X129700357Y-79113571D01*
X129700357Y-79208809D01*
X129224166Y-79304047D01*
X130890833Y-78970714D02*
X130890833Y-79827857D01*
X130843214Y-79923095D01*
X130747976Y-79970714D01*
X130700357Y-79970714D01*
X130890833Y-78637380D02*
X130843214Y-78685000D01*
X130890833Y-78732619D01*
X130938452Y-78685000D01*
X130890833Y-78637380D01*
X130890833Y-78732619D01*
X131795595Y-78970714D02*
X131795595Y-79637380D01*
X131367023Y-78970714D02*
X131367023Y-79494523D01*
X131414642Y-79589761D01*
X131509880Y-79637380D01*
X131652738Y-79637380D01*
X131747976Y-79589761D01*
X131795595Y-79542142D01*
X132271785Y-79637380D02*
X132271785Y-78970714D01*
X132271785Y-79065952D02*
X132319404Y-79018333D01*
X132414642Y-78970714D01*
X132557500Y-78970714D01*
X132652738Y-79018333D01*
X132700357Y-79113571D01*
X132700357Y-79637380D01*
X132700357Y-79113571D02*
X132747976Y-79018333D01*
X132843214Y-78970714D01*
X132986071Y-78970714D01*
X133081309Y-79018333D01*
X133128928Y-79113571D01*
X133128928Y-79637380D01*
X133605119Y-78970714D02*
X133605119Y-79970714D01*
X133605119Y-79018333D02*
X133700357Y-78970714D01*
X133890833Y-78970714D01*
X133986071Y-79018333D01*
X134033690Y-79065952D01*
X134081309Y-79161190D01*
X134081309Y-79446904D01*
X134033690Y-79542142D01*
X133986071Y-79589761D01*
X133890833Y-79637380D01*
X133700357Y-79637380D01*
X133605119Y-79589761D01*
X134890833Y-79589761D02*
X134795595Y-79637380D01*
X134605119Y-79637380D01*
X134509880Y-79589761D01*
X134462261Y-79494523D01*
X134462261Y-79113571D01*
X134509880Y-79018333D01*
X134605119Y-78970714D01*
X134795595Y-78970714D01*
X134890833Y-79018333D01*
X134938452Y-79113571D01*
X134938452Y-79208809D01*
X134462261Y-79304047D01*
X135367023Y-79637380D02*
X135367023Y-78970714D01*
X135367023Y-79161190D02*
X135414642Y-79065952D01*
X135462261Y-79018333D01*
X135557500Y-78970714D01*
X135652738Y-78970714D01*
X124938452Y-81287380D02*
X124843214Y-81239761D01*
X124795595Y-81192142D01*
X124747976Y-81096904D01*
X124747976Y-80811190D01*
X124795595Y-80715952D01*
X124843214Y-80668333D01*
X124938452Y-80620714D01*
X125081309Y-80620714D01*
X125176547Y-80668333D01*
X125224166Y-80715952D01*
X125271785Y-80811190D01*
X125271785Y-81096904D01*
X125224166Y-81192142D01*
X125176547Y-81239761D01*
X125081309Y-81287380D01*
X124938452Y-81287380D01*
X125700357Y-80620714D02*
X125700357Y-81287380D01*
X125700357Y-80715952D02*
X125747976Y-80668333D01*
X125843214Y-80620714D01*
X125986071Y-80620714D01*
X126081309Y-80668333D01*
X126128928Y-80763571D01*
X126128928Y-81287380D01*
X127367023Y-80287380D02*
X127367023Y-81096904D01*
X127414642Y-81192142D01*
X127462261Y-81239761D01*
X127557500Y-81287380D01*
X127747976Y-81287380D01*
X127843214Y-81239761D01*
X127890833Y-81192142D01*
X127938452Y-81096904D01*
X127938452Y-80287380D01*
X128367023Y-81239761D02*
X128509880Y-81287380D01*
X128747976Y-81287380D01*
X128843214Y-81239761D01*
X128890833Y-81192142D01*
X128938452Y-81096904D01*
X128938452Y-81001666D01*
X128890833Y-80906428D01*
X128843214Y-80858809D01*
X128747976Y-80811190D01*
X128557500Y-80763571D01*
X128462261Y-80715952D01*
X128414642Y-80668333D01*
X128367023Y-80573095D01*
X128367023Y-80477857D01*
X128414642Y-80382619D01*
X128462261Y-80335000D01*
X128557500Y-80287380D01*
X128795595Y-80287380D01*
X128938452Y-80335000D01*
X129700357Y-80763571D02*
X129843214Y-80811190D01*
X129890833Y-80858809D01*
X129938452Y-80954047D01*
X129938452Y-81096904D01*
X129890833Y-81192142D01*
X129843214Y-81239761D01*
X129747976Y-81287380D01*
X129367023Y-81287380D01*
X129367023Y-80287380D01*
X129700357Y-80287380D01*
X129795595Y-80335000D01*
X129843214Y-80382619D01*
X129890833Y-80477857D01*
X129890833Y-80573095D01*
X129843214Y-80668333D01*
X129795595Y-80715952D01*
X129700357Y-80763571D01*
X129367023Y-80763571D01*
X131128928Y-80620714D02*
X131128928Y-81620714D01*
X131128928Y-80668333D02*
X131224166Y-80620714D01*
X131414642Y-80620714D01*
X131509880Y-80668333D01*
X131557500Y-80715952D01*
X131605119Y-80811190D01*
X131605119Y-81096904D01*
X131557500Y-81192142D01*
X131509880Y-81239761D01*
X131414642Y-81287380D01*
X131224166Y-81287380D01*
X131128928Y-81239761D01*
X132176547Y-81287380D02*
X132081309Y-81239761D01*
X132033690Y-81192142D01*
X131986071Y-81096904D01*
X131986071Y-80811190D01*
X132033690Y-80715952D01*
X132081309Y-80668333D01*
X132176547Y-80620714D01*
X132319404Y-80620714D01*
X132414642Y-80668333D01*
X132462261Y-80715952D01*
X132509880Y-80811190D01*
X132509880Y-81096904D01*
X132462261Y-81192142D01*
X132414642Y-81239761D01*
X132319404Y-81287380D01*
X132176547Y-81287380D01*
X132843214Y-80620714D02*
X133033690Y-81287380D01*
X133224166Y-80811190D01*
X133414642Y-81287380D01*
X133605119Y-80620714D01*
X134367023Y-81239761D02*
X134271785Y-81287380D01*
X134081309Y-81287380D01*
X133986071Y-81239761D01*
X133938452Y-81144523D01*
X133938452Y-80763571D01*
X133986071Y-80668333D01*
X134081309Y-80620714D01*
X134271785Y-80620714D01*
X134367023Y-80668333D01*
X134414642Y-80763571D01*
X134414642Y-80858809D01*
X133938452Y-80954047D01*
X134843214Y-81287380D02*
X134843214Y-80620714D01*
X134843214Y-80811190D02*
X134890833Y-80715952D01*
X134938452Y-80668333D01*
X135033690Y-80620714D01*
X135128928Y-80620714D01*
X136825357Y-100306666D02*
X137301547Y-100306666D01*
X136730119Y-100592380D02*
X137063452Y-99592380D01*
X137396785Y-100592380D01*
X138301547Y-100497142D02*
X138253928Y-100544761D01*
X138111071Y-100592380D01*
X138015833Y-100592380D01*
X137872976Y-100544761D01*
X137777738Y-100449523D01*
X137730119Y-100354285D01*
X137682500Y-100163809D01*
X137682500Y-100020952D01*
X137730119Y-99830476D01*
X137777738Y-99735238D01*
X137872976Y-99640000D01*
X138015833Y-99592380D01*
X138111071Y-99592380D01*
X138253928Y-99640000D01*
X138301547Y-99687619D01*
X139396785Y-99925714D02*
X139634880Y-100592380D01*
X139872976Y-99925714D01*
X140396785Y-100592380D02*
X140301547Y-100544761D01*
X140253928Y-100497142D01*
X140206309Y-100401904D01*
X140206309Y-100116190D01*
X140253928Y-100020952D01*
X140301547Y-99973333D01*
X140396785Y-99925714D01*
X140539642Y-99925714D01*
X140634880Y-99973333D01*
X140682500Y-100020952D01*
X140730119Y-100116190D01*
X140730119Y-100401904D01*
X140682500Y-100497142D01*
X140634880Y-100544761D01*
X140539642Y-100592380D01*
X140396785Y-100592380D01*
X141301547Y-100592380D02*
X141206309Y-100544761D01*
X141158690Y-100449523D01*
X141158690Y-99592380D01*
X141539642Y-99925714D02*
X141920595Y-99925714D01*
X141682500Y-99592380D02*
X141682500Y-100449523D01*
X141730119Y-100544761D01*
X141825357Y-100592380D01*
X141920595Y-100592380D01*
X142682500Y-100592380D02*
X142682500Y-100068571D01*
X142634880Y-99973333D01*
X142539642Y-99925714D01*
X142349166Y-99925714D01*
X142253928Y-99973333D01*
X142682500Y-100544761D02*
X142587261Y-100592380D01*
X142349166Y-100592380D01*
X142253928Y-100544761D01*
X142206309Y-100449523D01*
X142206309Y-100354285D01*
X142253928Y-100259047D01*
X142349166Y-100211428D01*
X142587261Y-100211428D01*
X142682500Y-100163809D01*
X143587261Y-99925714D02*
X143587261Y-100735238D01*
X143539642Y-100830476D01*
X143492023Y-100878095D01*
X143396785Y-100925714D01*
X143253928Y-100925714D01*
X143158690Y-100878095D01*
X143587261Y-100544761D02*
X143492023Y-100592380D01*
X143301547Y-100592380D01*
X143206309Y-100544761D01*
X143158690Y-100497142D01*
X143111071Y-100401904D01*
X143111071Y-100116190D01*
X143158690Y-100020952D01*
X143206309Y-99973333D01*
X143301547Y-99925714D01*
X143492023Y-99925714D01*
X143587261Y-99973333D01*
X144444404Y-100544761D02*
X144349166Y-100592380D01*
X144158690Y-100592380D01*
X144063452Y-100544761D01*
X144015833Y-100449523D01*
X144015833Y-100068571D01*
X144063452Y-99973333D01*
X144158690Y-99925714D01*
X144349166Y-99925714D01*
X144444404Y-99973333D01*
X144492023Y-100068571D01*
X144492023Y-100163809D01*
X144015833Y-100259047D01*
X142015833Y-101956666D02*
X142492023Y-101956666D01*
X141920595Y-102242380D02*
X142253928Y-101242380D01*
X142587261Y-102242380D01*
X142920595Y-102242380D02*
X142920595Y-101242380D01*
X143158690Y-101242380D01*
X143301547Y-101290000D01*
X143396785Y-101385238D01*
X143444404Y-101480476D01*
X143492023Y-101670952D01*
X143492023Y-101813809D01*
X143444404Y-102004285D01*
X143396785Y-102099523D01*
X143301547Y-102194761D01*
X143158690Y-102242380D01*
X142920595Y-102242380D01*
X144492023Y-102147142D02*
X144444404Y-102194761D01*
X144301547Y-102242380D01*
X144206309Y-102242380D01*
X144063452Y-102194761D01*
X143968214Y-102099523D01*
X143920595Y-102004285D01*
X143872976Y-101813809D01*
X143872976Y-101670952D01*
X143920595Y-101480476D01*
X143968214Y-101385238D01*
X144063452Y-101290000D01*
X144206309Y-101242380D01*
X144301547Y-101242380D01*
X144444404Y-101290000D01*
X144492023Y-101337619D01*
D10*
X46990000Y-94932500D02*
X49212500Y-94932500D01*
D11*
X89434880Y-122561309D02*
X89549166Y-122599404D01*
X89739642Y-122599404D01*
X89815833Y-122561309D01*
X89853928Y-122523214D01*
X89892023Y-122447023D01*
X89892023Y-122370833D01*
X89853928Y-122294642D01*
X89815833Y-122256547D01*
X89739642Y-122218452D01*
X89587261Y-122180357D01*
X89511071Y-122142261D01*
X89472976Y-122104166D01*
X89434880Y-122027976D01*
X89434880Y-121951785D01*
X89472976Y-121875595D01*
X89511071Y-121837500D01*
X89587261Y-121799404D01*
X89777738Y-121799404D01*
X89892023Y-121837500D01*
X90692023Y-122523214D02*
X90653928Y-122561309D01*
X90539642Y-122599404D01*
X90463452Y-122599404D01*
X90349166Y-122561309D01*
X90272976Y-122485119D01*
X90234880Y-122408928D01*
X90196785Y-122256547D01*
X90196785Y-122142261D01*
X90234880Y-121989880D01*
X90272976Y-121913690D01*
X90349166Y-121837500D01*
X90463452Y-121799404D01*
X90539642Y-121799404D01*
X90653928Y-121837500D01*
X90692023Y-121875595D01*
X91415833Y-122599404D02*
X91034880Y-122599404D01*
X91034880Y-121799404D01*
X89892023Y-119297500D02*
X89815833Y-119259404D01*
X89701547Y-119259404D01*
X89587261Y-119297500D01*
X89511071Y-119373690D01*
X89472976Y-119449880D01*
X89434880Y-119602261D01*
X89434880Y-119716547D01*
X89472976Y-119868928D01*
X89511071Y-119945119D01*
X89587261Y-120021309D01*
X89701547Y-120059404D01*
X89777738Y-120059404D01*
X89892023Y-120021309D01*
X89930119Y-119983214D01*
X89930119Y-119716547D01*
X89777738Y-119716547D01*
X90272976Y-120059404D02*
X90272976Y-119259404D01*
X90730119Y-120059404D01*
X90730119Y-119259404D01*
X91111071Y-120059404D02*
X91111071Y-119259404D01*
X91301547Y-119259404D01*
X91415833Y-119297500D01*
X91492023Y-119373690D01*
X91530119Y-119449880D01*
X91568214Y-119602261D01*
X91568214Y-119716547D01*
X91530119Y-119868928D01*
X91492023Y-119945119D01*
X91415833Y-120021309D01*
X91301547Y-120059404D01*
X91111071Y-120059404D01*
X89396785Y-116719404D02*
X89892023Y-116719404D01*
X89625357Y-117024166D01*
X89739642Y-117024166D01*
X89815833Y-117062261D01*
X89853928Y-117100357D01*
X89892023Y-117176547D01*
X89892023Y-117367023D01*
X89853928Y-117443214D01*
X89815833Y-117481309D01*
X89739642Y-117519404D01*
X89511071Y-117519404D01*
X89434880Y-117481309D01*
X89396785Y-117443214D01*
X90120595Y-116719404D02*
X90387261Y-117519404D01*
X90653928Y-116719404D01*
X90844404Y-116719404D02*
X91339642Y-116719404D01*
X91072976Y-117024166D01*
X91187261Y-117024166D01*
X91263452Y-117062261D01*
X91301547Y-117100357D01*
X91339642Y-117176547D01*
X91339642Y-117367023D01*
X91301547Y-117443214D01*
X91263452Y-117481309D01*
X91187261Y-117519404D01*
X90958690Y-117519404D01*
X90882500Y-117481309D01*
X90844404Y-117443214D01*
X89434880Y-114941309D02*
X89549166Y-114979404D01*
X89739642Y-114979404D01*
X89815833Y-114941309D01*
X89853928Y-114903214D01*
X89892023Y-114827023D01*
X89892023Y-114750833D01*
X89853928Y-114674642D01*
X89815833Y-114636547D01*
X89739642Y-114598452D01*
X89587261Y-114560357D01*
X89511071Y-114522261D01*
X89472976Y-114484166D01*
X89434880Y-114407976D01*
X89434880Y-114331785D01*
X89472976Y-114255595D01*
X89511071Y-114217500D01*
X89587261Y-114179404D01*
X89777738Y-114179404D01*
X89892023Y-114217500D01*
X90234880Y-114979404D02*
X90234880Y-114179404D01*
X90425357Y-114179404D01*
X90539642Y-114217500D01*
X90615833Y-114293690D01*
X90653928Y-114369880D01*
X90692023Y-114522261D01*
X90692023Y-114636547D01*
X90653928Y-114788928D01*
X90615833Y-114865119D01*
X90539642Y-114941309D01*
X90425357Y-114979404D01*
X90234880Y-114979404D01*
X90996785Y-114750833D02*
X91377738Y-114750833D01*
X90920595Y-114979404D02*
X91187261Y-114179404D01*
X91453928Y-114979404D01*
D12*
X67202857Y-98146785D02*
X67202857Y-97646785D01*
X67988571Y-97432500D02*
X67988571Y-98146785D01*
X66488571Y-98146785D01*
X66488571Y-97432500D01*
X67917142Y-96861071D02*
X67988571Y-96646785D01*
X67988571Y-96289642D01*
X67917142Y-96146785D01*
X67845714Y-96075357D01*
X67702857Y-96003928D01*
X67560000Y-96003928D01*
X67417142Y-96075357D01*
X67345714Y-96146785D01*
X67274285Y-96289642D01*
X67202857Y-96575357D01*
X67131428Y-96718214D01*
X67060000Y-96789642D01*
X66917142Y-96861071D01*
X66774285Y-96861071D01*
X66631428Y-96789642D01*
X66560000Y-96718214D01*
X66488571Y-96575357D01*
X66488571Y-96218214D01*
X66560000Y-96003928D01*
X67988571Y-95361071D02*
X66488571Y-95361071D01*
X66488571Y-94789642D01*
X66560000Y-94646785D01*
X66631428Y-94575357D01*
X66774285Y-94503928D01*
X66988571Y-94503928D01*
X67131428Y-94575357D01*
X67202857Y-94646785D01*
X67274285Y-94789642D01*
X67274285Y-95361071D01*
X66488571Y-94003928D02*
X66488571Y-93075357D01*
X67060000Y-93575357D01*
X67060000Y-93361071D01*
X67131428Y-93218214D01*
X67202857Y-93146785D01*
X67345714Y-93075357D01*
X67702857Y-93075357D01*
X67845714Y-93146785D01*
X67917142Y-93218214D01*
X67988571Y-93361071D01*
X67988571Y-93789642D01*
X67917142Y-93932500D01*
X67845714Y-94003928D01*
X66631428Y-92503928D02*
X66560000Y-92432500D01*
X66488571Y-92289642D01*
X66488571Y-91932500D01*
X66560000Y-91789642D01*
X66631428Y-91718214D01*
X66774285Y-91646785D01*
X66917142Y-91646785D01*
X67131428Y-91718214D01*
X67988571Y-92575357D01*
X67988571Y-91646785D01*
D13*
X83589880Y-121348095D02*
X84399404Y-121348095D01*
X84494642Y-121300476D01*
X84542261Y-121252857D01*
X84589880Y-121157619D01*
X84589880Y-120967142D01*
X84542261Y-120871904D01*
X84494642Y-120824285D01*
X84399404Y-120776666D01*
X83589880Y-120776666D01*
X84589880Y-120300476D02*
X83589880Y-120300476D01*
X84304166Y-119967142D01*
X83589880Y-119633809D01*
X84589880Y-119633809D01*
X84589880Y-118633809D02*
X84589880Y-119205238D01*
X84589880Y-118919523D02*
X83589880Y-118919523D01*
X83732738Y-119014761D01*
X83827976Y-119110000D01*
X83875595Y-119205238D01*
X83589880Y-118014761D02*
X83589880Y-117919523D01*
X83637500Y-117824285D01*
X83685119Y-117776666D01*
X83780357Y-117729047D01*
X83970833Y-117681428D01*
X84208928Y-117681428D01*
X84399404Y-117729047D01*
X84494642Y-117776666D01*
X84542261Y-117824285D01*
X84589880Y-117919523D01*
X84589880Y-118014761D01*
X84542261Y-118110000D01*
X84494642Y-118157619D01*
X84399404Y-118205238D01*
X84208928Y-118252857D01*
X83970833Y-118252857D01*
X83780357Y-118205238D01*
X83685119Y-118157619D01*
X83637500Y-118110000D01*
X83589880Y-118014761D01*
X83685119Y-117300476D02*
X83637500Y-117252857D01*
X83589880Y-117157619D01*
X83589880Y-116919523D01*
X83637500Y-116824285D01*
X83685119Y-116776666D01*
X83780357Y-116729047D01*
X83875595Y-116729047D01*
X84018452Y-116776666D01*
X84589880Y-117348095D01*
X84589880Y-116729047D01*
X83589880Y-116110000D02*
X83589880Y-116014761D01*
X83637500Y-115919523D01*
X83685119Y-115871904D01*
X83780357Y-115824285D01*
X83970833Y-115776666D01*
X84208928Y-115776666D01*
X84399404Y-115824285D01*
X84494642Y-115871904D01*
X84542261Y-115919523D01*
X84589880Y-116014761D01*
X84589880Y-116110000D01*
X84542261Y-116205238D01*
X84494642Y-116252857D01*
X84399404Y-116300476D01*
X84208928Y-116348095D01*
X83970833Y-116348095D01*
X83780357Y-116300476D01*
X83685119Y-116252857D01*
X83637500Y-116205238D01*
X83589880Y-116110000D01*
X83923214Y-114919523D02*
X84589880Y-114919523D01*
X83542261Y-115157619D02*
X84256547Y-115395714D01*
X84256547Y-114776666D01*
X60166547Y-115339880D02*
X60404642Y-116339880D01*
X60595119Y-115625595D01*
X60785595Y-116339880D01*
X61023690Y-115339880D01*
X61785595Y-116292261D02*
X61690357Y-116339880D01*
X61499880Y-116339880D01*
X61404642Y-116292261D01*
X61357023Y-116197023D01*
X61357023Y-115816071D01*
X61404642Y-115720833D01*
X61499880Y-115673214D01*
X61690357Y-115673214D01*
X61785595Y-115720833D01*
X61833214Y-115816071D01*
X61833214Y-115911309D01*
X61357023Y-116006547D01*
X62261785Y-116339880D02*
X62261785Y-115673214D01*
X62261785Y-115768452D02*
X62309404Y-115720833D01*
X62404642Y-115673214D01*
X62547500Y-115673214D01*
X62642738Y-115720833D01*
X62690357Y-115816071D01*
X62690357Y-116339880D01*
X62690357Y-115816071D02*
X62737976Y-115720833D01*
X62833214Y-115673214D01*
X62976071Y-115673214D01*
X63071309Y-115720833D01*
X63118928Y-115816071D01*
X63118928Y-116339880D01*
X63737976Y-116339880D02*
X63642738Y-116292261D01*
X63595119Y-116244642D01*
X63547500Y-116149404D01*
X63547500Y-115863690D01*
X63595119Y-115768452D01*
X63642738Y-115720833D01*
X63737976Y-115673214D01*
X63880833Y-115673214D01*
X63976071Y-115720833D01*
X64023690Y-115768452D01*
X64071309Y-115863690D01*
X64071309Y-116149404D01*
X64023690Y-116244642D01*
X63976071Y-116292261D01*
X63880833Y-116339880D01*
X63737976Y-116339880D01*
X64452261Y-116292261D02*
X64547500Y-116339880D01*
X64737976Y-116339880D01*
X64833214Y-116292261D01*
X64880833Y-116197023D01*
X64880833Y-116149404D01*
X64833214Y-116054166D01*
X64737976Y-116006547D01*
X64595119Y-116006547D01*
X64499880Y-115958928D01*
X64452261Y-115863690D01*
X64452261Y-115816071D01*
X64499880Y-115720833D01*
X64595119Y-115673214D01*
X64737976Y-115673214D01*
X64833214Y-115720833D01*
X98878333Y-84622142D02*
X98830714Y-84669761D01*
X98687857Y-84717380D01*
X98592619Y-84717380D01*
X98449761Y-84669761D01*
X98354523Y-84574523D01*
X98306904Y-84479285D01*
X98259285Y-84288809D01*
X98259285Y-84145952D01*
X98306904Y-83955476D01*
X98354523Y-83860238D01*
X98449761Y-83765000D01*
X98592619Y-83717380D01*
X98687857Y-83717380D01*
X98830714Y-83765000D01*
X98878333Y-83812619D01*
X99735476Y-84050714D02*
X99735476Y-84717380D01*
X99306904Y-84050714D02*
X99306904Y-84574523D01*
X99354523Y-84669761D01*
X99449761Y-84717380D01*
X99592619Y-84717380D01*
X99687857Y-84669761D01*
X99735476Y-84622142D01*
X100211666Y-84717380D02*
X100211666Y-84050714D01*
X100211666Y-84241190D02*
X100259285Y-84145952D01*
X100306904Y-84098333D01*
X100402142Y-84050714D01*
X100497380Y-84050714D01*
X100830714Y-84717380D02*
X100830714Y-84050714D01*
X100830714Y-84241190D02*
X100878333Y-84145952D01*
X100925952Y-84098333D01*
X101021190Y-84050714D01*
X101116428Y-84050714D01*
X101830714Y-84669761D02*
X101735476Y-84717380D01*
X101545000Y-84717380D01*
X101449761Y-84669761D01*
X101402142Y-84574523D01*
X101402142Y-84193571D01*
X101449761Y-84098333D01*
X101545000Y-84050714D01*
X101735476Y-84050714D01*
X101830714Y-84098333D01*
X101878333Y-84193571D01*
X101878333Y-84288809D01*
X101402142Y-84384047D01*
X102306904Y-84050714D02*
X102306904Y-84717380D01*
X102306904Y-84145952D02*
X102354523Y-84098333D01*
X102449761Y-84050714D01*
X102592619Y-84050714D01*
X102687857Y-84098333D01*
X102735476Y-84193571D01*
X102735476Y-84717380D01*
X103068809Y-84050714D02*
X103449761Y-84050714D01*
X103211666Y-83717380D02*
X103211666Y-84574523D01*
X103259285Y-84669761D01*
X103354523Y-84717380D01*
X103449761Y-84717380D01*
X104402142Y-83717380D02*
X104973571Y-83717380D01*
X104687857Y-84717380D02*
X104687857Y-83717380D01*
X105306904Y-84717380D02*
X105306904Y-84050714D01*
X105306904Y-84241190D02*
X105354523Y-84145952D01*
X105402142Y-84098333D01*
X105497380Y-84050714D01*
X105592619Y-84050714D01*
X106354523Y-84717380D02*
X106354523Y-84193571D01*
X106306904Y-84098333D01*
X106211666Y-84050714D01*
X106021190Y-84050714D01*
X105925952Y-84098333D01*
X106354523Y-84669761D02*
X106259285Y-84717380D01*
X106021190Y-84717380D01*
X105925952Y-84669761D01*
X105878333Y-84574523D01*
X105878333Y-84479285D01*
X105925952Y-84384047D01*
X106021190Y-84336428D01*
X106259285Y-84336428D01*
X106354523Y-84288809D01*
X106830714Y-84050714D02*
X106830714Y-84717380D01*
X106830714Y-84145952D02*
X106878333Y-84098333D01*
X106973571Y-84050714D01*
X107116428Y-84050714D01*
X107211666Y-84098333D01*
X107259285Y-84193571D01*
X107259285Y-84717380D01*
X107687857Y-84669761D02*
X107783095Y-84717380D01*
X107973571Y-84717380D01*
X108068809Y-84669761D01*
X108116428Y-84574523D01*
X108116428Y-84526904D01*
X108068809Y-84431666D01*
X107973571Y-84384047D01*
X107830714Y-84384047D01*
X107735476Y-84336428D01*
X107687857Y-84241190D01*
X107687857Y-84193571D01*
X107735476Y-84098333D01*
X107830714Y-84050714D01*
X107973571Y-84050714D01*
X108068809Y-84098333D01*
X108402142Y-84050714D02*
X108783095Y-84050714D01*
X108545000Y-84717380D02*
X108545000Y-83860238D01*
X108592619Y-83765000D01*
X108687857Y-83717380D01*
X108783095Y-83717380D01*
X109259285Y-84717380D02*
X109164047Y-84669761D01*
X109116428Y-84622142D01*
X109068809Y-84526904D01*
X109068809Y-84241190D01*
X109116428Y-84145952D01*
X109164047Y-84098333D01*
X109259285Y-84050714D01*
X109402142Y-84050714D01*
X109497380Y-84098333D01*
X109545000Y-84145952D01*
X109592619Y-84241190D01*
X109592619Y-84526904D01*
X109545000Y-84622142D01*
X109497380Y-84669761D01*
X109402142Y-84717380D01*
X109259285Y-84717380D01*
X110021190Y-84717380D02*
X110021190Y-84050714D01*
X110021190Y-84241190D02*
X110068809Y-84145952D01*
X110116428Y-84098333D01*
X110211666Y-84050714D01*
X110306904Y-84050714D01*
X110640238Y-84717380D02*
X110640238Y-84050714D01*
X110640238Y-84145952D02*
X110687857Y-84098333D01*
X110783095Y-84050714D01*
X110925952Y-84050714D01*
X111021190Y-84098333D01*
X111068809Y-84193571D01*
X111068809Y-84717380D01*
X111068809Y-84193571D02*
X111116428Y-84098333D01*
X111211666Y-84050714D01*
X111354523Y-84050714D01*
X111449761Y-84098333D01*
X111497380Y-84193571D01*
X111497380Y-84717380D01*
X112354523Y-84669761D02*
X112259285Y-84717380D01*
X112068809Y-84717380D01*
X111973571Y-84669761D01*
X111925952Y-84574523D01*
X111925952Y-84193571D01*
X111973571Y-84098333D01*
X112068809Y-84050714D01*
X112259285Y-84050714D01*
X112354523Y-84098333D01*
X112402142Y-84193571D01*
X112402142Y-84288809D01*
X111925952Y-84384047D01*
X112830714Y-84717380D02*
X112830714Y-84050714D01*
X112830714Y-84241190D02*
X112878333Y-84145952D01*
X112925952Y-84098333D01*
X113021190Y-84050714D01*
X113116428Y-84050714D01*
X113402142Y-84669761D02*
X113497380Y-84717380D01*
X113687857Y-84717380D01*
X113783095Y-84669761D01*
X113830714Y-84574523D01*
X113830714Y-84526904D01*
X113783095Y-84431666D01*
X113687857Y-84384047D01*
X113545000Y-84384047D01*
X113449761Y-84336428D01*
X113402142Y-84241190D01*
X113402142Y-84193571D01*
X113449761Y-84098333D01*
X113545000Y-84050714D01*
X113687857Y-84050714D01*
X113783095Y-84098333D01*
X97902142Y-85891190D02*
X97902142Y-86367380D01*
X97568809Y-85367380D02*
X97902142Y-85891190D01*
X98235476Y-85367380D01*
X98568809Y-86367380D02*
X98568809Y-85367380D01*
X98568809Y-85843571D02*
X99140238Y-85843571D01*
X99140238Y-86367380D02*
X99140238Y-85367380D01*
X99616428Y-86367380D02*
X99616428Y-85367380D01*
X99854523Y-85367380D01*
X99997380Y-85415000D01*
X100092619Y-85510238D01*
X100140238Y-85605476D01*
X100187857Y-85795952D01*
X100187857Y-85938809D01*
X100140238Y-86129285D01*
X100092619Y-86224523D01*
X99997380Y-86319761D01*
X99854523Y-86367380D01*
X99616428Y-86367380D01*
X101187857Y-86272142D02*
X101140238Y-86319761D01*
X100997380Y-86367380D01*
X100902142Y-86367380D01*
X100759285Y-86319761D01*
X100664047Y-86224523D01*
X100616428Y-86129285D01*
X100568809Y-85938809D01*
X100568809Y-85795952D01*
X100616428Y-85605476D01*
X100664047Y-85510238D01*
X100759285Y-85415000D01*
X100902142Y-85367380D01*
X100997380Y-85367380D01*
X101140238Y-85415000D01*
X101187857Y-85462619D01*
X102330714Y-86319761D02*
X102473571Y-86367380D01*
X102711666Y-86367380D01*
X102806904Y-86319761D01*
X102854523Y-86272142D01*
X102902142Y-86176904D01*
X102902142Y-86081666D01*
X102854523Y-85986428D01*
X102806904Y-85938809D01*
X102711666Y-85891190D01*
X102521190Y-85843571D01*
X102425952Y-85795952D01*
X102378333Y-85748333D01*
X102330714Y-85653095D01*
X102330714Y-85557857D01*
X102378333Y-85462619D01*
X102425952Y-85415000D01*
X102521190Y-85367380D01*
X102759285Y-85367380D01*
X102902142Y-85415000D01*
X103902142Y-86272142D02*
X103854523Y-86319761D01*
X103711666Y-86367380D01*
X103616428Y-86367380D01*
X103473571Y-86319761D01*
X103378333Y-86224523D01*
X103330714Y-86129285D01*
X103283095Y-85938809D01*
X103283095Y-85795952D01*
X103330714Y-85605476D01*
X103378333Y-85510238D01*
X103473571Y-85415000D01*
X103616428Y-85367380D01*
X103711666Y-85367380D01*
X103854523Y-85415000D01*
X103902142Y-85462619D01*
X104187857Y-85367380D02*
X104759285Y-85367380D01*
X104473571Y-86367380D02*
X104473571Y-85367380D01*
X105092619Y-85986428D02*
X105854523Y-85986428D01*
X106521190Y-85367380D02*
X106616428Y-85367380D01*
X106711666Y-85415000D01*
X106759285Y-85462619D01*
X106806904Y-85557857D01*
X106854523Y-85748333D01*
X106854523Y-85986428D01*
X106806904Y-86176904D01*
X106759285Y-86272142D01*
X106711666Y-86319761D01*
X106616428Y-86367380D01*
X106521190Y-86367380D01*
X106425952Y-86319761D01*
X106378333Y-86272142D01*
X106330714Y-86176904D01*
X106283095Y-85986428D01*
X106283095Y-85748333D01*
X106330714Y-85557857D01*
X106378333Y-85462619D01*
X106425952Y-85415000D01*
X106521190Y-85367380D01*
X107806904Y-86367380D02*
X107235476Y-86367380D01*
X107521190Y-86367380D02*
X107521190Y-85367380D01*
X107425952Y-85510238D01*
X107330714Y-85605476D01*
X107235476Y-85653095D01*
X108140238Y-85367380D02*
X108759285Y-85367380D01*
X108425952Y-85748333D01*
X108568809Y-85748333D01*
X108664047Y-85795952D01*
X108711666Y-85843571D01*
X108759285Y-85938809D01*
X108759285Y-86176904D01*
X108711666Y-86272142D01*
X108664047Y-86319761D01*
X108568809Y-86367380D01*
X108283095Y-86367380D01*
X108187857Y-86319761D01*
X108140238Y-86272142D01*
X109187857Y-85986428D02*
X109949761Y-85986428D01*
X110616428Y-85367380D02*
X110711666Y-85367380D01*
X110806904Y-85415000D01*
X110854523Y-85462619D01*
X110902142Y-85557857D01*
X110949761Y-85748333D01*
X110949761Y-85986428D01*
X110902142Y-86176904D01*
X110854523Y-86272142D01*
X110806904Y-86319761D01*
X110711666Y-86367380D01*
X110616428Y-86367380D01*
X110521190Y-86319761D01*
X110473571Y-86272142D01*
X110425952Y-86176904D01*
X110378333Y-85986428D01*
X110378333Y-85748333D01*
X110425952Y-85557857D01*
X110473571Y-85462619D01*
X110521190Y-85415000D01*
X110616428Y-85367380D01*
X111568809Y-85367380D02*
X111664047Y-85367380D01*
X111759285Y-85415000D01*
X111806904Y-85462619D01*
X111854523Y-85557857D01*
X111902142Y-85748333D01*
X111902142Y-85986428D01*
X111854523Y-86176904D01*
X111806904Y-86272142D01*
X111759285Y-86319761D01*
X111664047Y-86367380D01*
X111568809Y-86367380D01*
X111473571Y-86319761D01*
X111425952Y-86272142D01*
X111378333Y-86176904D01*
X111330714Y-85986428D01*
X111330714Y-85748333D01*
X111378333Y-85557857D01*
X111425952Y-85462619D01*
X111473571Y-85415000D01*
X111568809Y-85367380D01*
X113664047Y-86272142D02*
X113616428Y-86319761D01*
X113473571Y-86367380D01*
X113378333Y-86367380D01*
X113235476Y-86319761D01*
X113140238Y-86224523D01*
X113092619Y-86129285D01*
X113045000Y-85938809D01*
X113045000Y-85795952D01*
X113092619Y-85605476D01*
X113140238Y-85510238D01*
X113235476Y-85415000D01*
X113378333Y-85367380D01*
X113473571Y-85367380D01*
X113616428Y-85415000D01*
X113664047Y-85462619D01*
X113949761Y-85367380D02*
X114521190Y-85367380D01*
X114235476Y-86367380D02*
X114235476Y-85367380D01*
X141962380Y-112847380D02*
X142152857Y-112847380D01*
X142248095Y-112799761D01*
X142295714Y-112752142D01*
X142390952Y-112609285D01*
X142438571Y-112418809D01*
X142438571Y-112037857D01*
X142390952Y-111942619D01*
X142343333Y-111895000D01*
X142248095Y-111847380D01*
X142057619Y-111847380D01*
X141962380Y-111895000D01*
X141914761Y-111942619D01*
X141867142Y-112037857D01*
X141867142Y-112275952D01*
X141914761Y-112371190D01*
X141962380Y-112418809D01*
X142057619Y-112466428D01*
X142248095Y-112466428D01*
X142343333Y-112418809D01*
X142390952Y-112371190D01*
X142438571Y-112275952D01*
X142724285Y-111847380D02*
X143057619Y-112847380D01*
X143390952Y-111847380D01*
X143676666Y-112561666D02*
X144152857Y-112561666D01*
X143581428Y-112847380D02*
X143914761Y-111847380D01*
X144248095Y-112847380D01*
X145152857Y-112752142D02*
X145105238Y-112799761D01*
X144962380Y-112847380D01*
X144867142Y-112847380D01*
X144724285Y-112799761D01*
X144629047Y-112704523D01*
X144581428Y-112609285D01*
X144533809Y-112418809D01*
X144533809Y-112275952D01*
X144581428Y-112085476D01*
X144629047Y-111990238D01*
X144724285Y-111895000D01*
X144867142Y-111847380D01*
X144962380Y-111847380D01*
X145105238Y-111895000D01*
X145152857Y-111942619D01*
D10*
X117157500Y-94615000D02*
X103187500Y-94615000D01*
X117157500Y-87630000D02*
X117157500Y-94615000D01*
X103187500Y-87630000D02*
X117157500Y-87630000D01*
X95250000Y-94615000D02*
X99695000Y-94615000D01*
X95250000Y-87630000D02*
X95250000Y-94615000D01*
X99695000Y-94615000D02*
X99695000Y-87630000D01*
X103187500Y-94615000D02*
X99695000Y-94615000D01*
X103187500Y-87630000D02*
X103187500Y-94615000D01*
X95250000Y-87630000D02*
X103187500Y-87630000D01*
D13*
X100772500Y-89099880D02*
X100201071Y-89099880D01*
X100486785Y-89099880D02*
X100486785Y-88099880D01*
X100391547Y-88242738D01*
X100296309Y-88337976D01*
X100201071Y-88385595D01*
X101629642Y-88099880D02*
X101439166Y-88099880D01*
X101343928Y-88147500D01*
X101296309Y-88195119D01*
X101201071Y-88337976D01*
X101153452Y-88528452D01*
X101153452Y-88909404D01*
X101201071Y-89004642D01*
X101248690Y-89052261D01*
X101343928Y-89099880D01*
X101534404Y-89099880D01*
X101629642Y-89052261D01*
X101677261Y-89004642D01*
X101724880Y-88909404D01*
X101724880Y-88671309D01*
X101677261Y-88576071D01*
X101629642Y-88528452D01*
X101534404Y-88480833D01*
X101343928Y-88480833D01*
X101248690Y-88528452D01*
X101201071Y-88576071D01*
X101153452Y-88671309D01*
X102105833Y-88814166D02*
X102582023Y-88814166D01*
X102010595Y-89099880D02*
X102343928Y-88099880D01*
X102677261Y-89099880D01*
X100153452Y-89749880D02*
X100772500Y-89749880D01*
X100439166Y-90130833D01*
X100582023Y-90130833D01*
X100677261Y-90178452D01*
X100724880Y-90226071D01*
X100772500Y-90321309D01*
X100772500Y-90559404D01*
X100724880Y-90654642D01*
X100677261Y-90702261D01*
X100582023Y-90749880D01*
X100296309Y-90749880D01*
X100201071Y-90702261D01*
X100153452Y-90654642D01*
X101153452Y-89845119D02*
X101201071Y-89797500D01*
X101296309Y-89749880D01*
X101534404Y-89749880D01*
X101629642Y-89797500D01*
X101677261Y-89845119D01*
X101724880Y-89940357D01*
X101724880Y-90035595D01*
X101677261Y-90178452D01*
X101105833Y-90749880D01*
X101724880Y-90749880D01*
X102105833Y-90464166D02*
X102582023Y-90464166D01*
X102010595Y-90749880D02*
X102343928Y-89749880D01*
X102677261Y-90749880D01*
X100724880Y-91399880D02*
X100248690Y-91399880D01*
X100201071Y-91876071D01*
X100248690Y-91828452D01*
X100343928Y-91780833D01*
X100582023Y-91780833D01*
X100677261Y-91828452D01*
X100724880Y-91876071D01*
X100772500Y-91971309D01*
X100772500Y-92209404D01*
X100724880Y-92304642D01*
X100677261Y-92352261D01*
X100582023Y-92399880D01*
X100343928Y-92399880D01*
X100248690Y-92352261D01*
X100201071Y-92304642D01*
X101391547Y-91399880D02*
X101486785Y-91399880D01*
X101582023Y-91447500D01*
X101629642Y-91495119D01*
X101677261Y-91590357D01*
X101724880Y-91780833D01*
X101724880Y-92018928D01*
X101677261Y-92209404D01*
X101629642Y-92304642D01*
X101582023Y-92352261D01*
X101486785Y-92399880D01*
X101391547Y-92399880D01*
X101296309Y-92352261D01*
X101248690Y-92304642D01*
X101201071Y-92209404D01*
X101153452Y-92018928D01*
X101153452Y-91780833D01*
X101201071Y-91590357D01*
X101248690Y-91495119D01*
X101296309Y-91447500D01*
X101391547Y-91399880D01*
X102105833Y-92114166D02*
X102582023Y-92114166D01*
X102010595Y-92399880D02*
X102343928Y-91399880D01*
X102677261Y-92399880D01*
X100296309Y-94049880D02*
X100486785Y-94049880D01*
X100582023Y-94002261D01*
X100629642Y-93954642D01*
X100724880Y-93811785D01*
X100772500Y-93621309D01*
X100772500Y-93240357D01*
X100724880Y-93145119D01*
X100677261Y-93097500D01*
X100582023Y-93049880D01*
X100391547Y-93049880D01*
X100296309Y-93097500D01*
X100248690Y-93145119D01*
X100201071Y-93240357D01*
X100201071Y-93478452D01*
X100248690Y-93573690D01*
X100296309Y-93621309D01*
X100391547Y-93668928D01*
X100582023Y-93668928D01*
X100677261Y-93621309D01*
X100724880Y-93573690D01*
X100772500Y-93478452D01*
X101677261Y-93049880D02*
X101201071Y-93049880D01*
X101153452Y-93526071D01*
X101201071Y-93478452D01*
X101296309Y-93430833D01*
X101534404Y-93430833D01*
X101629642Y-93478452D01*
X101677261Y-93526071D01*
X101724880Y-93621309D01*
X101724880Y-93859404D01*
X101677261Y-93954642D01*
X101629642Y-94002261D01*
X101534404Y-94049880D01*
X101296309Y-94049880D01*
X101201071Y-94002261D01*
X101153452Y-93954642D01*
X102105833Y-93764166D02*
X102582023Y-93764166D01*
X102010595Y-94049880D02*
X102343928Y-93049880D01*
X102677261Y-94049880D01*
X96184761Y-89099880D02*
X95613333Y-89099880D01*
X95899047Y-89099880D02*
X95899047Y-88099880D01*
X95803809Y-88242738D01*
X95708571Y-88337976D01*
X95613333Y-88385595D01*
X96565714Y-88195119D02*
X96613333Y-88147500D01*
X96708571Y-88099880D01*
X96946666Y-88099880D01*
X97041904Y-88147500D01*
X97089523Y-88195119D01*
X97137142Y-88290357D01*
X97137142Y-88385595D01*
X97089523Y-88528452D01*
X96518095Y-89099880D01*
X97137142Y-89099880D01*
X97756190Y-88099880D02*
X97851428Y-88099880D01*
X97946666Y-88147500D01*
X97994285Y-88195119D01*
X98041904Y-88290357D01*
X98089523Y-88480833D01*
X98089523Y-88718928D01*
X98041904Y-88909404D01*
X97994285Y-89004642D01*
X97946666Y-89052261D01*
X97851428Y-89099880D01*
X97756190Y-89099880D01*
X97660952Y-89052261D01*
X97613333Y-89004642D01*
X97565714Y-88909404D01*
X97518095Y-88718928D01*
X97518095Y-88480833D01*
X97565714Y-88290357D01*
X97613333Y-88195119D01*
X97660952Y-88147500D01*
X97756190Y-88099880D01*
X99089523Y-89099880D02*
X98756190Y-88623690D01*
X98518095Y-89099880D02*
X98518095Y-88099880D01*
X98899047Y-88099880D01*
X98994285Y-88147500D01*
X99041904Y-88195119D01*
X99089523Y-88290357D01*
X99089523Y-88433214D01*
X99041904Y-88528452D01*
X98994285Y-88576071D01*
X98899047Y-88623690D01*
X98518095Y-88623690D01*
X97041904Y-89749880D02*
X96851428Y-89749880D01*
X96756190Y-89797500D01*
X96708571Y-89845119D01*
X96613333Y-89987976D01*
X96565714Y-90178452D01*
X96565714Y-90559404D01*
X96613333Y-90654642D01*
X96660952Y-90702261D01*
X96756190Y-90749880D01*
X96946666Y-90749880D01*
X97041904Y-90702261D01*
X97089523Y-90654642D01*
X97137142Y-90559404D01*
X97137142Y-90321309D01*
X97089523Y-90226071D01*
X97041904Y-90178452D01*
X96946666Y-90130833D01*
X96756190Y-90130833D01*
X96660952Y-90178452D01*
X96613333Y-90226071D01*
X96565714Y-90321309D01*
X97518095Y-89845119D02*
X97565714Y-89797500D01*
X97660952Y-89749880D01*
X97899047Y-89749880D01*
X97994285Y-89797500D01*
X98041904Y-89845119D01*
X98089523Y-89940357D01*
X98089523Y-90035595D01*
X98041904Y-90178452D01*
X97470476Y-90749880D01*
X98089523Y-90749880D01*
X99089523Y-90749880D02*
X98756190Y-90273690D01*
X98518095Y-90749880D02*
X98518095Y-89749880D01*
X98899047Y-89749880D01*
X98994285Y-89797500D01*
X99041904Y-89845119D01*
X99089523Y-89940357D01*
X99089523Y-90083214D01*
X99041904Y-90178452D01*
X98994285Y-90226071D01*
X98899047Y-90273690D01*
X98518095Y-90273690D01*
X96518095Y-91399880D02*
X97137142Y-91399880D01*
X96803809Y-91780833D01*
X96946666Y-91780833D01*
X97041904Y-91828452D01*
X97089523Y-91876071D01*
X97137142Y-91971309D01*
X97137142Y-92209404D01*
X97089523Y-92304642D01*
X97041904Y-92352261D01*
X96946666Y-92399880D01*
X96660952Y-92399880D01*
X96565714Y-92352261D01*
X96518095Y-92304642D01*
X97613333Y-92399880D02*
X97803809Y-92399880D01*
X97899047Y-92352261D01*
X97946666Y-92304642D01*
X98041904Y-92161785D01*
X98089523Y-91971309D01*
X98089523Y-91590357D01*
X98041904Y-91495119D01*
X97994285Y-91447500D01*
X97899047Y-91399880D01*
X97708571Y-91399880D01*
X97613333Y-91447500D01*
X97565714Y-91495119D01*
X97518095Y-91590357D01*
X97518095Y-91828452D01*
X97565714Y-91923690D01*
X97613333Y-91971309D01*
X97708571Y-92018928D01*
X97899047Y-92018928D01*
X97994285Y-91971309D01*
X98041904Y-91923690D01*
X98089523Y-91828452D01*
X99089523Y-92399880D02*
X98756190Y-91923690D01*
X98518095Y-92399880D02*
X98518095Y-91399880D01*
X98899047Y-91399880D01*
X98994285Y-91447500D01*
X99041904Y-91495119D01*
X99089523Y-91590357D01*
X99089523Y-91733214D01*
X99041904Y-91828452D01*
X98994285Y-91876071D01*
X98899047Y-91923690D01*
X98518095Y-91923690D01*
X96565714Y-93145119D02*
X96613333Y-93097500D01*
X96708571Y-93049880D01*
X96946666Y-93049880D01*
X97041904Y-93097500D01*
X97089523Y-93145119D01*
X97137142Y-93240357D01*
X97137142Y-93335595D01*
X97089523Y-93478452D01*
X96518095Y-94049880D01*
X97137142Y-94049880D01*
X97518095Y-93145119D02*
X97565714Y-93097500D01*
X97660952Y-93049880D01*
X97899047Y-93049880D01*
X97994285Y-93097500D01*
X98041904Y-93145119D01*
X98089523Y-93240357D01*
X98089523Y-93335595D01*
X98041904Y-93478452D01*
X97470476Y-94049880D01*
X98089523Y-94049880D01*
X99089523Y-94049880D02*
X98756190Y-93573690D01*
X98518095Y-94049880D02*
X98518095Y-93049880D01*
X98899047Y-93049880D01*
X98994285Y-93097500D01*
X99041904Y-93145119D01*
X99089523Y-93240357D01*
X99089523Y-93383214D01*
X99041904Y-93478452D01*
X98994285Y-93526071D01*
X98899047Y-93573690D01*
X98518095Y-93573690D01*
X104158095Y-89099880D02*
X104158095Y-88433214D01*
X104158095Y-88623690D02*
X104205714Y-88528452D01*
X104253333Y-88480833D01*
X104348571Y-88433214D01*
X104443809Y-88433214D01*
X105158095Y-89052261D02*
X105062857Y-89099880D01*
X104872380Y-89099880D01*
X104777142Y-89052261D01*
X104729523Y-88957023D01*
X104729523Y-88576071D01*
X104777142Y-88480833D01*
X104872380Y-88433214D01*
X105062857Y-88433214D01*
X105158095Y-88480833D01*
X105205714Y-88576071D01*
X105205714Y-88671309D01*
X104729523Y-88766547D01*
X105634285Y-89099880D02*
X105634285Y-88433214D01*
X105634285Y-88528452D02*
X105681904Y-88480833D01*
X105777142Y-88433214D01*
X105920000Y-88433214D01*
X106015238Y-88480833D01*
X106062857Y-88576071D01*
X106062857Y-89099880D01*
X106062857Y-88576071D02*
X106110476Y-88480833D01*
X106205714Y-88433214D01*
X106348571Y-88433214D01*
X106443809Y-88480833D01*
X106491428Y-88576071D01*
X106491428Y-89099880D01*
X107110476Y-89099880D02*
X107015238Y-89052261D01*
X106967619Y-89004642D01*
X106920000Y-88909404D01*
X106920000Y-88623690D01*
X106967619Y-88528452D01*
X107015238Y-88480833D01*
X107110476Y-88433214D01*
X107253333Y-88433214D01*
X107348571Y-88480833D01*
X107396190Y-88528452D01*
X107443809Y-88623690D01*
X107443809Y-88909404D01*
X107396190Y-89004642D01*
X107348571Y-89052261D01*
X107253333Y-89099880D01*
X107110476Y-89099880D01*
X107777142Y-88433214D02*
X108015238Y-89099880D01*
X108253333Y-88433214D01*
X109015238Y-89052261D02*
X108920000Y-89099880D01*
X108729523Y-89099880D01*
X108634285Y-89052261D01*
X108586666Y-88957023D01*
X108586666Y-88576071D01*
X108634285Y-88480833D01*
X108729523Y-88433214D01*
X108920000Y-88433214D01*
X109015238Y-88480833D01*
X109062857Y-88576071D01*
X109062857Y-88671309D01*
X108586666Y-88766547D01*
X110253333Y-88433214D02*
X110253333Y-89290357D01*
X110205714Y-89385595D01*
X110110476Y-89433214D01*
X110062857Y-89433214D01*
X110253333Y-88099880D02*
X110205714Y-88147500D01*
X110253333Y-88195119D01*
X110300952Y-88147500D01*
X110253333Y-88099880D01*
X110253333Y-88195119D01*
X111158095Y-88433214D02*
X111158095Y-89099880D01*
X110729523Y-88433214D02*
X110729523Y-88957023D01*
X110777142Y-89052261D01*
X110872380Y-89099880D01*
X111015238Y-89099880D01*
X111110476Y-89052261D01*
X111158095Y-89004642D01*
X111634285Y-89099880D02*
X111634285Y-88433214D01*
X111634285Y-88528452D02*
X111681904Y-88480833D01*
X111777142Y-88433214D01*
X111920000Y-88433214D01*
X112015238Y-88480833D01*
X112062857Y-88576071D01*
X112062857Y-89099880D01*
X112062857Y-88576071D02*
X112110476Y-88480833D01*
X112205714Y-88433214D01*
X112348571Y-88433214D01*
X112443809Y-88480833D01*
X112491428Y-88576071D01*
X112491428Y-89099880D01*
X112967619Y-88433214D02*
X112967619Y-89433214D01*
X112967619Y-88480833D02*
X113062857Y-88433214D01*
X113253333Y-88433214D01*
X113348571Y-88480833D01*
X113396190Y-88528452D01*
X113443809Y-88623690D01*
X113443809Y-88909404D01*
X113396190Y-89004642D01*
X113348571Y-89052261D01*
X113253333Y-89099880D01*
X113062857Y-89099880D01*
X112967619Y-89052261D01*
X114253333Y-89052261D02*
X114158095Y-89099880D01*
X113967619Y-89099880D01*
X113872380Y-89052261D01*
X113824761Y-88957023D01*
X113824761Y-88576071D01*
X113872380Y-88480833D01*
X113967619Y-88433214D01*
X114158095Y-88433214D01*
X114253333Y-88480833D01*
X114300952Y-88576071D01*
X114300952Y-88671309D01*
X113824761Y-88766547D01*
X114729523Y-89099880D02*
X114729523Y-88433214D01*
X114729523Y-88623690D02*
X114777142Y-88528452D01*
X114824761Y-88480833D01*
X114920000Y-88433214D01*
X115015238Y-88433214D01*
X104158095Y-90749880D02*
X104158095Y-90083214D01*
X104158095Y-89749880D02*
X104110476Y-89797500D01*
X104158095Y-89845119D01*
X104205714Y-89797500D01*
X104158095Y-89749880D01*
X104158095Y-89845119D01*
X104491428Y-90083214D02*
X104872380Y-90083214D01*
X104634285Y-90749880D02*
X104634285Y-89892738D01*
X104681904Y-89797500D01*
X104777142Y-89749880D01*
X104872380Y-89749880D01*
X106539047Y-90654642D02*
X106491428Y-90702261D01*
X106348571Y-90749880D01*
X106253333Y-90749880D01*
X106110476Y-90702261D01*
X106015238Y-90607023D01*
X105967619Y-90511785D01*
X105920000Y-90321309D01*
X105920000Y-90178452D01*
X105967619Y-89987976D01*
X106015238Y-89892738D01*
X106110476Y-89797500D01*
X106253333Y-89749880D01*
X106348571Y-89749880D01*
X106491428Y-89797500D01*
X106539047Y-89845119D01*
X106824761Y-89749880D02*
X107396190Y-89749880D01*
X107110476Y-90749880D02*
X107110476Y-89749880D01*
X108443809Y-90702261D02*
X108539047Y-90749880D01*
X108729523Y-90749880D01*
X108824761Y-90702261D01*
X108872380Y-90607023D01*
X108872380Y-90559404D01*
X108824761Y-90464166D01*
X108729523Y-90416547D01*
X108586666Y-90416547D01*
X108491428Y-90368928D01*
X108443809Y-90273690D01*
X108443809Y-90226071D01*
X108491428Y-90130833D01*
X108586666Y-90083214D01*
X108729523Y-90083214D01*
X108824761Y-90130833D01*
X109681904Y-90702261D02*
X109586666Y-90749880D01*
X109396190Y-90749880D01*
X109300952Y-90702261D01*
X109253333Y-90607023D01*
X109253333Y-90226071D01*
X109300952Y-90130833D01*
X109396190Y-90083214D01*
X109586666Y-90083214D01*
X109681904Y-90130833D01*
X109729523Y-90226071D01*
X109729523Y-90321309D01*
X109253333Y-90416547D01*
X110158095Y-90083214D02*
X110158095Y-90749880D01*
X110158095Y-90178452D02*
X110205714Y-90130833D01*
X110300952Y-90083214D01*
X110443809Y-90083214D01*
X110539047Y-90130833D01*
X110586666Y-90226071D01*
X110586666Y-90749880D01*
X111015238Y-90702261D02*
X111110476Y-90749880D01*
X111300952Y-90749880D01*
X111396190Y-90702261D01*
X111443809Y-90607023D01*
X111443809Y-90559404D01*
X111396190Y-90464166D01*
X111300952Y-90416547D01*
X111158095Y-90416547D01*
X111062857Y-90368928D01*
X111015238Y-90273690D01*
X111015238Y-90226071D01*
X111062857Y-90130833D01*
X111158095Y-90083214D01*
X111300952Y-90083214D01*
X111396190Y-90130833D01*
X112015238Y-90749880D02*
X111920000Y-90702261D01*
X111872380Y-90654642D01*
X111824761Y-90559404D01*
X111824761Y-90273690D01*
X111872380Y-90178452D01*
X111920000Y-90130833D01*
X112015238Y-90083214D01*
X112158095Y-90083214D01*
X112253333Y-90130833D01*
X112300952Y-90178452D01*
X112348571Y-90273690D01*
X112348571Y-90559404D01*
X112300952Y-90654642D01*
X112253333Y-90702261D01*
X112158095Y-90749880D01*
X112015238Y-90749880D01*
X112777142Y-90749880D02*
X112777142Y-90083214D01*
X112777142Y-90273690D02*
X112824761Y-90178452D01*
X112872380Y-90130833D01*
X112967619Y-90083214D01*
X113062857Y-90083214D01*
X114158095Y-90749880D02*
X114158095Y-89749880D01*
X114586666Y-90749880D02*
X114586666Y-90226071D01*
X114539047Y-90130833D01*
X114443809Y-90083214D01*
X114300952Y-90083214D01*
X114205714Y-90130833D01*
X114158095Y-90178452D01*
X115491428Y-90749880D02*
X115491428Y-90226071D01*
X115443809Y-90130833D01*
X115348571Y-90083214D01*
X115158095Y-90083214D01*
X115062857Y-90130833D01*
X115491428Y-90702261D02*
X115396190Y-90749880D01*
X115158095Y-90749880D01*
X115062857Y-90702261D01*
X115015238Y-90607023D01*
X115015238Y-90511785D01*
X115062857Y-90416547D01*
X115158095Y-90368928D01*
X115396190Y-90368928D01*
X115491428Y-90321309D01*
X115920000Y-90702261D02*
X116015238Y-90749880D01*
X116205714Y-90749880D01*
X116300952Y-90702261D01*
X116348571Y-90607023D01*
X116348571Y-90559404D01*
X116300952Y-90464166D01*
X116205714Y-90416547D01*
X116062857Y-90416547D01*
X115967619Y-90368928D01*
X115920000Y-90273690D01*
X115920000Y-90226071D01*
X115967619Y-90130833D01*
X116062857Y-90083214D01*
X116205714Y-90083214D01*
X116300952Y-90130833D01*
X104158095Y-92399880D02*
X104158095Y-91399880D01*
X104158095Y-91780833D02*
X104253333Y-91733214D01*
X104443809Y-91733214D01*
X104539047Y-91780833D01*
X104586666Y-91828452D01*
X104634285Y-91923690D01*
X104634285Y-92209404D01*
X104586666Y-92304642D01*
X104539047Y-92352261D01*
X104443809Y-92399880D01*
X104253333Y-92399880D01*
X104158095Y-92352261D01*
X105491428Y-91733214D02*
X105491428Y-92399880D01*
X105062857Y-91733214D02*
X105062857Y-92257023D01*
X105110476Y-92352261D01*
X105205714Y-92399880D01*
X105348571Y-92399880D01*
X105443809Y-92352261D01*
X105491428Y-92304642D01*
X105967619Y-92399880D02*
X105967619Y-91733214D01*
X105967619Y-91399880D02*
X105920000Y-91447500D01*
X105967619Y-91495119D01*
X106015238Y-91447500D01*
X105967619Y-91399880D01*
X105967619Y-91495119D01*
X106586666Y-92399880D02*
X106491428Y-92352261D01*
X106443809Y-92257023D01*
X106443809Y-91399880D01*
X106824761Y-91733214D02*
X107205714Y-91733214D01*
X106967619Y-91399880D02*
X106967619Y-92257023D01*
X107015238Y-92352261D01*
X107110476Y-92399880D01*
X107205714Y-92399880D01*
X107539047Y-92018928D02*
X108300952Y-92018928D01*
X108777142Y-92399880D02*
X108777142Y-91733214D01*
X108777142Y-91399880D02*
X108729523Y-91447500D01*
X108777142Y-91495119D01*
X108824761Y-91447500D01*
X108777142Y-91399880D01*
X108777142Y-91495119D01*
X109253333Y-91733214D02*
X109253333Y-92399880D01*
X109253333Y-91828452D02*
X109300952Y-91780833D01*
X109396190Y-91733214D01*
X109539047Y-91733214D01*
X109634285Y-91780833D01*
X109681904Y-91876071D01*
X109681904Y-92399880D01*
X110920000Y-92399880D02*
X110920000Y-91399880D01*
X110920000Y-91780833D02*
X111015238Y-91733214D01*
X111205714Y-91733214D01*
X111300952Y-91780833D01*
X111348571Y-91828452D01*
X111396190Y-91923690D01*
X111396190Y-92209404D01*
X111348571Y-92304642D01*
X111300952Y-92352261D01*
X111205714Y-92399880D01*
X111015238Y-92399880D01*
X110920000Y-92352261D01*
X112253333Y-91733214D02*
X112253333Y-92399880D01*
X111824761Y-91733214D02*
X111824761Y-92257023D01*
X111872380Y-92352261D01*
X111967619Y-92399880D01*
X112110476Y-92399880D01*
X112205714Y-92352261D01*
X112253333Y-92304642D01*
X112729523Y-92399880D02*
X112729523Y-91733214D01*
X112729523Y-91923690D02*
X112777142Y-91828452D01*
X112824761Y-91780833D01*
X112920000Y-91733214D01*
X113015238Y-91733214D01*
X113777142Y-92399880D02*
X113777142Y-91399880D01*
X113777142Y-92352261D02*
X113681904Y-92399880D01*
X113491428Y-92399880D01*
X113396190Y-92352261D01*
X113348571Y-92304642D01*
X113300952Y-92209404D01*
X113300952Y-91923690D01*
X113348571Y-91828452D01*
X113396190Y-91780833D01*
X113491428Y-91733214D01*
X113681904Y-91733214D01*
X113777142Y-91780833D01*
X114634285Y-92352261D02*
X114539047Y-92399880D01*
X114348571Y-92399880D01*
X114253333Y-92352261D01*
X114205714Y-92257023D01*
X114205714Y-91876071D01*
X114253333Y-91780833D01*
X114348571Y-91733214D01*
X114539047Y-91733214D01*
X114634285Y-91780833D01*
X114681904Y-91876071D01*
X114681904Y-91971309D01*
X114205714Y-92066547D01*
X115110476Y-91733214D02*
X115110476Y-92399880D01*
X115110476Y-91828452D02*
X115158095Y-91780833D01*
X115253333Y-91733214D01*
X115396190Y-91733214D01*
X115491428Y-91780833D01*
X115539047Y-91876071D01*
X115539047Y-92399880D01*
X104158095Y-94049880D02*
X104158095Y-93383214D01*
X104158095Y-93573690D02*
X104205714Y-93478452D01*
X104253333Y-93430833D01*
X104348571Y-93383214D01*
X104443809Y-93383214D01*
X105158095Y-94002261D02*
X105062857Y-94049880D01*
X104872380Y-94049880D01*
X104777142Y-94002261D01*
X104729523Y-93907023D01*
X104729523Y-93526071D01*
X104777142Y-93430833D01*
X104872380Y-93383214D01*
X105062857Y-93383214D01*
X105158095Y-93430833D01*
X105205714Y-93526071D01*
X105205714Y-93621309D01*
X104729523Y-93716547D01*
X105586666Y-94002261D02*
X105681904Y-94049880D01*
X105872380Y-94049880D01*
X105967619Y-94002261D01*
X106015238Y-93907023D01*
X106015238Y-93859404D01*
X105967619Y-93764166D01*
X105872380Y-93716547D01*
X105729523Y-93716547D01*
X105634285Y-93668928D01*
X105586666Y-93573690D01*
X105586666Y-93526071D01*
X105634285Y-93430833D01*
X105729523Y-93383214D01*
X105872380Y-93383214D01*
X105967619Y-93430833D01*
X106443809Y-94049880D02*
X106443809Y-93383214D01*
X106443809Y-93049880D02*
X106396190Y-93097500D01*
X106443809Y-93145119D01*
X106491428Y-93097500D01*
X106443809Y-93049880D01*
X106443809Y-93145119D01*
X106872380Y-94002261D02*
X106967619Y-94049880D01*
X107158095Y-94049880D01*
X107253333Y-94002261D01*
X107300952Y-93907023D01*
X107300952Y-93859404D01*
X107253333Y-93764166D01*
X107158095Y-93716547D01*
X107015238Y-93716547D01*
X106920000Y-93668928D01*
X106872380Y-93573690D01*
X106872380Y-93526071D01*
X106920000Y-93430833D01*
X107015238Y-93383214D01*
X107158095Y-93383214D01*
X107253333Y-93430833D01*
X107586666Y-93383214D02*
X107967619Y-93383214D01*
X107729523Y-93049880D02*
X107729523Y-93907023D01*
X107777142Y-94002261D01*
X107872380Y-94049880D01*
X107967619Y-94049880D01*
X108443809Y-94049880D02*
X108348571Y-94002261D01*
X108300952Y-93954642D01*
X108253333Y-93859404D01*
X108253333Y-93573690D01*
X108300952Y-93478452D01*
X108348571Y-93430833D01*
X108443809Y-93383214D01*
X108586666Y-93383214D01*
X108681904Y-93430833D01*
X108729523Y-93478452D01*
X108777142Y-93573690D01*
X108777142Y-93859404D01*
X108729523Y-93954642D01*
X108681904Y-94002261D01*
X108586666Y-94049880D01*
X108443809Y-94049880D01*
X109205714Y-94049880D02*
X109205714Y-93383214D01*
X109205714Y-93573690D02*
X109253333Y-93478452D01*
X109300952Y-93430833D01*
X109396190Y-93383214D01*
X109491428Y-93383214D01*
D10*
%TO.C,J14*%
X60607500Y-117370000D02*
X64487500Y-117370000D01*
X65657500Y-120490000D02*
X64607500Y-120490000D01*
X65657500Y-119340000D02*
X65657500Y-120490000D01*
X60487500Y-120490000D02*
X60487500Y-121480000D01*
X59437500Y-120490000D02*
X60487500Y-120490000D01*
X59437500Y-119340000D02*
X59437500Y-120490000D01*
%TO.C,R14*%
X109764564Y-81697500D02*
X109310436Y-81697500D01*
X109764564Y-80227500D02*
X109310436Y-80227500D01*
%TO.C,D6*%
X107045000Y-80002500D02*
X104360000Y-80002500D01*
X104360000Y-80002500D02*
X104360000Y-81922500D01*
X104360000Y-81922500D02*
X107045000Y-81922500D01*
%TO.C,TP5*%
X92940000Y-105092500D02*
G75*
G03*
X92940000Y-105092500I-1500000J0D01*
G01*
%TO.C,TP4*%
X92940000Y-84772500D02*
G75*
G03*
X92940000Y-84772500I-1500000J0D01*
G01*
%TO.C,TP3*%
X92940000Y-89852500D02*
G75*
G03*
X92940000Y-89852500I-1500000J0D01*
G01*
%TO.C,TP2*%
X92940000Y-94932500D02*
G75*
G03*
X92940000Y-94932500I-1500000J0D01*
G01*
%TO.C,TP1*%
X92940000Y-100012500D02*
G75*
G03*
X92940000Y-100012500I-1500000J0D01*
G01*
%TO.C,J11*%
X142300000Y-93405000D02*
X140970000Y-93405000D01*
X142300000Y-92075000D02*
X142300000Y-93405000D01*
X142300000Y-90805000D02*
X139640000Y-90805000D01*
X139640000Y-90805000D02*
X139640000Y-88205000D01*
X142300000Y-90805000D02*
X142300000Y-88205000D01*
X142300000Y-88205000D02*
X139640000Y-88205000D01*
%TO.C,J10*%
X122555000Y-127952500D02*
X122555000Y-126047500D01*
X128905000Y-127952500D02*
X128905000Y-126047500D01*
X122555000Y-127952500D02*
X128905000Y-127952500D01*
X131762500Y-113982500D02*
X125730000Y-113982500D01*
X131762500Y-125095000D02*
X131762500Y-113982500D01*
X130175000Y-125095000D02*
X131762500Y-125095000D01*
X130175000Y-126047500D02*
X130175000Y-125095000D01*
X121285000Y-126047500D02*
X130175000Y-126047500D01*
X121285000Y-125095000D02*
X119697500Y-125095000D01*
X121285000Y-126047500D02*
X121285000Y-125095000D01*
X119697500Y-113982500D02*
X119697500Y-125095000D01*
X125730000Y-113982500D02*
X119697500Y-113982500D01*
%TO.C,J8*%
X109855000Y-127952500D02*
X109855000Y-126047500D01*
X116205000Y-127952500D02*
X116205000Y-126047500D01*
X109855000Y-127952500D02*
X116205000Y-127952500D01*
X119062500Y-113982500D02*
X113030000Y-113982500D01*
X119062500Y-125095000D02*
X119062500Y-113982500D01*
X117475000Y-125095000D02*
X119062500Y-125095000D01*
X117475000Y-126047500D02*
X117475000Y-125095000D01*
X108585000Y-126047500D02*
X117475000Y-126047500D01*
X108585000Y-125095000D02*
X106997500Y-125095000D01*
X108585000Y-126047500D02*
X108585000Y-125095000D01*
X106997500Y-113982500D02*
X106997500Y-125095000D01*
X113030000Y-113982500D02*
X106997500Y-113982500D01*
%TO.C,J9*%
X97155000Y-127952500D02*
X97155000Y-126047500D01*
X103505000Y-127952500D02*
X103505000Y-126047500D01*
X97155000Y-127952500D02*
X103505000Y-127952500D01*
X106362500Y-113982500D02*
X100330000Y-113982500D01*
X106362500Y-125095000D02*
X106362500Y-113982500D01*
X104775000Y-125095000D02*
X106362500Y-125095000D01*
X104775000Y-126047500D02*
X104775000Y-125095000D01*
X95885000Y-126047500D02*
X104775000Y-126047500D01*
X95885000Y-125095000D02*
X94297500Y-125095000D01*
X95885000Y-126047500D02*
X95885000Y-125095000D01*
X94297500Y-113982500D02*
X94297500Y-125095000D01*
X100330000Y-113982500D02*
X94297500Y-113982500D01*
%TO.C,J13*%
X134620000Y-127952500D02*
X143510000Y-127952500D01*
X134620000Y-113982500D02*
X134620000Y-127952500D01*
X143510000Y-113982500D02*
X134620000Y-113982500D01*
X143510000Y-127952500D02*
X143510000Y-113982500D01*
%TO.C,D1*%
X138597500Y-87380000D02*
X136357500Y-87380000D01*
X138597500Y-87620000D02*
X136357500Y-87620000D01*
X138597500Y-87500000D02*
X136357500Y-87500000D01*
X137477500Y-91670000D02*
X137477500Y-91020000D01*
X137477500Y-86130000D02*
X137477500Y-86780000D01*
X138597500Y-91020000D02*
X138597500Y-86780000D01*
X136357500Y-91020000D02*
X138597500Y-91020000D01*
X136357500Y-86780000D02*
X136357500Y-91020000D01*
X138597500Y-86780000D02*
X136357500Y-86780000D01*
%TO.C,R13*%
X129314564Y-98785000D02*
X127860436Y-98785000D01*
X129314564Y-100605000D02*
X127860436Y-100605000D01*
%TO.C,R12*%
X129314564Y-101325000D02*
X127860436Y-101325000D01*
X129314564Y-103145000D02*
X127860436Y-103145000D01*
%TO.C,R11*%
X129314564Y-103865000D02*
X127860436Y-103865000D01*
X129314564Y-105685000D02*
X127860436Y-105685000D01*
%TO.C,R10*%
X129314564Y-106405000D02*
X127860436Y-106405000D01*
X129314564Y-108225000D02*
X127860436Y-108225000D01*
%TO.C,R9*%
X116614564Y-98785000D02*
X115160436Y-98785000D01*
X116614564Y-100605000D02*
X115160436Y-100605000D01*
%TO.C,R8*%
X116614564Y-101325000D02*
X115160436Y-101325000D01*
X116614564Y-103145000D02*
X115160436Y-103145000D01*
%TO.C,R7*%
X116614564Y-103865000D02*
X115160436Y-103865000D01*
X116614564Y-105685000D02*
X115160436Y-105685000D01*
%TO.C,R6*%
X116614564Y-106405000D02*
X115160436Y-106405000D01*
X116614564Y-108225000D02*
X115160436Y-108225000D01*
%TO.C,J6*%
X123130000Y-98365000D02*
X124460000Y-98365000D01*
X123130000Y-99695000D02*
X123130000Y-98365000D01*
X123130000Y-100965000D02*
X125790000Y-100965000D01*
X125790000Y-100965000D02*
X125790000Y-108645000D01*
X123130000Y-100965000D02*
X123130000Y-108645000D01*
X123130000Y-108645000D02*
X125790000Y-108645000D01*
%TO.C,J5*%
X110430000Y-98365000D02*
X111760000Y-98365000D01*
X110430000Y-99695000D02*
X110430000Y-98365000D01*
X110430000Y-100965000D02*
X113090000Y-100965000D01*
X113090000Y-100965000D02*
X113090000Y-108645000D01*
X110430000Y-100965000D02*
X110430000Y-108645000D01*
X110430000Y-108645000D02*
X113090000Y-108645000D01*
%TO.C,J3*%
X120590000Y-98365000D02*
X121920000Y-98365000D01*
X120590000Y-99695000D02*
X120590000Y-98365000D01*
X120590000Y-100965000D02*
X123250000Y-100965000D01*
X123250000Y-100965000D02*
X123250000Y-108645000D01*
X120590000Y-100965000D02*
X120590000Y-108645000D01*
X120590000Y-108645000D02*
X123250000Y-108645000D01*
%TO.C,J2*%
X107890000Y-98365000D02*
X109220000Y-98365000D01*
X107890000Y-99695000D02*
X107890000Y-98365000D01*
X107890000Y-100965000D02*
X110550000Y-100965000D01*
X110550000Y-100965000D02*
X110550000Y-108645000D01*
X107890000Y-100965000D02*
X107890000Y-108645000D01*
X107890000Y-108645000D02*
X110550000Y-108645000D01*
%TO.C,R5*%
X103914564Y-98785000D02*
X102460436Y-98785000D01*
X103914564Y-100605000D02*
X102460436Y-100605000D01*
%TO.C,R4*%
X103914564Y-101325000D02*
X102460436Y-101325000D01*
X103914564Y-103145000D02*
X102460436Y-103145000D01*
%TO.C,R3*%
X103914564Y-103865000D02*
X102460436Y-103865000D01*
X103914564Y-105685000D02*
X102460436Y-105685000D01*
%TO.C,R2*%
X103914564Y-106405000D02*
X102460436Y-106405000D01*
X103914564Y-108225000D02*
X102460436Y-108225000D01*
%TO.C,J4*%
X97730000Y-98365000D02*
X99060000Y-98365000D01*
X97730000Y-99695000D02*
X97730000Y-98365000D01*
X97730000Y-100965000D02*
X100390000Y-100965000D01*
X100390000Y-100965000D02*
X100390000Y-108645000D01*
X97730000Y-100965000D02*
X97730000Y-108645000D01*
X97730000Y-108645000D02*
X100390000Y-108645000D01*
%TO.C,J1*%
X95190000Y-98365000D02*
X96520000Y-98365000D01*
X95190000Y-99695000D02*
X95190000Y-98365000D01*
X95190000Y-100965000D02*
X97850000Y-100965000D01*
X97850000Y-100965000D02*
X97850000Y-108645000D01*
X95190000Y-100965000D02*
X95190000Y-108645000D01*
X95190000Y-108645000D02*
X97850000Y-108645000D01*
%TO.C,R1*%
X131987936Y-84180000D02*
X133442064Y-84180000D01*
X131987936Y-86000000D02*
X133442064Y-86000000D01*
D13*
%TO.C,J16*%
X82132500Y-114785000D02*
X82132500Y-120285000D01*
X69632500Y-114785000D02*
X69632500Y-120285000D01*
X82132500Y-123285000D02*
X82132500Y-128035000D01*
X82132500Y-128035000D02*
X69632500Y-128035000D01*
X69632500Y-128035000D02*
X69632500Y-123285000D01*
X82132500Y-114785000D02*
X82132500Y-112785000D01*
X82132500Y-112785000D02*
X81132500Y-112785000D01*
X81132500Y-112785000D02*
X81132500Y-114785000D01*
X81132500Y-114785000D02*
X70632500Y-114785000D01*
X70632500Y-114785000D02*
X70632500Y-112785000D01*
X69632500Y-114785000D02*
X69632500Y-112785000D01*
X69632500Y-112785000D02*
X70632500Y-112785000D01*
D10*
%TO.C,R18*%
X121692936Y-109755000D02*
X122147064Y-109755000D01*
X121692936Y-111225000D02*
X122147064Y-111225000D01*
%TO.C,U1*%
X48577500Y-110172500D02*
X56197500Y-110172500D01*
X48577500Y-79692500D02*
X48577500Y-110172500D01*
X56197500Y-79692500D02*
X48577500Y-79692500D01*
X85407500Y-110172500D02*
X81597500Y-110172500D01*
X87947500Y-107632500D02*
X85407500Y-110172500D01*
X87947500Y-94932500D02*
X87947500Y-107632500D01*
X85407500Y-79692500D02*
X84137500Y-79692500D01*
X87947500Y-82232500D02*
X85407500Y-79692500D01*
X87947500Y-82232500D02*
X87947500Y-94932500D01*
X81597500Y-79692500D02*
X84137500Y-79692500D01*
%TO.C,D5*%
X86642500Y-83622500D02*
X85442500Y-83622500D01*
X86642500Y-85472500D02*
X86642500Y-83622500D01*
X85442500Y-85472500D02*
X85442500Y-83622500D01*
%TO.C,U2*%
X124322500Y-90697500D02*
X124552500Y-90697500D01*
X129042500Y-90697500D02*
X128812500Y-90697500D01*
X129042500Y-90697500D02*
X129042500Y-93417500D01*
X129042500Y-93417500D02*
X127732500Y-93417500D01*
X128812500Y-89557500D02*
X128812500Y-90697500D01*
X124322500Y-93417500D02*
X124322500Y-90697500D01*
X125632500Y-93417500D02*
X124322500Y-93417500D01*
%TO.C,R29*%
X138647500Y-108040436D02*
X138647500Y-108494564D01*
X140117500Y-108040436D02*
X140117500Y-108494564D01*
%TO.C,R28*%
X142022500Y-108040436D02*
X142022500Y-108494564D01*
X140552500Y-108040436D02*
X140552500Y-108494564D01*
%TO.C,R27*%
X135980436Y-105827500D02*
X136434564Y-105827500D01*
X135980436Y-104357500D02*
X136434564Y-104357500D01*
%TO.C,R26*%
X135980436Y-103922500D02*
X136434564Y-103922500D01*
X135980436Y-102452500D02*
X136434564Y-102452500D01*
%TO.C,R25*%
X136434564Y-106262500D02*
X135980436Y-106262500D01*
X136434564Y-107732500D02*
X135980436Y-107732500D01*
%TO.C,R24*%
X127735000Y-111215436D02*
X127735000Y-111669564D01*
X126265000Y-111215436D02*
X126265000Y-111669564D01*
%TO.C,R23*%
X124360000Y-111215436D02*
X124360000Y-111669564D01*
X125830000Y-111215436D02*
X125830000Y-111669564D01*
%TO.C,R22*%
X115035000Y-111215436D02*
X115035000Y-111669564D01*
X113565000Y-111215436D02*
X113565000Y-111669564D01*
%TO.C,R21*%
X111660000Y-111215436D02*
X111660000Y-111669564D01*
X113130000Y-111215436D02*
X113130000Y-111669564D01*
%TO.C,R20*%
X102335000Y-111215436D02*
X102335000Y-111669564D01*
X100865000Y-111215436D02*
X100865000Y-111669564D01*
%TO.C,R19*%
X98960000Y-111215436D02*
X98960000Y-111669564D01*
X100430000Y-111215436D02*
X100430000Y-111669564D01*
%TO.C,R17*%
X108992936Y-111225000D02*
X109447064Y-111225000D01*
X108992936Y-109755000D02*
X109447064Y-109755000D01*
%TO.C,R16*%
X96292936Y-111225000D02*
X96747064Y-111225000D01*
X96292936Y-109755000D02*
X96747064Y-109755000D01*
%TO.C,J15*%
X88642500Y-123567500D02*
X87312500Y-123567500D01*
X88642500Y-122237500D02*
X88642500Y-123567500D01*
X88642500Y-120967500D02*
X85982500Y-120967500D01*
X85982500Y-120967500D02*
X85982500Y-113287500D01*
X88642500Y-120967500D02*
X88642500Y-113287500D01*
X88642500Y-113287500D02*
X85982500Y-113287500D01*
%TO.C,J7*%
X129282500Y-83125000D02*
X129282500Y-84455000D01*
X127952500Y-83125000D02*
X129282500Y-83125000D01*
X126682500Y-83125000D02*
X126682500Y-85785000D01*
X126682500Y-85785000D02*
X124082500Y-85785000D01*
X126682500Y-83125000D02*
X124082500Y-83125000D01*
X124082500Y-83125000D02*
X124082500Y-85785000D01*
%TO.C,D4*%
X85442500Y-90552500D02*
X85442500Y-88702500D01*
X86642500Y-90552500D02*
X86642500Y-88702500D01*
X86642500Y-88702500D02*
X85442500Y-88702500D01*
%TO.C,D3*%
X85442500Y-95632500D02*
X85442500Y-93782500D01*
X86642500Y-95632500D02*
X86642500Y-93782500D01*
X86642500Y-93782500D02*
X85442500Y-93782500D01*
%TO.C,D2*%
X85442500Y-100712500D02*
X85442500Y-98862500D01*
X86642500Y-100712500D02*
X86642500Y-98862500D01*
X86642500Y-98862500D02*
X85442500Y-98862500D01*
%TO.C,C10*%
X140292500Y-104851252D02*
X140292500Y-103428748D01*
X138472500Y-104851252D02*
X138472500Y-103428748D01*
%TO.C,C9*%
X136468752Y-108167500D02*
X135946248Y-108167500D01*
X136468752Y-109637500D02*
X135946248Y-109637500D01*
%TO.C,C8*%
X130767500Y-110413748D02*
X130767500Y-111836252D01*
X128947500Y-110413748D02*
X128947500Y-111836252D01*
%TO.C,C7*%
X118067500Y-110413748D02*
X118067500Y-111836252D01*
X116247500Y-110413748D02*
X116247500Y-111836252D01*
%TO.C,C6*%
X105367500Y-110413748D02*
X105367500Y-111836252D01*
X103547500Y-110413748D02*
X103547500Y-111836252D01*
%TO.C,C5*%
X121658748Y-113130000D02*
X122181252Y-113130000D01*
X121658748Y-111660000D02*
X122181252Y-111660000D01*
%TO.C,C4*%
X108958748Y-113130000D02*
X109481252Y-113130000D01*
X108958748Y-111660000D02*
X109481252Y-111660000D01*
%TO.C,C3*%
X96258748Y-113130000D02*
X96781252Y-113130000D01*
X96258748Y-111660000D02*
X96781252Y-111660000D01*
%TO.C,C2*%
X125971248Y-88540000D02*
X127393752Y-88540000D01*
X125971248Y-86720000D02*
X127393752Y-86720000D01*
%TO.C,C1*%
X134712500Y-87810000D02*
X134087500Y-87810000D01*
X134400000Y-87497500D02*
X134400000Y-88122500D01*
X131019437Y-88362500D02*
X129955000Y-89426937D01*
X134410563Y-88362500D02*
X135475000Y-89426937D01*
X134410563Y-88362500D02*
X133775000Y-88362500D01*
X131019437Y-88362500D02*
X131655000Y-88362500D01*
X129955000Y-89426937D02*
X129955000Y-93882500D01*
X135475000Y-89426937D02*
X135475000Y-93882500D01*
X135475000Y-93882500D02*
X133775000Y-93882500D01*
X129955000Y-93882500D02*
X131655000Y-93882500D01*
%TO.C,J14*%
D11*
X60947380Y-117989404D02*
X60947380Y-118560833D01*
X60909285Y-118675119D01*
X60833095Y-118751309D01*
X60718809Y-118789404D01*
X60642619Y-118789404D01*
X61747380Y-118789404D02*
X61290238Y-118789404D01*
X61518809Y-118789404D02*
X61518809Y-117989404D01*
X61442619Y-118103690D01*
X61366428Y-118179880D01*
X61290238Y-118217976D01*
X62433095Y-118256071D02*
X62433095Y-118789404D01*
X62242619Y-117951309D02*
X62052142Y-118522738D01*
X62547380Y-118522738D01*
%TO.C,J10*%
D13*
X120792976Y-123594880D02*
X120792976Y-124309166D01*
X120745357Y-124452023D01*
X120650119Y-124547261D01*
X120507261Y-124594880D01*
X120412023Y-124594880D01*
X121792976Y-124594880D02*
X121221547Y-124594880D01*
X121507261Y-124594880D02*
X121507261Y-123594880D01*
X121412023Y-123737738D01*
X121316785Y-123832976D01*
X121221547Y-123880595D01*
X122412023Y-123594880D02*
X122507261Y-123594880D01*
X122602500Y-123642500D01*
X122650119Y-123690119D01*
X122697738Y-123785357D01*
X122745357Y-123975833D01*
X122745357Y-124213928D01*
X122697738Y-124404404D01*
X122650119Y-124499642D01*
X122602500Y-124547261D01*
X122507261Y-124594880D01*
X122412023Y-124594880D01*
X122316785Y-124547261D01*
X122269166Y-124499642D01*
X122221547Y-124404404D01*
X122173928Y-124213928D01*
X122173928Y-123975833D01*
X122221547Y-123785357D01*
X122269166Y-123690119D01*
X122316785Y-123642500D01*
X122412023Y-123594880D01*
%TO.C,J8*%
X107934166Y-123594880D02*
X107934166Y-124309166D01*
X107886547Y-124452023D01*
X107791309Y-124547261D01*
X107648452Y-124594880D01*
X107553214Y-124594880D01*
X108553214Y-124023452D02*
X108457976Y-123975833D01*
X108410357Y-123928214D01*
X108362738Y-123832976D01*
X108362738Y-123785357D01*
X108410357Y-123690119D01*
X108457976Y-123642500D01*
X108553214Y-123594880D01*
X108743690Y-123594880D01*
X108838928Y-123642500D01*
X108886547Y-123690119D01*
X108934166Y-123785357D01*
X108934166Y-123832976D01*
X108886547Y-123928214D01*
X108838928Y-123975833D01*
X108743690Y-124023452D01*
X108553214Y-124023452D01*
X108457976Y-124071071D01*
X108410357Y-124118690D01*
X108362738Y-124213928D01*
X108362738Y-124404404D01*
X108410357Y-124499642D01*
X108457976Y-124547261D01*
X108553214Y-124594880D01*
X108743690Y-124594880D01*
X108838928Y-124547261D01*
X108886547Y-124499642D01*
X108934166Y-124404404D01*
X108934166Y-124213928D01*
X108886547Y-124118690D01*
X108838928Y-124071071D01*
X108743690Y-124023452D01*
%TO.C,J9*%
X95234166Y-123594880D02*
X95234166Y-124309166D01*
X95186547Y-124452023D01*
X95091309Y-124547261D01*
X94948452Y-124594880D01*
X94853214Y-124594880D01*
X95757976Y-124594880D02*
X95948452Y-124594880D01*
X96043690Y-124547261D01*
X96091309Y-124499642D01*
X96186547Y-124356785D01*
X96234166Y-124166309D01*
X96234166Y-123785357D01*
X96186547Y-123690119D01*
X96138928Y-123642500D01*
X96043690Y-123594880D01*
X95853214Y-123594880D01*
X95757976Y-123642500D01*
X95710357Y-123690119D01*
X95662738Y-123785357D01*
X95662738Y-124023452D01*
X95710357Y-124118690D01*
X95757976Y-124166309D01*
X95853214Y-124213928D01*
X96043690Y-124213928D01*
X96138928Y-124166309D01*
X96186547Y-124118690D01*
X96234166Y-124023452D01*
%TO.C,J13*%
X135715476Y-123594880D02*
X135715476Y-124309166D01*
X135667857Y-124452023D01*
X135572619Y-124547261D01*
X135429761Y-124594880D01*
X135334523Y-124594880D01*
X136715476Y-124594880D02*
X136144047Y-124594880D01*
X136429761Y-124594880D02*
X136429761Y-123594880D01*
X136334523Y-123737738D01*
X136239285Y-123832976D01*
X136144047Y-123880595D01*
X137048809Y-123594880D02*
X137667857Y-123594880D01*
X137334523Y-123975833D01*
X137477380Y-123975833D01*
X137572619Y-124023452D01*
X137620238Y-124071071D01*
X137667857Y-124166309D01*
X137667857Y-124404404D01*
X137620238Y-124499642D01*
X137572619Y-124547261D01*
X137477380Y-124594880D01*
X137191666Y-124594880D01*
X137096428Y-124547261D01*
X137048809Y-124499642D01*
%TO.C,D1*%
X139120595Y-85542380D02*
X139120595Y-84542380D01*
X139692023Y-85542380D02*
X139263452Y-84970952D01*
X139692023Y-84542380D02*
X139120595Y-85113809D01*
%TO.C,J16*%
X70627976Y-123594880D02*
X70627976Y-124309166D01*
X70580357Y-124452023D01*
X70485119Y-124547261D01*
X70342261Y-124594880D01*
X70247023Y-124594880D01*
X71627976Y-124594880D02*
X71056547Y-124594880D01*
X71342261Y-124594880D02*
X71342261Y-123594880D01*
X71247023Y-123737738D01*
X71151785Y-123832976D01*
X71056547Y-123880595D01*
X72485119Y-123594880D02*
X72294642Y-123594880D01*
X72199404Y-123642500D01*
X72151785Y-123690119D01*
X72056547Y-123832976D01*
X72008928Y-124023452D01*
X72008928Y-124404404D01*
X72056547Y-124499642D01*
X72104166Y-124547261D01*
X72199404Y-124594880D01*
X72389880Y-124594880D01*
X72485119Y-124547261D01*
X72532738Y-124499642D01*
X72580357Y-124404404D01*
X72580357Y-124166309D01*
X72532738Y-124071071D01*
X72485119Y-124023452D01*
X72389880Y-123975833D01*
X72199404Y-123975833D01*
X72104166Y-124023452D01*
X72056547Y-124071071D01*
X72008928Y-124166309D01*
X74596785Y-123293214D02*
X74596785Y-123959880D01*
X74358690Y-122912261D02*
X74120595Y-123626547D01*
X74739642Y-123626547D01*
X75120595Y-123959880D02*
X75120595Y-122959880D01*
X75501547Y-122959880D01*
X75596785Y-123007500D01*
X75644404Y-123055119D01*
X75692023Y-123150357D01*
X75692023Y-123293214D01*
X75644404Y-123388452D01*
X75596785Y-123436071D01*
X75501547Y-123483690D01*
X75120595Y-123483690D01*
X76549166Y-123293214D02*
X76549166Y-123959880D01*
X76311071Y-122912261D02*
X76072976Y-123626547D01*
X76692023Y-123626547D01*
X77644404Y-123864642D02*
X77596785Y-123912261D01*
X77453928Y-123959880D01*
X77358690Y-123959880D01*
X77215833Y-123912261D01*
X77120595Y-123817023D01*
X77072976Y-123721785D01*
X77025357Y-123531309D01*
X77025357Y-123388452D01*
X77072976Y-123197976D01*
X77120595Y-123102738D01*
X77215833Y-123007500D01*
X77358690Y-122959880D01*
X77453928Y-122959880D01*
X77596785Y-123007500D01*
X77644404Y-123055119D01*
%TO.C,U1*%
X57872261Y-104804523D02*
X57919880Y-104661666D01*
X57919880Y-104423571D01*
X57872261Y-104328333D01*
X57824642Y-104280714D01*
X57729404Y-104233095D01*
X57634166Y-104233095D01*
X57538928Y-104280714D01*
X57491309Y-104328333D01*
X57443690Y-104423571D01*
X57396071Y-104614047D01*
X57348452Y-104709285D01*
X57300833Y-104756904D01*
X57205595Y-104804523D01*
X57110357Y-104804523D01*
X57015119Y-104756904D01*
X56967500Y-104709285D01*
X56919880Y-104614047D01*
X56919880Y-104375952D01*
X56967500Y-104233095D01*
X57919880Y-103804523D02*
X56919880Y-103804523D01*
X56919880Y-103566428D01*
X56967500Y-103423571D01*
X57062738Y-103328333D01*
X57157976Y-103280714D01*
X57348452Y-103233095D01*
X57491309Y-103233095D01*
X57681785Y-103280714D01*
X57777023Y-103328333D01*
X57872261Y-103423571D01*
X57919880Y-103566428D01*
X57919880Y-103804523D01*
X56919880Y-102899761D02*
X56919880Y-102280714D01*
X57300833Y-102614047D01*
X57300833Y-102471190D01*
X57348452Y-102375952D01*
X57396071Y-102328333D01*
X57491309Y-102280714D01*
X57729404Y-102280714D01*
X57824642Y-102328333D01*
X57872261Y-102375952D01*
X57919880Y-102471190D01*
X57919880Y-102756904D01*
X57872261Y-102852142D01*
X57824642Y-102899761D01*
X59459880Y-104899761D02*
X59459880Y-104328333D01*
X60459880Y-104614047D02*
X59459880Y-104614047D01*
X60459880Y-103995000D02*
X59459880Y-103995000D01*
X59459880Y-103756904D01*
X59507500Y-103614047D01*
X59602738Y-103518809D01*
X59697976Y-103471190D01*
X59888452Y-103423571D01*
X60031309Y-103423571D01*
X60221785Y-103471190D01*
X60317023Y-103518809D01*
X60412261Y-103614047D01*
X60459880Y-103756904D01*
X60459880Y-103995000D01*
X59459880Y-102804523D02*
X59459880Y-102709285D01*
X59507500Y-102614047D01*
X59555119Y-102566428D01*
X59650357Y-102518809D01*
X59840833Y-102471190D01*
X60078928Y-102471190D01*
X60269404Y-102518809D01*
X60364642Y-102566428D01*
X60412261Y-102614047D01*
X60459880Y-102709285D01*
X60459880Y-102804523D01*
X60412261Y-102899761D01*
X60364642Y-102947380D01*
X60269404Y-102995000D01*
X60078928Y-103042619D01*
X59840833Y-103042619D01*
X59650357Y-102995000D01*
X59555119Y-102947380D01*
X59507500Y-102899761D01*
X59459880Y-102804523D01*
X61999880Y-104899761D02*
X62999880Y-104566428D01*
X61999880Y-104233095D01*
X62904642Y-103328333D02*
X62952261Y-103375952D01*
X62999880Y-103518809D01*
X62999880Y-103614047D01*
X62952261Y-103756904D01*
X62857023Y-103852142D01*
X62761785Y-103899761D01*
X62571309Y-103947380D01*
X62428452Y-103947380D01*
X62237976Y-103899761D01*
X62142738Y-103852142D01*
X62047500Y-103756904D01*
X61999880Y-103614047D01*
X61999880Y-103518809D01*
X62047500Y-103375952D01*
X62095119Y-103328333D01*
X62904642Y-102328333D02*
X62952261Y-102375952D01*
X62999880Y-102518809D01*
X62999880Y-102614047D01*
X62952261Y-102756904D01*
X62857023Y-102852142D01*
X62761785Y-102899761D01*
X62571309Y-102947380D01*
X62428452Y-102947380D01*
X62237976Y-102899761D01*
X62142738Y-102852142D01*
X62047500Y-102756904D01*
X61999880Y-102614047D01*
X61999880Y-102518809D01*
X62047500Y-102375952D01*
X62095119Y-102328333D01*
X64587500Y-104233095D02*
X64539880Y-104328333D01*
X64539880Y-104471190D01*
X64587500Y-104614047D01*
X64682738Y-104709285D01*
X64777976Y-104756904D01*
X64968452Y-104804523D01*
X65111309Y-104804523D01*
X65301785Y-104756904D01*
X65397023Y-104709285D01*
X65492261Y-104614047D01*
X65539880Y-104471190D01*
X65539880Y-104375952D01*
X65492261Y-104233095D01*
X65444642Y-104185476D01*
X65111309Y-104185476D01*
X65111309Y-104375952D01*
X65539880Y-103756904D02*
X64539880Y-103756904D01*
X65539880Y-103185476D01*
X64539880Y-103185476D01*
X65539880Y-102709285D02*
X64539880Y-102709285D01*
X64539880Y-102471190D01*
X64587500Y-102328333D01*
X64682738Y-102233095D01*
X64777976Y-102185476D01*
X64968452Y-102137857D01*
X65111309Y-102137857D01*
X65301785Y-102185476D01*
X65397023Y-102233095D01*
X65492261Y-102328333D01*
X65539880Y-102471190D01*
X65539880Y-102709285D01*
X68079880Y-104756904D02*
X67079880Y-104756904D01*
X67079880Y-104090238D02*
X67079880Y-103899761D01*
X67127500Y-103804523D01*
X67222738Y-103709285D01*
X67413214Y-103661666D01*
X67746547Y-103661666D01*
X67937023Y-103709285D01*
X68032261Y-103804523D01*
X68079880Y-103899761D01*
X68079880Y-104090238D01*
X68032261Y-104185476D01*
X67937023Y-104280714D01*
X67746547Y-104328333D01*
X67413214Y-104328333D01*
X67222738Y-104280714D01*
X67127500Y-104185476D01*
X67079880Y-104090238D01*
X68079880Y-102709285D02*
X68079880Y-103280714D01*
X68079880Y-102995000D02*
X67079880Y-102995000D01*
X67222738Y-103090238D01*
X67317976Y-103185476D01*
X67365595Y-103280714D01*
X67079880Y-101852142D02*
X67079880Y-102042619D01*
X67127500Y-102137857D01*
X67175119Y-102185476D01*
X67317976Y-102280714D01*
X67508452Y-102328333D01*
X67889404Y-102328333D01*
X67984642Y-102280714D01*
X68032261Y-102233095D01*
X68079880Y-102137857D01*
X68079880Y-101947380D01*
X68032261Y-101852142D01*
X67984642Y-101804523D01*
X67889404Y-101756904D01*
X67651309Y-101756904D01*
X67556071Y-101804523D01*
X67508452Y-101852142D01*
X67460833Y-101947380D01*
X67460833Y-102137857D01*
X67508452Y-102233095D01*
X67556071Y-102280714D01*
X67651309Y-102328333D01*
X70619880Y-104756904D02*
X69619880Y-104756904D01*
X69619880Y-104090238D02*
X69619880Y-103899761D01*
X69667500Y-103804523D01*
X69762738Y-103709285D01*
X69953214Y-103661666D01*
X70286547Y-103661666D01*
X70477023Y-103709285D01*
X70572261Y-103804523D01*
X70619880Y-103899761D01*
X70619880Y-104090238D01*
X70572261Y-104185476D01*
X70477023Y-104280714D01*
X70286547Y-104328333D01*
X69953214Y-104328333D01*
X69762738Y-104280714D01*
X69667500Y-104185476D01*
X69619880Y-104090238D01*
X70619880Y-102709285D02*
X70619880Y-103280714D01*
X70619880Y-102995000D02*
X69619880Y-102995000D01*
X69762738Y-103090238D01*
X69857976Y-103185476D01*
X69905595Y-103280714D01*
X69619880Y-102375952D02*
X69619880Y-101709285D01*
X70619880Y-102137857D01*
X73159880Y-104756904D02*
X72159880Y-104756904D01*
X72159880Y-104090238D02*
X72159880Y-103899761D01*
X72207500Y-103804523D01*
X72302738Y-103709285D01*
X72493214Y-103661666D01*
X72826547Y-103661666D01*
X73017023Y-103709285D01*
X73112261Y-103804523D01*
X73159880Y-103899761D01*
X73159880Y-104090238D01*
X73112261Y-104185476D01*
X73017023Y-104280714D01*
X72826547Y-104328333D01*
X72493214Y-104328333D01*
X72302738Y-104280714D01*
X72207500Y-104185476D01*
X72159880Y-104090238D01*
X72255119Y-103280714D02*
X72207500Y-103233095D01*
X72159880Y-103137857D01*
X72159880Y-102899761D01*
X72207500Y-102804523D01*
X72255119Y-102756904D01*
X72350357Y-102709285D01*
X72445595Y-102709285D01*
X72588452Y-102756904D01*
X73159880Y-103328333D01*
X73159880Y-102709285D01*
X73159880Y-101756904D02*
X73159880Y-102328333D01*
X73159880Y-102042619D02*
X72159880Y-102042619D01*
X72302738Y-102137857D01*
X72397976Y-102233095D01*
X72445595Y-102328333D01*
X75699880Y-104756904D02*
X74699880Y-104756904D01*
X74699880Y-104090238D02*
X74699880Y-103899761D01*
X74747500Y-103804523D01*
X74842738Y-103709285D01*
X75033214Y-103661666D01*
X75366547Y-103661666D01*
X75557023Y-103709285D01*
X75652261Y-103804523D01*
X75699880Y-103899761D01*
X75699880Y-104090238D01*
X75652261Y-104185476D01*
X75557023Y-104280714D01*
X75366547Y-104328333D01*
X75033214Y-104328333D01*
X74842738Y-104280714D01*
X74747500Y-104185476D01*
X74699880Y-104090238D01*
X74795119Y-103280714D02*
X74747500Y-103233095D01*
X74699880Y-103137857D01*
X74699880Y-102899761D01*
X74747500Y-102804523D01*
X74795119Y-102756904D01*
X74890357Y-102709285D01*
X74985595Y-102709285D01*
X75128452Y-102756904D01*
X75699880Y-103328333D01*
X75699880Y-102709285D01*
X74795119Y-102328333D02*
X74747500Y-102280714D01*
X74699880Y-102185476D01*
X74699880Y-101947380D01*
X74747500Y-101852142D01*
X74795119Y-101804523D01*
X74890357Y-101756904D01*
X74985595Y-101756904D01*
X75128452Y-101804523D01*
X75699880Y-102375952D01*
X75699880Y-101756904D01*
X78239880Y-104185476D02*
X77763690Y-104518809D01*
X78239880Y-104756904D02*
X77239880Y-104756904D01*
X77239880Y-104375952D01*
X77287500Y-104280714D01*
X77335119Y-104233095D01*
X77430357Y-104185476D01*
X77573214Y-104185476D01*
X77668452Y-104233095D01*
X77716071Y-104280714D01*
X77763690Y-104375952D01*
X77763690Y-104756904D01*
X77239880Y-103852142D02*
X78239880Y-103185476D01*
X77239880Y-103185476D02*
X78239880Y-103852142D01*
X78239880Y-102804523D02*
X77239880Y-102804523D01*
X77239880Y-102566428D01*
X77287500Y-102423571D01*
X77382738Y-102328333D01*
X77477976Y-102280714D01*
X77668452Y-102233095D01*
X77811309Y-102233095D01*
X78001785Y-102280714D01*
X78097023Y-102328333D01*
X78192261Y-102423571D01*
X78239880Y-102566428D01*
X78239880Y-102804523D01*
X79779880Y-104899761D02*
X79779880Y-104328333D01*
X80779880Y-104614047D02*
X79779880Y-104614047D01*
X79779880Y-104090238D02*
X80779880Y-103423571D01*
X79779880Y-103423571D02*
X80779880Y-104090238D01*
X80779880Y-103042619D02*
X79779880Y-103042619D01*
X79779880Y-102804523D01*
X79827500Y-102661666D01*
X79922738Y-102566428D01*
X80017976Y-102518809D01*
X80208452Y-102471190D01*
X80351309Y-102471190D01*
X80541785Y-102518809D01*
X80637023Y-102566428D01*
X80732261Y-102661666D01*
X80779880Y-102804523D01*
X80779880Y-103042619D01*
X57824642Y-112270000D02*
X57872261Y-112317619D01*
X57919880Y-112460476D01*
X57919880Y-112555714D01*
X57872261Y-112698571D01*
X57777023Y-112793809D01*
X57681785Y-112841428D01*
X57491309Y-112889047D01*
X57348452Y-112889047D01*
X57157976Y-112841428D01*
X57062738Y-112793809D01*
X56967500Y-112698571D01*
X56919880Y-112555714D01*
X56919880Y-112460476D01*
X56967500Y-112317619D01*
X57015119Y-112270000D01*
X57919880Y-111365238D02*
X57919880Y-111841428D01*
X56919880Y-111841428D01*
X57919880Y-111031904D02*
X56919880Y-111031904D01*
X57919880Y-110460476D02*
X57348452Y-110889047D01*
X56919880Y-110460476D02*
X57491309Y-111031904D01*
X60412261Y-112984285D02*
X60459880Y-112841428D01*
X60459880Y-112603333D01*
X60412261Y-112508095D01*
X60364642Y-112460476D01*
X60269404Y-112412857D01*
X60174166Y-112412857D01*
X60078928Y-112460476D01*
X60031309Y-112508095D01*
X59983690Y-112603333D01*
X59936071Y-112793809D01*
X59888452Y-112889047D01*
X59840833Y-112936666D01*
X59745595Y-112984285D01*
X59650357Y-112984285D01*
X59555119Y-112936666D01*
X59507500Y-112889047D01*
X59459880Y-112793809D01*
X59459880Y-112555714D01*
X59507500Y-112412857D01*
X60459880Y-111984285D02*
X59459880Y-111984285D01*
X59459880Y-111746190D01*
X59507500Y-111603333D01*
X59602738Y-111508095D01*
X59697976Y-111460476D01*
X59888452Y-111412857D01*
X60031309Y-111412857D01*
X60221785Y-111460476D01*
X60317023Y-111508095D01*
X60412261Y-111603333D01*
X60459880Y-111746190D01*
X60459880Y-111984285D01*
X60459880Y-110460476D02*
X60459880Y-111031904D01*
X60459880Y-110746190D02*
X59459880Y-110746190D01*
X59602738Y-110841428D01*
X59697976Y-110936666D01*
X59745595Y-111031904D01*
X62999880Y-112508095D02*
X61999880Y-112508095D01*
X61999880Y-111841428D02*
X61999880Y-111650952D01*
X62047500Y-111555714D01*
X62142738Y-111460476D01*
X62333214Y-111412857D01*
X62666547Y-111412857D01*
X62857023Y-111460476D01*
X62952261Y-111555714D01*
X62999880Y-111650952D01*
X62999880Y-111841428D01*
X62952261Y-111936666D01*
X62857023Y-112031904D01*
X62666547Y-112079523D01*
X62333214Y-112079523D01*
X62142738Y-112031904D01*
X62047500Y-111936666D01*
X61999880Y-111841428D01*
X62095119Y-111031904D02*
X62047500Y-110984285D01*
X61999880Y-110889047D01*
X61999880Y-110650952D01*
X62047500Y-110555714D01*
X62095119Y-110508095D01*
X62190357Y-110460476D01*
X62285595Y-110460476D01*
X62428452Y-110508095D01*
X62999880Y-111079523D01*
X62999880Y-110460476D01*
X65539880Y-112508095D02*
X64539880Y-112508095D01*
X64539880Y-111841428D02*
X64539880Y-111650952D01*
X64587500Y-111555714D01*
X64682738Y-111460476D01*
X64873214Y-111412857D01*
X65206547Y-111412857D01*
X65397023Y-111460476D01*
X65492261Y-111555714D01*
X65539880Y-111650952D01*
X65539880Y-111841428D01*
X65492261Y-111936666D01*
X65397023Y-112031904D01*
X65206547Y-112079523D01*
X64873214Y-112079523D01*
X64682738Y-112031904D01*
X64587500Y-111936666D01*
X64539880Y-111841428D01*
X64539880Y-110793809D02*
X64539880Y-110698571D01*
X64587500Y-110603333D01*
X64635119Y-110555714D01*
X64730357Y-110508095D01*
X64920833Y-110460476D01*
X65158928Y-110460476D01*
X65349404Y-110508095D01*
X65444642Y-110555714D01*
X65492261Y-110603333D01*
X65539880Y-110698571D01*
X65539880Y-110793809D01*
X65492261Y-110889047D01*
X65444642Y-110936666D01*
X65349404Y-110984285D01*
X65158928Y-111031904D01*
X64920833Y-111031904D01*
X64730357Y-110984285D01*
X64635119Y-110936666D01*
X64587500Y-110889047D01*
X64539880Y-110793809D01*
X68079880Y-112508095D02*
X67079880Y-112508095D01*
X67079880Y-111841428D02*
X67079880Y-111650952D01*
X67127500Y-111555714D01*
X67222738Y-111460476D01*
X67413214Y-111412857D01*
X67746547Y-111412857D01*
X67937023Y-111460476D01*
X68032261Y-111555714D01*
X68079880Y-111650952D01*
X68079880Y-111841428D01*
X68032261Y-111936666D01*
X67937023Y-112031904D01*
X67746547Y-112079523D01*
X67413214Y-112079523D01*
X67222738Y-112031904D01*
X67127500Y-111936666D01*
X67079880Y-111841428D01*
X67413214Y-110555714D02*
X68079880Y-110555714D01*
X67032261Y-110793809D02*
X67746547Y-111031904D01*
X67746547Y-110412857D01*
X69619880Y-112412857D02*
X69619880Y-111841428D01*
X70619880Y-112127142D02*
X69619880Y-112127142D01*
X70619880Y-111508095D02*
X69619880Y-111508095D01*
X69619880Y-111270000D01*
X69667500Y-111127142D01*
X69762738Y-111031904D01*
X69857976Y-110984285D01*
X70048452Y-110936666D01*
X70191309Y-110936666D01*
X70381785Y-110984285D01*
X70477023Y-111031904D01*
X70572261Y-111127142D01*
X70619880Y-111270000D01*
X70619880Y-111508095D01*
X70619880Y-110508095D02*
X69619880Y-110508095D01*
X73159880Y-113460476D02*
X72159880Y-113460476D01*
X72159880Y-112793809D02*
X72159880Y-112603333D01*
X72207500Y-112508095D01*
X72302738Y-112412857D01*
X72493214Y-112365238D01*
X72826547Y-112365238D01*
X73017023Y-112412857D01*
X73112261Y-112508095D01*
X73159880Y-112603333D01*
X73159880Y-112793809D01*
X73112261Y-112889047D01*
X73017023Y-112984285D01*
X72826547Y-113031904D01*
X72493214Y-113031904D01*
X72302738Y-112984285D01*
X72207500Y-112889047D01*
X72159880Y-112793809D01*
X72159880Y-112031904D02*
X72159880Y-111412857D01*
X72540833Y-111746190D01*
X72540833Y-111603333D01*
X72588452Y-111508095D01*
X72636071Y-111460476D01*
X72731309Y-111412857D01*
X72969404Y-111412857D01*
X73064642Y-111460476D01*
X73112261Y-111508095D01*
X73159880Y-111603333D01*
X73159880Y-111889047D01*
X73112261Y-111984285D01*
X73064642Y-112031904D01*
X72255119Y-111031904D02*
X72207500Y-110984285D01*
X72159880Y-110889047D01*
X72159880Y-110650952D01*
X72207500Y-110555714D01*
X72255119Y-110508095D01*
X72350357Y-110460476D01*
X72445595Y-110460476D01*
X72588452Y-110508095D01*
X73159880Y-111079523D01*
X73159880Y-110460476D01*
X75699880Y-113460476D02*
X74699880Y-113460476D01*
X74699880Y-112793809D02*
X74699880Y-112603333D01*
X74747500Y-112508095D01*
X74842738Y-112412857D01*
X75033214Y-112365238D01*
X75366547Y-112365238D01*
X75557023Y-112412857D01*
X75652261Y-112508095D01*
X75699880Y-112603333D01*
X75699880Y-112793809D01*
X75652261Y-112889047D01*
X75557023Y-112984285D01*
X75366547Y-113031904D01*
X75033214Y-113031904D01*
X74842738Y-112984285D01*
X74747500Y-112889047D01*
X74699880Y-112793809D01*
X74795119Y-111984285D02*
X74747500Y-111936666D01*
X74699880Y-111841428D01*
X74699880Y-111603333D01*
X74747500Y-111508095D01*
X74795119Y-111460476D01*
X74890357Y-111412857D01*
X74985595Y-111412857D01*
X75128452Y-111460476D01*
X75699880Y-112031904D01*
X75699880Y-111412857D01*
X74699880Y-110508095D02*
X74699880Y-110984285D01*
X75176071Y-111031904D01*
X75128452Y-110984285D01*
X75080833Y-110889047D01*
X75080833Y-110650952D01*
X75128452Y-110555714D01*
X75176071Y-110508095D01*
X75271309Y-110460476D01*
X75509404Y-110460476D01*
X75604642Y-110508095D01*
X75652261Y-110555714D01*
X75699880Y-110650952D01*
X75699880Y-110889047D01*
X75652261Y-110984285D01*
X75604642Y-111031904D01*
X78239880Y-113460476D02*
X77239880Y-113460476D01*
X77239880Y-112793809D02*
X77239880Y-112603333D01*
X77287500Y-112508095D01*
X77382738Y-112412857D01*
X77573214Y-112365238D01*
X77906547Y-112365238D01*
X78097023Y-112412857D01*
X78192261Y-112508095D01*
X78239880Y-112603333D01*
X78239880Y-112793809D01*
X78192261Y-112889047D01*
X78097023Y-112984285D01*
X77906547Y-113031904D01*
X77573214Y-113031904D01*
X77382738Y-112984285D01*
X77287500Y-112889047D01*
X77239880Y-112793809D01*
X77335119Y-111984285D02*
X77287500Y-111936666D01*
X77239880Y-111841428D01*
X77239880Y-111603333D01*
X77287500Y-111508095D01*
X77335119Y-111460476D01*
X77430357Y-111412857D01*
X77525595Y-111412857D01*
X77668452Y-111460476D01*
X78239880Y-112031904D01*
X78239880Y-111412857D01*
X77239880Y-111079523D02*
X77239880Y-110412857D01*
X78239880Y-110841428D01*
X79827500Y-112555714D02*
X79779880Y-112650952D01*
X79779880Y-112793809D01*
X79827500Y-112936666D01*
X79922738Y-113031904D01*
X80017976Y-113079523D01*
X80208452Y-113127142D01*
X80351309Y-113127142D01*
X80541785Y-113079523D01*
X80637023Y-113031904D01*
X80732261Y-112936666D01*
X80779880Y-112793809D01*
X80779880Y-112698571D01*
X80732261Y-112555714D01*
X80684642Y-112508095D01*
X80351309Y-112508095D01*
X80351309Y-112698571D01*
X80779880Y-112079523D02*
X79779880Y-112079523D01*
X80779880Y-111508095D01*
X79779880Y-111508095D01*
X80779880Y-111031904D02*
X79779880Y-111031904D01*
X79779880Y-110793809D01*
X79827500Y-110650952D01*
X79922738Y-110555714D01*
X80017976Y-110508095D01*
X80208452Y-110460476D01*
X80351309Y-110460476D01*
X80541785Y-110508095D01*
X80637023Y-110555714D01*
X80732261Y-110650952D01*
X80779880Y-110793809D01*
X80779880Y-111031904D01*
X57872261Y-87584285D02*
X57919880Y-87441428D01*
X57919880Y-87203333D01*
X57872261Y-87108095D01*
X57824642Y-87060476D01*
X57729404Y-87012857D01*
X57634166Y-87012857D01*
X57538928Y-87060476D01*
X57491309Y-87108095D01*
X57443690Y-87203333D01*
X57396071Y-87393809D01*
X57348452Y-87489047D01*
X57300833Y-87536666D01*
X57205595Y-87584285D01*
X57110357Y-87584285D01*
X57015119Y-87536666D01*
X56967500Y-87489047D01*
X56919880Y-87393809D01*
X56919880Y-87155714D01*
X56967500Y-87012857D01*
X57919880Y-86584285D02*
X56919880Y-86584285D01*
X56919880Y-86346190D01*
X56967500Y-86203333D01*
X57062738Y-86108095D01*
X57157976Y-86060476D01*
X57348452Y-86012857D01*
X57491309Y-86012857D01*
X57681785Y-86060476D01*
X57777023Y-86108095D01*
X57872261Y-86203333D01*
X57919880Y-86346190D01*
X57919880Y-86584285D01*
X56919880Y-85679523D02*
X56919880Y-85060476D01*
X57300833Y-85393809D01*
X57300833Y-85250952D01*
X57348452Y-85155714D01*
X57396071Y-85108095D01*
X57491309Y-85060476D01*
X57729404Y-85060476D01*
X57824642Y-85108095D01*
X57872261Y-85155714D01*
X57919880Y-85250952D01*
X57919880Y-85536666D01*
X57872261Y-85631904D01*
X57824642Y-85679523D01*
X59459880Y-87536666D02*
X59459880Y-86965238D01*
X60459880Y-87250952D02*
X59459880Y-87250952D01*
X60364642Y-86060476D02*
X60412261Y-86108095D01*
X60459880Y-86250952D01*
X60459880Y-86346190D01*
X60412261Y-86489047D01*
X60317023Y-86584285D01*
X60221785Y-86631904D01*
X60031309Y-86679523D01*
X59888452Y-86679523D01*
X59697976Y-86631904D01*
X59602738Y-86584285D01*
X59507500Y-86489047D01*
X59459880Y-86346190D01*
X59459880Y-86250952D01*
X59507500Y-86108095D01*
X59555119Y-86060476D01*
X60459880Y-85631904D02*
X59459880Y-85631904D01*
X60459880Y-85060476D02*
X59888452Y-85489047D01*
X59459880Y-85060476D02*
X60031309Y-85631904D01*
X61999880Y-87489047D02*
X61999880Y-86870000D01*
X62380833Y-87203333D01*
X62380833Y-87060476D01*
X62428452Y-86965238D01*
X62476071Y-86917619D01*
X62571309Y-86870000D01*
X62809404Y-86870000D01*
X62904642Y-86917619D01*
X62952261Y-86965238D01*
X62999880Y-87060476D01*
X62999880Y-87346190D01*
X62952261Y-87441428D01*
X62904642Y-87489047D01*
X61999880Y-86584285D02*
X62999880Y-86250952D01*
X61999880Y-85917619D01*
X61999880Y-85679523D02*
X61999880Y-85060476D01*
X62380833Y-85393809D01*
X62380833Y-85250952D01*
X62428452Y-85155714D01*
X62476071Y-85108095D01*
X62571309Y-85060476D01*
X62809404Y-85060476D01*
X62904642Y-85108095D01*
X62952261Y-85155714D01*
X62999880Y-85250952D01*
X62999880Y-85536666D01*
X62952261Y-85631904D01*
X62904642Y-85679523D01*
X57824642Y-78785476D02*
X57872261Y-78833095D01*
X57919880Y-78975952D01*
X57919880Y-79071190D01*
X57872261Y-79214047D01*
X57777023Y-79309285D01*
X57681785Y-79356904D01*
X57491309Y-79404523D01*
X57348452Y-79404523D01*
X57157976Y-79356904D01*
X57062738Y-79309285D01*
X56967500Y-79214047D01*
X56919880Y-79071190D01*
X56919880Y-78975952D01*
X56967500Y-78833095D01*
X57015119Y-78785476D01*
X57919880Y-78356904D02*
X56919880Y-78356904D01*
X57634166Y-78023571D01*
X56919880Y-77690238D01*
X57919880Y-77690238D01*
X57919880Y-77214047D02*
X56919880Y-77214047D01*
X56919880Y-76975952D01*
X56967500Y-76833095D01*
X57062738Y-76737857D01*
X57157976Y-76690238D01*
X57348452Y-76642619D01*
X57491309Y-76642619D01*
X57681785Y-76690238D01*
X57777023Y-76737857D01*
X57872261Y-76833095D01*
X57919880Y-76975952D01*
X57919880Y-77214047D01*
X60412261Y-79404523D02*
X60459880Y-79261666D01*
X60459880Y-79023571D01*
X60412261Y-78928333D01*
X60364642Y-78880714D01*
X60269404Y-78833095D01*
X60174166Y-78833095D01*
X60078928Y-78880714D01*
X60031309Y-78928333D01*
X59983690Y-79023571D01*
X59936071Y-79214047D01*
X59888452Y-79309285D01*
X59840833Y-79356904D01*
X59745595Y-79404523D01*
X59650357Y-79404523D01*
X59555119Y-79356904D01*
X59507500Y-79309285D01*
X59459880Y-79214047D01*
X59459880Y-78975952D01*
X59507500Y-78833095D01*
X60459880Y-78404523D02*
X59459880Y-78404523D01*
X59459880Y-78166428D01*
X59507500Y-78023571D01*
X59602738Y-77928333D01*
X59697976Y-77880714D01*
X59888452Y-77833095D01*
X60031309Y-77833095D01*
X60221785Y-77880714D01*
X60317023Y-77928333D01*
X60412261Y-78023571D01*
X60459880Y-78166428D01*
X60459880Y-78404523D01*
X59555119Y-77452142D02*
X59507500Y-77404523D01*
X59459880Y-77309285D01*
X59459880Y-77071190D01*
X59507500Y-76975952D01*
X59555119Y-76928333D01*
X59650357Y-76880714D01*
X59745595Y-76880714D01*
X59888452Y-76928333D01*
X60459880Y-77499761D01*
X60459880Y-76880714D01*
X62999880Y-79356904D02*
X61999880Y-79356904D01*
X62999880Y-78785476D01*
X61999880Y-78785476D01*
X62904642Y-77737857D02*
X62952261Y-77785476D01*
X62999880Y-77928333D01*
X62999880Y-78023571D01*
X62952261Y-78166428D01*
X62857023Y-78261666D01*
X62761785Y-78309285D01*
X62571309Y-78356904D01*
X62428452Y-78356904D01*
X62237976Y-78309285D01*
X62142738Y-78261666D01*
X62047500Y-78166428D01*
X61999880Y-78023571D01*
X61999880Y-77928333D01*
X62047500Y-77785476D01*
X62095119Y-77737857D01*
X65539880Y-87108095D02*
X64539880Y-87108095D01*
X64539880Y-86441428D02*
X64539880Y-86250952D01*
X64587500Y-86155714D01*
X64682738Y-86060476D01*
X64873214Y-86012857D01*
X65206547Y-86012857D01*
X65397023Y-86060476D01*
X65492261Y-86155714D01*
X65539880Y-86250952D01*
X65539880Y-86441428D01*
X65492261Y-86536666D01*
X65397023Y-86631904D01*
X65206547Y-86679523D01*
X64873214Y-86679523D01*
X64682738Y-86631904D01*
X64587500Y-86536666D01*
X64539880Y-86441428D01*
X64539880Y-85108095D02*
X64539880Y-85584285D01*
X65016071Y-85631904D01*
X64968452Y-85584285D01*
X64920833Y-85489047D01*
X64920833Y-85250952D01*
X64968452Y-85155714D01*
X65016071Y-85108095D01*
X65111309Y-85060476D01*
X65349404Y-85060476D01*
X65444642Y-85108095D01*
X65492261Y-85155714D01*
X65539880Y-85250952D01*
X65539880Y-85489047D01*
X65492261Y-85584285D01*
X65444642Y-85631904D01*
X64539880Y-79499761D02*
X64539880Y-78928333D01*
X65539880Y-79214047D02*
X64539880Y-79214047D01*
X65539880Y-78595000D02*
X64539880Y-78595000D01*
X65254166Y-78261666D01*
X64539880Y-77928333D01*
X65539880Y-77928333D01*
X65492261Y-77499761D02*
X65539880Y-77356904D01*
X65539880Y-77118809D01*
X65492261Y-77023571D01*
X65444642Y-76975952D01*
X65349404Y-76928333D01*
X65254166Y-76928333D01*
X65158928Y-76975952D01*
X65111309Y-77023571D01*
X65063690Y-77118809D01*
X65016071Y-77309285D01*
X64968452Y-77404523D01*
X64920833Y-77452142D01*
X64825595Y-77499761D01*
X64730357Y-77499761D01*
X64635119Y-77452142D01*
X64587500Y-77404523D01*
X64539880Y-77309285D01*
X64539880Y-77071190D01*
X64587500Y-76928333D01*
X68079880Y-88060476D02*
X67079880Y-88060476D01*
X67079880Y-87393809D02*
X67079880Y-87203333D01*
X67127500Y-87108095D01*
X67222738Y-87012857D01*
X67413214Y-86965238D01*
X67746547Y-86965238D01*
X67937023Y-87012857D01*
X68032261Y-87108095D01*
X68079880Y-87203333D01*
X68079880Y-87393809D01*
X68032261Y-87489047D01*
X67937023Y-87584285D01*
X67746547Y-87631904D01*
X67413214Y-87631904D01*
X67222738Y-87584285D01*
X67127500Y-87489047D01*
X67079880Y-87393809D01*
X67175119Y-86584285D02*
X67127500Y-86536666D01*
X67079880Y-86441428D01*
X67079880Y-86203333D01*
X67127500Y-86108095D01*
X67175119Y-86060476D01*
X67270357Y-86012857D01*
X67365595Y-86012857D01*
X67508452Y-86060476D01*
X68079880Y-86631904D01*
X68079880Y-86012857D01*
X67079880Y-85679523D02*
X67079880Y-85060476D01*
X67460833Y-85393809D01*
X67460833Y-85250952D01*
X67508452Y-85155714D01*
X67556071Y-85108095D01*
X67651309Y-85060476D01*
X67889404Y-85060476D01*
X67984642Y-85108095D01*
X68032261Y-85155714D01*
X68079880Y-85250952D01*
X68079880Y-85536666D01*
X68032261Y-85631904D01*
X67984642Y-85679523D01*
X68079880Y-79356904D02*
X67079880Y-79356904D01*
X67079880Y-78690238D02*
X67079880Y-78499761D01*
X67127500Y-78404523D01*
X67222738Y-78309285D01*
X67413214Y-78261666D01*
X67746547Y-78261666D01*
X67937023Y-78309285D01*
X68032261Y-78404523D01*
X68079880Y-78499761D01*
X68079880Y-78690238D01*
X68032261Y-78785476D01*
X67937023Y-78880714D01*
X67746547Y-78928333D01*
X67413214Y-78928333D01*
X67222738Y-78880714D01*
X67127500Y-78785476D01*
X67079880Y-78690238D01*
X67079880Y-77928333D02*
X67079880Y-77309285D01*
X67460833Y-77642619D01*
X67460833Y-77499761D01*
X67508452Y-77404523D01*
X67556071Y-77356904D01*
X67651309Y-77309285D01*
X67889404Y-77309285D01*
X67984642Y-77356904D01*
X68032261Y-77404523D01*
X68079880Y-77499761D01*
X68079880Y-77785476D01*
X68032261Y-77880714D01*
X67984642Y-77928333D01*
X67413214Y-76452142D02*
X68079880Y-76452142D01*
X67032261Y-76690238D02*
X67746547Y-76928333D01*
X67746547Y-76309285D01*
X70619880Y-88060476D02*
X69619880Y-88060476D01*
X69619880Y-87393809D02*
X69619880Y-87203333D01*
X69667500Y-87108095D01*
X69762738Y-87012857D01*
X69953214Y-86965238D01*
X70286547Y-86965238D01*
X70477023Y-87012857D01*
X70572261Y-87108095D01*
X70619880Y-87203333D01*
X70619880Y-87393809D01*
X70572261Y-87489047D01*
X70477023Y-87584285D01*
X70286547Y-87631904D01*
X69953214Y-87631904D01*
X69762738Y-87584285D01*
X69667500Y-87489047D01*
X69619880Y-87393809D01*
X70619880Y-86012857D02*
X70619880Y-86584285D01*
X70619880Y-86298571D02*
X69619880Y-86298571D01*
X69762738Y-86393809D01*
X69857976Y-86489047D01*
X69905595Y-86584285D01*
X70619880Y-85536666D02*
X70619880Y-85346190D01*
X70572261Y-85250952D01*
X70524642Y-85203333D01*
X70381785Y-85108095D01*
X70191309Y-85060476D01*
X69810357Y-85060476D01*
X69715119Y-85108095D01*
X69667500Y-85155714D01*
X69619880Y-85250952D01*
X69619880Y-85441428D01*
X69667500Y-85536666D01*
X69715119Y-85584285D01*
X69810357Y-85631904D01*
X70048452Y-85631904D01*
X70143690Y-85584285D01*
X70191309Y-85536666D01*
X70238928Y-85441428D01*
X70238928Y-85250952D01*
X70191309Y-85155714D01*
X70143690Y-85108095D01*
X70048452Y-85060476D01*
X70619880Y-79356904D02*
X69619880Y-79356904D01*
X69619880Y-78690238D02*
X69619880Y-78499761D01*
X69667500Y-78404523D01*
X69762738Y-78309285D01*
X69953214Y-78261666D01*
X70286547Y-78261666D01*
X70477023Y-78309285D01*
X70572261Y-78404523D01*
X70619880Y-78499761D01*
X70619880Y-78690238D01*
X70572261Y-78785476D01*
X70477023Y-78880714D01*
X70286547Y-78928333D01*
X69953214Y-78928333D01*
X69762738Y-78880714D01*
X69667500Y-78785476D01*
X69619880Y-78690238D01*
X69619880Y-77928333D02*
X69619880Y-77309285D01*
X70000833Y-77642619D01*
X70000833Y-77499761D01*
X70048452Y-77404523D01*
X70096071Y-77356904D01*
X70191309Y-77309285D01*
X70429404Y-77309285D01*
X70524642Y-77356904D01*
X70572261Y-77404523D01*
X70619880Y-77499761D01*
X70619880Y-77785476D01*
X70572261Y-77880714D01*
X70524642Y-77928333D01*
X69619880Y-76975952D02*
X69619880Y-76356904D01*
X70000833Y-76690238D01*
X70000833Y-76547380D01*
X70048452Y-76452142D01*
X70096071Y-76404523D01*
X70191309Y-76356904D01*
X70429404Y-76356904D01*
X70524642Y-76404523D01*
X70572261Y-76452142D01*
X70619880Y-76547380D01*
X70619880Y-76833095D01*
X70572261Y-76928333D01*
X70524642Y-76975952D01*
X73159880Y-88060476D02*
X72159880Y-88060476D01*
X72159880Y-87393809D02*
X72159880Y-87203333D01*
X72207500Y-87108095D01*
X72302738Y-87012857D01*
X72493214Y-86965238D01*
X72826547Y-86965238D01*
X73017023Y-87012857D01*
X73112261Y-87108095D01*
X73159880Y-87203333D01*
X73159880Y-87393809D01*
X73112261Y-87489047D01*
X73017023Y-87584285D01*
X72826547Y-87631904D01*
X72493214Y-87631904D01*
X72302738Y-87584285D01*
X72207500Y-87489047D01*
X72159880Y-87393809D01*
X73159880Y-86012857D02*
X73159880Y-86584285D01*
X73159880Y-86298571D02*
X72159880Y-86298571D01*
X72302738Y-86393809D01*
X72397976Y-86489047D01*
X72445595Y-86584285D01*
X72588452Y-85441428D02*
X72540833Y-85536666D01*
X72493214Y-85584285D01*
X72397976Y-85631904D01*
X72350357Y-85631904D01*
X72255119Y-85584285D01*
X72207500Y-85536666D01*
X72159880Y-85441428D01*
X72159880Y-85250952D01*
X72207500Y-85155714D01*
X72255119Y-85108095D01*
X72350357Y-85060476D01*
X72397976Y-85060476D01*
X72493214Y-85108095D01*
X72540833Y-85155714D01*
X72588452Y-85250952D01*
X72588452Y-85441428D01*
X72636071Y-85536666D01*
X72683690Y-85584285D01*
X72778928Y-85631904D01*
X72969404Y-85631904D01*
X73064642Y-85584285D01*
X73112261Y-85536666D01*
X73159880Y-85441428D01*
X73159880Y-85250952D01*
X73112261Y-85155714D01*
X73064642Y-85108095D01*
X72969404Y-85060476D01*
X72778928Y-85060476D01*
X72683690Y-85108095D01*
X72636071Y-85155714D01*
X72588452Y-85250952D01*
X73159880Y-79356904D02*
X72159880Y-79356904D01*
X72159880Y-78690238D02*
X72159880Y-78499761D01*
X72207500Y-78404523D01*
X72302738Y-78309285D01*
X72493214Y-78261666D01*
X72826547Y-78261666D01*
X73017023Y-78309285D01*
X73112261Y-78404523D01*
X73159880Y-78499761D01*
X73159880Y-78690238D01*
X73112261Y-78785476D01*
X73017023Y-78880714D01*
X72826547Y-78928333D01*
X72493214Y-78928333D01*
X72302738Y-78880714D01*
X72207500Y-78785476D01*
X72159880Y-78690238D01*
X72159880Y-77928333D02*
X72159880Y-77309285D01*
X72540833Y-77642619D01*
X72540833Y-77499761D01*
X72588452Y-77404523D01*
X72636071Y-77356904D01*
X72731309Y-77309285D01*
X72969404Y-77309285D01*
X73064642Y-77356904D01*
X73112261Y-77404523D01*
X73159880Y-77499761D01*
X73159880Y-77785476D01*
X73112261Y-77880714D01*
X73064642Y-77928333D01*
X72159880Y-76404523D02*
X72159880Y-76880714D01*
X72636071Y-76928333D01*
X72588452Y-76880714D01*
X72540833Y-76785476D01*
X72540833Y-76547380D01*
X72588452Y-76452142D01*
X72636071Y-76404523D01*
X72731309Y-76356904D01*
X72969404Y-76356904D01*
X73064642Y-76404523D01*
X73112261Y-76452142D01*
X73159880Y-76547380D01*
X73159880Y-76785476D01*
X73112261Y-76880714D01*
X73064642Y-76928333D01*
X75699880Y-88060476D02*
X74699880Y-88060476D01*
X74699880Y-87393809D02*
X74699880Y-87203333D01*
X74747500Y-87108095D01*
X74842738Y-87012857D01*
X75033214Y-86965238D01*
X75366547Y-86965238D01*
X75557023Y-87012857D01*
X75652261Y-87108095D01*
X75699880Y-87203333D01*
X75699880Y-87393809D01*
X75652261Y-87489047D01*
X75557023Y-87584285D01*
X75366547Y-87631904D01*
X75033214Y-87631904D01*
X74842738Y-87584285D01*
X74747500Y-87489047D01*
X74699880Y-87393809D01*
X74795119Y-86584285D02*
X74747500Y-86536666D01*
X74699880Y-86441428D01*
X74699880Y-86203333D01*
X74747500Y-86108095D01*
X74795119Y-86060476D01*
X74890357Y-86012857D01*
X74985595Y-86012857D01*
X75128452Y-86060476D01*
X75699880Y-86631904D01*
X75699880Y-86012857D01*
X74699880Y-85155714D02*
X74699880Y-85346190D01*
X74747500Y-85441428D01*
X74795119Y-85489047D01*
X74937976Y-85584285D01*
X75128452Y-85631904D01*
X75509404Y-85631904D01*
X75604642Y-85584285D01*
X75652261Y-85536666D01*
X75699880Y-85441428D01*
X75699880Y-85250952D01*
X75652261Y-85155714D01*
X75604642Y-85108095D01*
X75509404Y-85060476D01*
X75271309Y-85060476D01*
X75176071Y-85108095D01*
X75128452Y-85155714D01*
X75080833Y-85250952D01*
X75080833Y-85441428D01*
X75128452Y-85536666D01*
X75176071Y-85584285D01*
X75271309Y-85631904D01*
X75652261Y-79404523D02*
X75699880Y-79261666D01*
X75699880Y-79023571D01*
X75652261Y-78928333D01*
X75604642Y-78880714D01*
X75509404Y-78833095D01*
X75414166Y-78833095D01*
X75318928Y-78880714D01*
X75271309Y-78928333D01*
X75223690Y-79023571D01*
X75176071Y-79214047D01*
X75128452Y-79309285D01*
X75080833Y-79356904D01*
X74985595Y-79404523D01*
X74890357Y-79404523D01*
X74795119Y-79356904D01*
X74747500Y-79309285D01*
X74699880Y-79214047D01*
X74699880Y-78975952D01*
X74747500Y-78833095D01*
X74699880Y-78547380D02*
X75699880Y-78214047D01*
X74699880Y-77880714D01*
X75699880Y-77547380D02*
X74699880Y-77547380D01*
X75699880Y-76975952D01*
X74699880Y-76975952D01*
X78192261Y-87489047D02*
X78239880Y-87346190D01*
X78239880Y-87108095D01*
X78192261Y-87012857D01*
X78144642Y-86965238D01*
X78049404Y-86917619D01*
X77954166Y-86917619D01*
X77858928Y-86965238D01*
X77811309Y-87012857D01*
X77763690Y-87108095D01*
X77716071Y-87298571D01*
X77668452Y-87393809D01*
X77620833Y-87441428D01*
X77525595Y-87489047D01*
X77430357Y-87489047D01*
X77335119Y-87441428D01*
X77287500Y-87393809D01*
X77239880Y-87298571D01*
X77239880Y-87060476D01*
X77287500Y-86917619D01*
X77239880Y-86631904D02*
X78239880Y-86298571D01*
X77239880Y-85965238D01*
X78239880Y-85631904D02*
X77239880Y-85631904D01*
X77239880Y-85250952D01*
X77287500Y-85155714D01*
X77335119Y-85108095D01*
X77430357Y-85060476D01*
X77573214Y-85060476D01*
X77668452Y-85108095D01*
X77716071Y-85155714D01*
X77763690Y-85250952D01*
X77763690Y-85631904D01*
X78239880Y-79356904D02*
X77239880Y-79356904D01*
X78239880Y-78785476D01*
X77239880Y-78785476D01*
X78144642Y-77737857D02*
X78192261Y-77785476D01*
X78239880Y-77928333D01*
X78239880Y-78023571D01*
X78192261Y-78166428D01*
X78097023Y-78261666D01*
X78001785Y-78309285D01*
X77811309Y-78356904D01*
X77668452Y-78356904D01*
X77477976Y-78309285D01*
X77382738Y-78261666D01*
X77287500Y-78166428D01*
X77239880Y-78023571D01*
X77239880Y-77928333D01*
X77287500Y-77785476D01*
X77335119Y-77737857D01*
X80779880Y-86774761D02*
X80303690Y-87108095D01*
X80779880Y-87346190D02*
X79779880Y-87346190D01*
X79779880Y-86965238D01*
X79827500Y-86870000D01*
X79875119Y-86822380D01*
X79970357Y-86774761D01*
X80113214Y-86774761D01*
X80208452Y-86822380D01*
X80256071Y-86870000D01*
X80303690Y-86965238D01*
X80303690Y-87346190D01*
X80732261Y-86393809D02*
X80779880Y-86250952D01*
X80779880Y-86012857D01*
X80732261Y-85917619D01*
X80684642Y-85870000D01*
X80589404Y-85822380D01*
X80494166Y-85822380D01*
X80398928Y-85870000D01*
X80351309Y-85917619D01*
X80303690Y-86012857D01*
X80256071Y-86203333D01*
X80208452Y-86298571D01*
X80160833Y-86346190D01*
X80065595Y-86393809D01*
X79970357Y-86393809D01*
X79875119Y-86346190D01*
X79827500Y-86298571D01*
X79779880Y-86203333D01*
X79779880Y-85965238D01*
X79827500Y-85822380D01*
X79779880Y-85536666D02*
X79779880Y-84965238D01*
X80779880Y-85250952D02*
X79779880Y-85250952D01*
X79827500Y-78833095D02*
X79779880Y-78928333D01*
X79779880Y-79071190D01*
X79827500Y-79214047D01*
X79922738Y-79309285D01*
X80017976Y-79356904D01*
X80208452Y-79404523D01*
X80351309Y-79404523D01*
X80541785Y-79356904D01*
X80637023Y-79309285D01*
X80732261Y-79214047D01*
X80779880Y-79071190D01*
X80779880Y-78975952D01*
X80732261Y-78833095D01*
X80684642Y-78785476D01*
X80351309Y-78785476D01*
X80351309Y-78975952D01*
X80779880Y-78356904D02*
X79779880Y-78356904D01*
X80779880Y-77785476D01*
X79779880Y-77785476D01*
X80779880Y-77309285D02*
X79779880Y-77309285D01*
X79779880Y-77071190D01*
X79827500Y-76928333D01*
X79922738Y-76833095D01*
X80017976Y-76785476D01*
X80208452Y-76737857D01*
X80351309Y-76737857D01*
X80541785Y-76785476D01*
X80637023Y-76833095D01*
X80732261Y-76928333D01*
X80779880Y-77071190D01*
X80779880Y-77309285D01*
%TD*%
M02*
