%TF.GenerationSoftware,KiCad,Pcbnew,(5.1.10)-1*%
%TF.CreationDate,2021-09-24T06:20:55+01:00*%
%TF.ProjectId,EnergyMonitor,456e6572-6779-44d6-9f6e-69746f722e6b,v1.0*%
%TF.SameCoordinates,Original*%
%TF.FileFunction,Soldermask,Bot*%
%TF.FilePolarity,Negative*%
%FSLAX46Y46*%
G04 Gerber Fmt 4.6, Leading zero omitted, Abs format (unit mm)*
G04 Created by KiCad (PCBNEW (5.1.10)-1) date 2021-09-24 06:20:55*
%MOMM*%
%LPD*%
G01*
G04 APERTURE LIST*
%ADD10C,2.000000*%
%ADD11O,1.700000X1.700000*%
%ADD12R,1.700000X1.700000*%
%ADD13C,4.400000*%
%ADD14C,0.700000*%
%ADD15O,1.524000X2.200000*%
%ADD16O,2.200000X1.524000*%
%ADD17O,1.524000X3.600000*%
%ADD18O,3.600000X1.524000*%
%ADD19O,1.600000X1.600000*%
%ADD20R,1.600000X1.600000*%
%ADD21O,1.200000X1.700000*%
%ADD22C,2.200000*%
%ADD23C,1.524000*%
G04 APERTURE END LIST*
%TO.C,R34*%
G36*
G01*
X94062500Y-120147501D02*
X94062500Y-119247499D01*
G75*
G02*
X94312499Y-118997500I249999J0D01*
G01*
X94837501Y-118997500D01*
G75*
G02*
X95087500Y-119247499I0J-249999D01*
G01*
X95087500Y-120147501D01*
G75*
G02*
X94837501Y-120397500I-249999J0D01*
G01*
X94312499Y-120397500D01*
G75*
G02*
X94062500Y-120147501I0J249999D01*
G01*
G37*
G36*
G01*
X92237500Y-120147501D02*
X92237500Y-119247499D01*
G75*
G02*
X92487499Y-118997500I249999J0D01*
G01*
X93012501Y-118997500D01*
G75*
G02*
X93262500Y-119247499I0J-249999D01*
G01*
X93262500Y-120147501D01*
G75*
G02*
X93012501Y-120397500I-249999J0D01*
G01*
X92487499Y-120397500D01*
G75*
G02*
X92237500Y-120147501I0J249999D01*
G01*
G37*
%TD*%
%TO.C,R33*%
G36*
G01*
X132950000Y-119247499D02*
X132950000Y-120147501D01*
G75*
G02*
X132700001Y-120397500I-249999J0D01*
G01*
X132174999Y-120397500D01*
G75*
G02*
X131925000Y-120147501I0J249999D01*
G01*
X131925000Y-119247499D01*
G75*
G02*
X132174999Y-118997500I249999J0D01*
G01*
X132700001Y-118997500D01*
G75*
G02*
X132950000Y-119247499I0J-249999D01*
G01*
G37*
G36*
G01*
X134775000Y-119247499D02*
X134775000Y-120147501D01*
G75*
G02*
X134525001Y-120397500I-249999J0D01*
G01*
X133999999Y-120397500D01*
G75*
G02*
X133750000Y-120147501I0J249999D01*
G01*
X133750000Y-119247499D01*
G75*
G02*
X133999999Y-118997500I249999J0D01*
G01*
X134525001Y-118997500D01*
G75*
G02*
X134775000Y-119247499I0J-249999D01*
G01*
G37*
%TD*%
%TO.C,R32*%
G36*
G01*
X94062500Y-103002501D02*
X94062500Y-102102499D01*
G75*
G02*
X94312499Y-101852500I249999J0D01*
G01*
X94837501Y-101852500D01*
G75*
G02*
X95087500Y-102102499I0J-249999D01*
G01*
X95087500Y-103002501D01*
G75*
G02*
X94837501Y-103252500I-249999J0D01*
G01*
X94312499Y-103252500D01*
G75*
G02*
X94062500Y-103002501I0J249999D01*
G01*
G37*
G36*
G01*
X92237500Y-103002501D02*
X92237500Y-102102499D01*
G75*
G02*
X92487499Y-101852500I249999J0D01*
G01*
X93012501Y-101852500D01*
G75*
G02*
X93262500Y-102102499I0J-249999D01*
G01*
X93262500Y-103002501D01*
G75*
G02*
X93012501Y-103252500I-249999J0D01*
G01*
X92487499Y-103252500D01*
G75*
G02*
X92237500Y-103002501I0J249999D01*
G01*
G37*
%TD*%
%TO.C,R31*%
G36*
G01*
X103372499Y-98190000D02*
X104272501Y-98190000D01*
G75*
G02*
X104522500Y-98439999I0J-249999D01*
G01*
X104522500Y-98965001D01*
G75*
G02*
X104272501Y-99215000I-249999J0D01*
G01*
X103372499Y-99215000D01*
G75*
G02*
X103122500Y-98965001I0J249999D01*
G01*
X103122500Y-98439999D01*
G75*
G02*
X103372499Y-98190000I249999J0D01*
G01*
G37*
G36*
G01*
X103372499Y-96365000D02*
X104272501Y-96365000D01*
G75*
G02*
X104522500Y-96614999I0J-249999D01*
G01*
X104522500Y-97140001D01*
G75*
G02*
X104272501Y-97390000I-249999J0D01*
G01*
X103372499Y-97390000D01*
G75*
G02*
X103122500Y-97140001I0J249999D01*
G01*
X103122500Y-96614999D01*
G75*
G02*
X103372499Y-96365000I249999J0D01*
G01*
G37*
%TD*%
%TO.C,R30*%
G36*
G01*
X116389999Y-98190000D02*
X117290001Y-98190000D01*
G75*
G02*
X117540000Y-98439999I0J-249999D01*
G01*
X117540000Y-98965001D01*
G75*
G02*
X117290001Y-99215000I-249999J0D01*
G01*
X116389999Y-99215000D01*
G75*
G02*
X116140000Y-98965001I0J249999D01*
G01*
X116140000Y-98439999D01*
G75*
G02*
X116389999Y-98190000I249999J0D01*
G01*
G37*
G36*
G01*
X116389999Y-96365000D02*
X117290001Y-96365000D01*
G75*
G02*
X117540000Y-96614999I0J-249999D01*
G01*
X117540000Y-97140001D01*
G75*
G02*
X117290001Y-97390000I-249999J0D01*
G01*
X116389999Y-97390000D01*
G75*
G02*
X116140000Y-97140001I0J249999D01*
G01*
X116140000Y-96614999D01*
G75*
G02*
X116389999Y-96365000I249999J0D01*
G01*
G37*
%TD*%
%TO.C,R15*%
G36*
G01*
X132264999Y-98190000D02*
X133165001Y-98190000D01*
G75*
G02*
X133415000Y-98439999I0J-249999D01*
G01*
X133415000Y-98965001D01*
G75*
G02*
X133165001Y-99215000I-249999J0D01*
G01*
X132264999Y-99215000D01*
G75*
G02*
X132015000Y-98965001I0J249999D01*
G01*
X132015000Y-98439999D01*
G75*
G02*
X132264999Y-98190000I249999J0D01*
G01*
G37*
G36*
G01*
X132264999Y-96365000D02*
X133165001Y-96365000D01*
G75*
G02*
X133415000Y-96614999I0J-249999D01*
G01*
X133415000Y-97140001D01*
G75*
G02*
X133165001Y-97390000I-249999J0D01*
G01*
X132264999Y-97390000D01*
G75*
G02*
X132015000Y-97140001I0J249999D01*
G01*
X132015000Y-96614999D01*
G75*
G02*
X132264999Y-96365000I249999J0D01*
G01*
G37*
%TD*%
D10*
%TO.C,TP5*%
X91440000Y-105092500D03*
%TD*%
%TO.C,TP4*%
X91440000Y-84772500D03*
%TD*%
%TO.C,TP3*%
X91440000Y-89852500D03*
%TD*%
%TO.C,TP2*%
X91440000Y-94932500D03*
%TD*%
%TO.C,TP1*%
X91440000Y-100012500D03*
%TD*%
D11*
%TO.C,J11*%
X140970000Y-89535000D03*
D12*
X140970000Y-92075000D03*
%TD*%
D13*
%TO.C,H4*%
X146685000Y-121920000D03*
D14*
X148335000Y-121920000D03*
X147851726Y-123086726D03*
X146685000Y-123570000D03*
X145518274Y-123086726D03*
X145035000Y-121920000D03*
X145518274Y-120753274D03*
X146685000Y-120270000D03*
X147851726Y-120753274D03*
%TD*%
D13*
%TO.C,H3*%
X53340000Y-121920000D03*
D14*
X54990000Y-121920000D03*
X54506726Y-123086726D03*
X53340000Y-123570000D03*
X52173274Y-123086726D03*
X51690000Y-121920000D03*
X52173274Y-120753274D03*
X53340000Y-120270000D03*
X54506726Y-120753274D03*
%TD*%
D13*
%TO.C,H2*%
X53340000Y-78740000D03*
D14*
X54990000Y-78740000D03*
X54506726Y-79906726D03*
X53340000Y-80390000D03*
X52173274Y-79906726D03*
X51690000Y-78740000D03*
X52173274Y-77573274D03*
X53340000Y-77090000D03*
X54506726Y-77573274D03*
%TD*%
D13*
%TO.C,H1*%
X146685000Y-78740000D03*
D14*
X148335000Y-78740000D03*
X147851726Y-79906726D03*
X146685000Y-80390000D03*
X145518274Y-79906726D03*
X145035000Y-78740000D03*
X145518274Y-77573274D03*
X146685000Y-77090000D03*
X147851726Y-77573274D03*
%TD*%
D15*
%TO.C,J10*%
X128143000Y-116522500D03*
D16*
X125730000Y-121412000D03*
D15*
X130683000Y-116522500D03*
X123317000Y-116522500D03*
X120777000Y-116522500D03*
%TD*%
%TO.C,J8*%
X115443000Y-116522500D03*
D16*
X113030000Y-121412000D03*
D15*
X117983000Y-116522500D03*
X110617000Y-116522500D03*
X108077000Y-116522500D03*
%TD*%
%TO.C,J9*%
X102743000Y-116522500D03*
D16*
X100330000Y-121412000D03*
D15*
X105283000Y-116522500D03*
X97917000Y-116522500D03*
X95377000Y-116522500D03*
%TD*%
D17*
%TO.C,J13*%
X143510000Y-116840000D03*
D18*
X139065000Y-120332500D03*
X139065000Y-113982500D03*
%TD*%
D19*
%TO.C,D1*%
X137477500Y-92710000D03*
D20*
X137477500Y-85090000D03*
%TD*%
D11*
%TO.C,J6*%
X124460000Y-107315000D03*
X124460000Y-104775000D03*
X124460000Y-102235000D03*
D12*
X124460000Y-99695000D03*
%TD*%
D11*
%TO.C,J5*%
X111760000Y-107315000D03*
X111760000Y-104775000D03*
X111760000Y-102235000D03*
D12*
X111760000Y-99695000D03*
%TD*%
D11*
%TO.C,J3*%
X121920000Y-107315000D03*
X121920000Y-104775000D03*
X121920000Y-102235000D03*
D12*
X121920000Y-99695000D03*
%TD*%
D11*
%TO.C,J2*%
X109220000Y-107315000D03*
X109220000Y-104775000D03*
X109220000Y-102235000D03*
D12*
X109220000Y-99695000D03*
%TD*%
D11*
%TO.C,J4*%
X99060000Y-107315000D03*
X99060000Y-104775000D03*
X99060000Y-102235000D03*
D12*
X99060000Y-99695000D03*
%TD*%
D11*
%TO.C,J1*%
X96520000Y-107315000D03*
X96520000Y-104775000D03*
X96520000Y-102235000D03*
D12*
X96520000Y-99695000D03*
%TD*%
D21*
%TO.C,J16*%
X74382500Y-116785000D03*
X75382500Y-119285000D03*
X76382500Y-116785000D03*
X77382500Y-119285000D03*
D22*
X69782500Y-121785000D03*
X81982500Y-121785000D03*
%TD*%
D23*
%TO.C,U1*%
X57467500Y-108902500D03*
X60007500Y-108902500D03*
X62547500Y-108902500D03*
X65087500Y-108902500D03*
X67627500Y-108902500D03*
X70167500Y-108902500D03*
X72707500Y-108902500D03*
X75247500Y-108902500D03*
X77787500Y-108902500D03*
X80327500Y-108902500D03*
X57467500Y-106362500D03*
X60007500Y-106362500D03*
X62547500Y-106362500D03*
X65087500Y-106362500D03*
X67627500Y-106362500D03*
X70167500Y-106362500D03*
X72707500Y-106362500D03*
X75247500Y-106362500D03*
X77787500Y-106362500D03*
X80327500Y-106362500D03*
X57467500Y-80962500D03*
X60007500Y-80962500D03*
X62547500Y-80962500D03*
X65087500Y-80962500D03*
X67627500Y-80962500D03*
X70167500Y-80962500D03*
X72707500Y-80962500D03*
X75247500Y-80962500D03*
X77787500Y-80962500D03*
X80327500Y-80962500D03*
X57467500Y-83502500D03*
X60007500Y-83502500D03*
X62547500Y-83502500D03*
X65087500Y-83502500D03*
X67627500Y-83502500D03*
X70167500Y-83502500D03*
X72707500Y-83502500D03*
X75247500Y-83502500D03*
X77787500Y-83502500D03*
X80327500Y-83502500D03*
%TD*%
D11*
%TO.C,J15*%
X87312500Y-114617500D03*
X87312500Y-117157500D03*
X87312500Y-119697500D03*
D12*
X87312500Y-122237500D03*
%TD*%
D11*
%TO.C,J7*%
X125412500Y-84455000D03*
D12*
X127952500Y-84455000D03*
%TD*%
M02*
